STARTFONT 2.1
COMMENT
COMMENT Converted from OpenType font "FiraCodeNerdFontMono-Retina.ttf" by "otf2bdf 3.0".
COMMENT
FONT -FreeType-FiraCode Nerd Font Mono Ret-Medium-R-Normal--27-200-96-96-P-149-ISO10646-1
SIZE 20 96 96
FONTBOUNDINGBOX 29 47 -9 -14
STARTPROPERTIES 19
FOUNDRY "FreeType"
FAMILY_NAME "FiraCode Nerd Font Mono Ret"
WEIGHT_NAME "Medium"
SLANT "R"
SETWIDTH_NAME "Normal"
ADD_STYLE_NAME ""
PIXEL_SIZE 27
POINT_SIZE 200
RESOLUTION_X 96
RESOLUTION_Y 96
SPACING "P"
AVERAGE_WIDTH 149
CHARSET_REGISTRY "ISO10646"
CHARSET_ENCODING "1"
FONT_ASCENT 24
FONT_DESCENT 8
COPYRIGHT "Copyright 2014-2021 The Fira Code Project Authors (https://github.com/tonsky/FiraCode)"
_OTF_FONTFILE "FiraCodeNerdFontMono-Retina.ttf"
_OTF_PSNAME "FiraCodeNFM-Ret"
ENDPROPERTIES
CHARS 3896
STARTCHAR 000D
ENCODING 13
SWIDTH 600 0
DWIDTH 16 0
BBX 0 0 0 0
BITMAP
ENDCHAR
STARTCHAR 0020
ENCODING 32
SWIDTH 600 0
DWIDTH 16 0
BBX 0 0 0 0
BITMAP
ENDCHAR
STARTCHAR 0021
ENCODING 33
SWIDTH 600 0
DWIDTH 16 0
BBX 4 19 6 0
BITMAP
70
70
70
70
70
60
60
60
60
60
60
60
60
00
00
60
F0
F0
60
ENDCHAR
STARTCHAR 0022
ENCODING 34
SWIDTH 600 0
DWIDTH 16 0
BBX 8 7 4 13
BITMAP
E7
E7
E7
67
67
67
67
ENDCHAR
STARTCHAR 0023
ENCODING 35
SWIDTH 600 0
DWIDTH 16 0
BBX 14 19 1 0
BITMAP
0E38
0C30
0C30
0C30
7FFC
7FFC
1C70
1C70
1860
1860
1860
1860
FFF8
FFF8
38E0
38C0
30C0
30C0
30C0
ENDCHAR
STARTCHAR 0024
ENCODING 36
SWIDTH 600 0
DWIDTH 16 0
BBX 13 28 2 -4
BITMAP
0200
0200
0200
0200
0F80
3FE0
7EF8
7230
E200
E200
7200
7A00
3E00
1FC0
07E0
02F0
0270
0238
0238
0238
4230
F2F0
7FE0
1F80
0200
0200
0200
0200
ENDCHAR
STARTCHAR 0025
ENCODING 37
SWIDTH 600 0
DWIDTH 16 0
BBX 16 19 0 0
BITMAP
3E04
7F0E
630C
E318
E338
6730
7F60
3EE0
00C0
0180
03BC
037E
06E7
0EC3
0CC3
18C3
38E7
307E
603C
ENDCHAR
STARTCHAR 0026
ENCODING 38
SWIDTH 600 0
DWIDTH 16 0
BBX 15 19 1 0
BITMAP
0F80
1FE0
38E0
7000
7000
3000
3800
0FFE
1FFE
3830
7030
6030
E030
E030
6030
7030
7870
3FE0
0FC0
ENDCHAR
STARTCHAR 0027
ENCODING 39
SWIDTH 600 0
DWIDTH 16 0
BBX 3 7 7 13
BITMAP
E0
E0
E0
E0
C0
C0
C0
ENDCHAR
STARTCHAR 0028
ENCODING 40
SWIDTH 600 0
DWIDTH 16 0
BBX 9 27 3 -4
BITMAP
0100
0380
0700
0E00
1C00
3800
3800
7000
7000
6000
E000
E000
E000
E000
E000
E000
6000
6000
7000
7000
3800
3800
1C00
0E00
0700
0380
0100
ENDCHAR
STARTCHAR 0029
ENCODING 41
SWIDTH 600 0
DWIDTH 16 0
BBX 8 27 5 -4
BITMAP
C0
E0
70
38
18
1C
0E
0E
06
07
07
07
07
07
07
07
07
07
06
0E
0E
1C
38
38
70
E0
40
ENDCHAR
STARTCHAR 002A
ENCODING 42
SWIDTH 600 0
DWIDTH 16 0
BBX 14 14 1 2
BITMAP
0380
0300
0300
0300
631C
FFFC
7FF8
0780
07C0
0EC0
1CE0
3C70
1830
0820
ENDCHAR
STARTCHAR 002B
ENCODING 43
SWIDTH 600 0
DWIDTH 16 0
BBX 13 13 2 2
BITMAP
0600
0600
0600
0600
0600
FFF8
FFF8
0600
0600
0600
0600
0600
0600
ENDCHAR
STARTCHAR 002C
ENCODING 44
SWIDTH 600 0
DWIDTH 16 0
BBX 5 10 6 -5
BITMAP
70
F0
F8
F0
70
70
E0
E0
C0
C0
ENDCHAR
STARTCHAR 002D
ENCODING 45
SWIDTH 600 0
DWIDTH 16 0
BBX 11 2 3 8
BITMAP
FFE0
FFE0
ENDCHAR
STARTCHAR 002E
ENCODING 46
SWIDTH 600 0
DWIDTH 16 0
BBX 5 5 6 0
BITMAP
70
F8
F8
F8
70
ENDCHAR
STARTCHAR 002F
ENCODING 47
SWIDTH 600 0
DWIDTH 16 0
BBX 14 25 1 -3
BITMAP
0008
001C
0018
0038
0030
0070
0060
00E0
00C0
01C0
0180
0380
0300
0700
0600
0E00
0E00
1C00
1C00
3800
3800
7000
7000
E000
2000
ENDCHAR
STARTCHAR 0030
ENCODING 48
SWIDTH 600 0
DWIDTH 16 0
BBX 12 19 2 0
BITMAP
0F80
3FC0
78E0
70E0
60F0
E1F0
E1B0
E330
E330
E630
E630
EC30
EC30
F870
7870
7060
78E0
3FC0
0F80
ENDCHAR
STARTCHAR 0031
ENCODING 49
SWIDTH 600 0
DWIDTH 16 0
BBX 12 19 2 0
BITMAP
0700
0F00
3F00
FB00
6300
0300
0300
0300
0300
0300
0300
0300
0300
0300
0300
0300
0300
7FF0
7FF0
ENDCHAR
STARTCHAR 0032
ENCODING 50
SWIDTH 600 0
DWIDTH 16 0
BBX 12 19 2 0
BITMAP
1F00
7FC0
E1C0
C0E0
00E0
00E0
00E0
00E0
00C0
01C0
0380
0700
0E00
1C00
3800
7000
E000
FFF0
FFE0
ENDCHAR
STARTCHAR 0033
ENCODING 51
SWIDTH 600 0
DWIDTH 16 0
BBX 13 19 1 0
BITMAP
0F80
3FE0
70F0
2070
0030
0030
0070
00E0
07C0
07E0
0070
0038
0038
0038
0038
4070
F0F0
7FE0
1F80
ENDCHAR
STARTCHAR 0034
ENCODING 52
SWIDTH 600 0
DWIDTH 16 0
BBX 13 20 2 0
BITMAP
0400
0700
0E00
0E00
0C00
1C00
1800
3800
38C0
70C0
70C0
60C0
E0C0
FFF8
FFF8
00C0
00C0
00C0
00C0
00C0
ENDCHAR
STARTCHAR 0035
ENCODING 53
SWIDTH 600 0
DWIDTH 16 0
BBX 12 19 2 0
BITMAP
7FE0
7FE0
7000
7000
7000
7000
7000
7F80
7FE0
70E0
0070
0070
0070
0070
0070
4070
F1E0
7FC0
1F00
ENDCHAR
STARTCHAR 0036
ENCODING 54
SWIDTH 600 0
DWIDTH 16 0
BBX 12 19 2 0
BITMAP
07C0
1FE0
3C40
7000
7000
6000
E780
EFE0
F8F0
F070
E030
E030
E030
E030
6070
7070
78E0
3FC0
0F80
ENDCHAR
STARTCHAR 0037
ENCODING 55
SWIDTH 600 0
DWIDTH 16 0
BBX 11 19 3 0
BITMAP
FFE0
FFE0
00E0
00C0
01C0
0180
0380
0380
0700
0700
0600
0E00
0C00
1C00
1C00
3800
3800
3000
7000
ENDCHAR
STARTCHAR 0038
ENCODING 56
SWIDTH 600 0
DWIDTH 16 0
BBX 13 19 2 0
BITMAP
0F80
3FE0
70E0
6070
E070
E070
6070
78E0
3FC0
1FC0
71E0
E070
E038
C038
C038
E070
F0F0
7FE0
1F80
ENDCHAR
STARTCHAR 0039
ENCODING 57
SWIDTH 600 0
DWIDTH 16 0
BBX 12 21 2 -2
BITMAP
1F80
3FC0
70E0
E060
E070
C070
C070
C070
E070
E070
71F0
7FF0
1E70
0060
00E0
01E0
03C0
0F80
7E00
3800
2000
ENDCHAR
STARTCHAR 003A
ENCODING 58
SWIDTH 600 0
DWIDTH 16 0
BBX 5 15 6 0
BITMAP
70
F0
F8
F0
70
00
00
00
00
00
70
F0
F8
F0
70
ENDCHAR
STARTCHAR 003B
ENCODING 59
SWIDTH 600 0
DWIDTH 16 0
BBX 5 20 6 -5
BITMAP
70
F0
F8
F0
70
00
00
00
00
00
70
F0
F8
F0
70
70
E0
E0
C0
C0
ENDCHAR
STARTCHAR 003C
ENCODING 60
SWIDTH 600 0
DWIDTH 16 0
BBX 12 15 2 1
BITMAP
0020
00F0
03E0
0780
1E00
7C00
F000
E000
F000
3C00
1F00
0780
03E0
00F0
0020
ENDCHAR
STARTCHAR 003D
ENCODING 61
SWIDTH 600 0
DWIDTH 16 0
BBX 11 7 3 5
BITMAP
FFE0
FFE0
0000
0000
0000
FFE0
FFE0
ENDCHAR
STARTCHAR 003E
ENCODING 62
SWIDTH 600 0
DWIDTH 16 0
BBX 12 15 2 1
BITMAP
6000
F800
3C00
1F00
0780
01E0
00F0
0030
00F0
03E0
0780
1F00
3C00
F000
6000
ENDCHAR
STARTCHAR 003F
ENCODING 63
SWIDTH 600 0
DWIDTH 16 0
BBX 12 19 2 0
BITMAP
1F80
3FE0
F0E0
6070
0070
0070
00E0
03C0
0780
0600
0E00
0E00
0000
0000
0000
0E00
0F00
0E00
0E00
ENDCHAR
STARTCHAR 0040
ENCODING 64
SWIDTH 600 0
DWIDTH 16 0
BBX 16 22 0 -3
BITMAP
07E0
3FF8
783C
E00E
400E
0006
0007
0F87
3FC7
38C7
70C3
70C3
60C3
60C3
60C3
60C7
60C7
71C7
71C7
3F66
1E7E
003C
ENDCHAR
STARTCHAR 0041
ENCODING 65
SWIDTH 600 0
DWIDTH 16 0
BBX 16 19 0 0
BITMAP
03C0
03C0
03E0
0760
0660
0670
0E70
0E30
0C38
1C38
1C18
181C
3FFC
3FFC
300E
300E
700E
7007
E007
ENDCHAR
STARTCHAR 0042
ENCODING 66
SWIDTH 600 0
DWIDTH 16 0
BBX 13 19 2 0
BITMAP
FF80
FFE0
E0F0
E070
E070
E070
E070
E0E0
FFC0
FFC0
E0F0
E038
E038
E038
E038
E038
E0F0
FFE0
FF80
ENDCHAR
STARTCHAR 0043
ENCODING 67
SWIDTH 600 0
DWIDTH 16 0
BBX 14 19 2 0
BITMAP
07E0
1FF8
3C38
7010
7000
E000
E000
E000
C000
C000
C000
E000
E000
E000
7000
7008
3C38
1FFC
07E0
ENDCHAR
STARTCHAR 0044
ENCODING 68
SWIDTH 600 0
DWIDTH 16 0
BBX 13 19 2 0
BITMAP
FF00
FFC0
E1E0
E070
E070
E038
E038
E038
E038
E038
E038
E038
E038
E038
E070
E070
E1E0
FFC0
FF00
ENDCHAR
STARTCHAR 0045
ENCODING 69
SWIDTH 600 0
DWIDTH 16 0
BBX 11 19 3 0
BITMAP
FFE0
FFE0
E000
E000
E000
E000
E000
E000
FFC0
FFC0
E000
E000
E000
E000
E000
E000
E000
FFE0
FFE0
ENDCHAR
STARTCHAR 0046
ENCODING 70
SWIDTH 600 0
DWIDTH 16 0
BBX 11 19 4 0
BITMAP
FFE0
FFE0
C000
C000
C000
C000
C000
C000
C000
FFC0
FFC0
C000
C000
C000
C000
C000
C000
C000
C000
ENDCHAR
STARTCHAR 0047
ENCODING 71
SWIDTH 600 0
DWIDTH 16 0
BBX 14 19 1 0
BITMAP
07E0
0FF8
3C3C
3808
7000
7000
E000
E000
E1FC
E0FC
E01C
E01C
E01C
601C
701C
781C
3C3C
1FFC
07E0
ENDCHAR
STARTCHAR 0048
ENCODING 72
SWIDTH 600 0
DWIDTH 16 0
BBX 12 19 2 0
BITMAP
E030
E030
E030
E030
E030
E030
E030
E030
FFF0
FFF0
E030
E030
E030
E030
E030
E030
E030
E030
E030
ENDCHAR
STARTCHAR 0049
ENCODING 73
SWIDTH 600 0
DWIDTH 16 0
BBX 11 19 3 0
BITMAP
FFE0
FFE0
0E00
0E00
0E00
0E00
0E00
0E00
0E00
0E00
0E00
0E00
0E00
0E00
0E00
0E00
0E00
FFE0
FFE0
ENDCHAR
STARTCHAR 004A
ENCODING 74
SWIDTH 600 0
DWIDTH 16 0
BBX 12 19 2 0
BITMAP
1FF0
1FF0
0070
0070
0070
0070
0070
0070
0070
0070
0070
0070
0070
0070
0060
00E0
E1E0
FFC0
3F00
ENDCHAR
STARTCHAR 004B
ENCODING 75
SWIDTH 600 0
DWIDTH 16 0
BBX 13 19 3 0
BITMAP
C078
C0E0
C0E0
C1C0
C380
C700
CE00
CE00
DC00
DC00
CE00
CF00
C700
C380
C1C0
C1E0
C0E0
C070
C078
ENDCHAR
STARTCHAR 004C
ENCODING 76
SWIDTH 600 0
DWIDTH 16 0
BBX 11 19 4 0
BITMAP
C000
C000
C000
C000
C000
C000
C000
C000
C000
C000
C000
C000
C000
C000
C000
C000
C000
FFE0
FFE0
ENDCHAR
STARTCHAR 004D
ENCODING 77
SWIDTH 600 0
DWIDTH 16 0
BBX 15 19 1 0
BITMAP
703C
783C
787C
787C
787C
7C7C
EC7C
ECDC
ECCC
EECC
E6CC
E68C
E78C
E78C
C38C
C38C
C00E
C00E
C00E
ENDCHAR
STARTCHAR 004E
ENCODING 78
SWIDTH 600 0
DWIDTH 16 0
BBX 12 19 2 0
BITMAP
F030
F030
F830
D830
DC30
DC30
CC30
EE30
EE30
E630
E730
E330
E3B0
E3B0
E1B0
E1F0
E0F0
E0F0
E0F0
ENDCHAR
STARTCHAR 004F
ENCODING 79
SWIDTH 600 0
DWIDTH 16 0
BBX 14 19 1 0
BITMAP
07C0
1FE0
3C70
7038
7018
601C
E01C
E01C
E01C
E01C
E01C
E01C
E01C
601C
7018
7038
3C70
1FE0
07C0
ENDCHAR
STARTCHAR 0050
ENCODING 80
SWIDTH 600 0
DWIDTH 16 0
BBX 12 19 3 0
BITMAP
FF00
FFC0
E1E0
E070
E070
E070
E070
E070
E070
E1E0
FFC0
FF00
E000
E000
E000
E000
E000
E000
E000
ENDCHAR
STARTCHAR 0051
ENCODING 81
SWIDTH 600 0
DWIDTH 16 0
BBX 15 24 1 -5
BITMAP
07C0
1FE0
3C70
7038
7018
601C
E01C
E01C
E01C
E01C
E01C
E01C
E01C
601C
7018
7038
3C70
1FE0
0FF0
003C
001C
000E
000E
0008
ENDCHAR
STARTCHAR 0052
ENCODING 82
SWIDTH 600 0
DWIDTH 16 0
BBX 12 19 3 0
BITMAP
FF00
FFC0
C1E0
C0F0
C070
C070
C070
C0E0
C1E0
FFC0
FF00
C700
C380
C380
C1C0
C1E0
C0E0
C070
C070
ENDCHAR
STARTCHAR 0053
ENCODING 83
SWIDTH 600 0
DWIDTH 16 0
BBX 14 19 1 0
BITMAP
0FC0
3FF0
3878
7010
7000
7000
7800
3E00
1FC0
07F0
00F8
0038
001C
001C
001C
4038
F078
7FF0
1FC0
ENDCHAR
STARTCHAR 0054
ENCODING 84
SWIDTH 600 0
DWIDTH 16 0
BBX 14 19 1 0
BITMAP
FFFC
FFFC
0380
0380
0380
0380
0380
0380
0380
0380
0380
0380
0380
0380
0380
0380
0380
0380
0380
ENDCHAR
STARTCHAR 0055
ENCODING 85
SWIDTH 600 0
DWIDTH 16 0
BBX 13 19 2 0
BITMAP
E038
E038
E038
E038
E038
E038
E038
E038
E038
E038
E038
E038
E038
E038
E030
E070
70E0
3FE0
1F80
ENDCHAR
STARTCHAR 0056
ENCODING 86
SWIDTH 600 0
DWIDTH 16 0
BBX 15 19 1 0
BITMAP
E00E
E00C
E01C
701C
7018
7038
3038
3830
3830
1870
1C60
1C60
0CE0
0EC0
0EC0
07C0
07C0
0780
0380
ENDCHAR
STARTCHAR 0057
ENCODING 87
SWIDTH 600 0
DWIDTH 16 0
BBX 16 19 0 0
BITMAP
E003
E003
E1C3
63C7
63C7
63C7
63C6
7366
7366
7266
7666
366E
366E
366C
363C
363C
3C3C
3C3C
1C3C
ENDCHAR
STARTCHAR 0058
ENCODING 88
SWIDTH 600 0
DWIDTH 16 0
BBX 15 19 1 0
BITMAP
F01C
7038
3838
3870
1C60
1CE0
0EC0
07C0
0780
0780
07C0
0EC0
1CE0
1C70
3870
3838
7038
601C
E01E
ENDCHAR
STARTCHAR 0059
ENCODING 89
SWIDTH 600 0
DWIDTH 16 0
BBX 16 19 0 0
BITMAP
F007
700E
380E
381C
1C1C
1C38
0E30
0670
0760
03E0
03C0
01C0
01C0
01C0
01C0
01C0
01C0
01C0
01C0
ENDCHAR
STARTCHAR 005A
ENCODING 90
SWIDTH 600 0
DWIDTH 16 0
BBX 13 19 2 0
BITMAP
7FF8
7FF8
0070
0070
00E0
01C0
01C0
0380
0700
0700
0E00
1C00
1C00
3800
7000
7000
E000
FFF8
FFF0
ENDCHAR
STARTCHAR 005B
ENCODING 91
SWIDTH 600 0
DWIDTH 16 0
BBX 7 26 5 -3
BITMAP
FE
FE
C0
C0
C0
C0
C0
C0
C0
C0
C0
C0
C0
C0
C0
C0
C0
C0
C0
C0
C0
C0
C0
C0
FE
FE
ENDCHAR
STARTCHAR 005C
ENCODING 92
SWIDTH 600 0
DWIDTH 16 0
BBX 14 25 1 -3
BITMAP
E000
6000
7000
3000
3800
1800
1C00
0C00
0E00
0600
0700
0700
0380
0380
01C0
01C0
00E0
00E0
0060
0070
0030
0038
0018
001C
0008
ENDCHAR
STARTCHAR 005D
ENCODING 93
SWIDTH 600 0
DWIDTH 16 0
BBX 8 26 4 -3
BITMAP
FF
FF
07
07
07
07
07
07
07
07
07
07
07
07
07
07
07
07
07
07
07
07
07
07
FF
FF
ENDCHAR
STARTCHAR 005E
ENCODING 94
SWIDTH 600 0
DWIDTH 16 0
BBX 13 9 2 15
BITMAP
0600
0F00
0F80
1D80
19C0
38C0
70E0
6070
E078
ENDCHAR
STARTCHAR 005F
ENCODING 95
SWIDTH 600 0
DWIDTH 16 0
BBX 14 2 1 -5
BITMAP
FFFC
FFFC
ENDCHAR
STARTCHAR 0060
ENCODING 96
SWIDTH 600 0
DWIDTH 16 0
BBX 6 5 5 17
BITMAP
40
60
F8
3C
04
ENDCHAR
STARTCHAR 0061
ENCODING 97
SWIDTH 600 0
DWIDTH 16 0
BBX 12 15 2 0
BITMAP
3F80
7FC0
61E0
00E0
0060
0060
1FE0
7FE0
F060
E060
E060
E0E0
F1F0
7F70
3E30
ENDCHAR
STARTCHAR 0062
ENCODING 98
SWIDTH 600 0
DWIDTH 16 0
BBX 12 21 3 0
BITMAP
C000
C000
C000
C000
C000
C000
CF80
DFC0
F1E0
E0E0
C0E0
C070
C070
C070
C070
C070
C0E0
E0E0
F1C0
FFC0
CF00
ENDCHAR
STARTCHAR 0063
ENCODING 99
SWIDTH 600 0
DWIDTH 16 0
BBX 12 15 2 0
BITMAP
07C0
1FF0
3C70
7000
7000
6000
E000
E000
E000
6000
7000
7000
3C70
1FF0
0FC0
ENDCHAR
STARTCHAR 0064
ENCODING 100
SWIDTH 600 0
DWIDTH 16 0
BBX 12 21 2 0
BITMAP
0070
0070
0070
0070
0070
0070
1F70
3FF0
79F0
E070
E070
E070
E070
E070
E070
E070
E070
E070
71F0
7FF0
1E70
ENDCHAR
STARTCHAR 0065
ENCODING 101
SWIDTH 600 0
DWIDTH 16 0
BBX 12 15 2 0
BITMAP
0F80
3FC0
78E0
7070
E030
E030
FFF0
FFF0
E000
E000
E000
7000
7860
3FF0
0FC0
ENDCHAR
STARTCHAR 0066
ENCODING 102
SWIDTH 600 0
DWIDTH 16 0
BBX 13 21 2 0
BITMAP
01F0
07F8
0F08
0E00
0C00
0C00
0C00
FFE0
FFE0
0C00
0C00
0C00
0C00
0C00
0C00
0C00
0C00
0C00
0C00
0C00
0C00
ENDCHAR
STARTCHAR 0067
ENCODING 103
SWIDTH 600 0
DWIDTH 16 0
BBX 13 22 2 -6
BITMAP
0038
1FF8
3FF0
70C0
E060
E070
E070
E060
70E0
3FC0
3F80
7000
6000
7000
7FE0
3FF0
0078
0038
C038
E070
7FF0
3FC0
ENDCHAR
STARTCHAR 0068
ENCODING 104
SWIDTH 600 0
DWIDTH 16 0
BBX 11 21 3 0
BITMAP
C000
C000
C000
C000
C000
C000
C780
DFC0
F1E0
E0E0
C0E0
C0E0
C0E0
C0E0
C0E0
C0E0
C0E0
C0E0
C0E0
C0E0
C0E0
ENDCHAR
STARTCHAR 0069
ENCODING 105
SWIDTH 600 0
DWIDTH 16 0
BBX 11 22 3 0
BITMAP
0C00
1E00
1E00
0C00
0000
0000
0000
FE00
FE00
0600
0600
0600
0600
0600
0600
0600
0600
0600
0600
0600
FFE0
FFE0
ENDCHAR
STARTCHAR 006A
ENCODING 106
SWIDTH 600 0
DWIDTH 16 0
BBX 10 28 2 -6
BITMAP
0180
03C0
03C0
0180
0000
0000
0000
3FC0
3FC0
00C0
00C0
00C0
00C0
00C0
00C0
00C0
00C0
00C0
00C0
00C0
00C0
01C0
01C0
0380
0F00
FE00
7800
4000
ENDCHAR
STARTCHAR 006B
ENCODING 107
SWIDTH 600 0
DWIDTH 16 0
BBX 13 21 3 0
BITMAP
C000
C000
C000
C000
C000
C000
C0F0
C1E0
C3C0
C380
C700
CE00
DC00
DC00
CE00
C700
C380
C3C0
C1E0
C0E0
C078
ENDCHAR
STARTCHAR 006C
ENCODING 108
SWIDTH 600 0
DWIDTH 16 0
BBX 12 21 2 0
BITMAP
FE00
FE00
0E00
0E00
0E00
0E00
0E00
0E00
0E00
0E00
0E00
0E00
0E00
0E00
0E00
0E00
0E00
0E00
0E10
07F0
03E0
ENDCHAR
STARTCHAR 006D
ENCODING 109
SWIDTH 600 0
DWIDTH 16 0
BBX 14 15 1 0
BITMAP
CE38
DFFC
F3DC
E38C
E30C
E30C
E30C
E30C
E30C
E30C
E30C
E30C
E30C
E30C
E30C
ENDCHAR
STARTCHAR 006E
ENCODING 110
SWIDTH 600 0
DWIDTH 16 0
BBX 11 15 3 0
BITMAP
C780
DFC0
F1E0
E0E0
C0E0
C0E0
C0E0
C0E0
C0E0
C0E0
C0E0
C0E0
C0E0
C0E0
C0E0
ENDCHAR
STARTCHAR 006F
ENCODING 111
SWIDTH 600 0
DWIDTH 16 0
BBX 13 15 2 0
BITMAP
0F80
3FC0
78E0
7070
E070
E030
E030
E038
E038
E030
E070
7070
78E0
3FC0
1F80
ENDCHAR
STARTCHAR 0070
ENCODING 112
SWIDTH 600 0
DWIDTH 16 0
BBX 12 21 3 -6
BITMAP
CF80
DFC0
F1E0
E0E0
C0E0
C060
C070
C070
C070
C060
C0E0
C0E0
F1C0
FFC0
CF00
C000
C000
C000
C000
C000
8000
ENDCHAR
STARTCHAR 0071
ENCODING 113
SWIDTH 600 0
DWIDTH 16 0
BBX 12 21 2 -6
BITMAP
1F70
3FF0
78F0
6070
E070
E070
E070
E070
E070
E070
E070
E070
71F0
7FF0
1E70
0070
0070
0070
0070
0070
0010
ENDCHAR
STARTCHAR 0072
ENCODING 114
SWIDTH 600 0
DWIDTH 16 0
BBX 12 15 3 0
BITMAP
F1F0
F3F0
3760
3C60
3C60
3800
3800
3800
3800
3800
3800
3800
3800
FE00
FE00
ENDCHAR
STARTCHAR 0073
ENCODING 115
SWIDTH 600 0
DWIDTH 16 0
BBX 12 15 2 0
BITMAP
1F80
3FF0
7860
6020
7000
7800
3F00
1FC0
01E0
0070
0070
4070
F0E0
7FE0
1F80
ENDCHAR
STARTCHAR 0074
ENCODING 116
SWIDTH 600 0
DWIDTH 16 0
BBX 12 19 2 0
BITMAP
0400
1C00
1C00
1C00
FFE0
FFE0
1C00
1C00
1C00
1C00
1C00
1C00
1C00
1C00
1C00
1C00
0E10
0FF0
03E0
ENDCHAR
STARTCHAR 0075
ENCODING 117
SWIDTH 600 0
DWIDTH 16 0
BBX 11 15 3 0
BITMAP
C0E0
C0E0
C0E0
C0E0
C0E0
C0E0
C0E0
C0E0
C0E0
C0E0
C0E0
C0E0
E3E0
FFE0
7CE0
ENDCHAR
STARTCHAR 0076
ENCODING 118
SWIDTH 600 0
DWIDTH 16 0
BBX 13 15 2 0
BITMAP
C038
E030
E070
6070
7060
70E0
30E0
38C0
38C0
19C0
1D80
1D80
0F80
0F00
0F00
ENDCHAR
STARTCHAR 0077
ENCODING 119
SWIDTH 600 0
DWIDTH 16 0
BBX 16 15 0 0
BITMAP
E007
6007
61C7
61C6
73C6
73C6
3366
3366
336E
366C
366C
366C
1E3C
1E3C
1C3C
ENDCHAR
STARTCHAR 0078
ENCODING 120
SWIDTH 600 0
DWIDTH 16 0
BBX 14 15 1 0
BITMAP
7038
3830
1C70
1CE0
0EC0
07C0
0780
0780
07C0
0EC0
1CE0
1870
3870
7038
F01C
ENDCHAR
STARTCHAR 0079
ENCODING 121
SWIDTH 600 0
DWIDTH 16 0
BBX 13 21 2 -6
BITMAP
C038
E030
E070
6070
7060
7060
30E0
38C0
38C0
19C0
1D80
1D80
0F80
0F00
0F00
0700
0600
0E00
3C00
7800
6000
ENDCHAR
STARTCHAR 007A
ENCODING 122
SWIDTH 600 0
DWIDTH 16 0
BBX 11 15 3 0
BITMAP
FFE0
FFE0
01C0
01C0
0380
0700
0E00
0E00
1C00
3800
3800
7000
E000
FFE0
FFE0
ENDCHAR
STARTCHAR 007B
ENCODING 123
SWIDTH 600 0
DWIDTH 16 0
BBX 9 27 3 -4
BITMAP
0380
0780
0E00
0C00
0C00
0C00
0C00
0C00
0E00
0E00
0E00
0E00
1C00
F800
F800
1C00
0E00
0E00
0E00
0C00
0C00
0C00
0C00
0C00
0E00
0F80
0380
ENDCHAR
STARTCHAR 007C
ENCODING 124
SWIDTH 600 0
DWIDTH 16 0
BBX 2 26 7 -3
BITMAP
C0
C0
C0
C0
C0
C0
C0
C0
C0
C0
C0
C0
C0
C0
C0
C0
C0
C0
C0
C0
C0
C0
C0
C0
C0
C0
ENDCHAR
STARTCHAR 007D
ENCODING 125
SWIDTH 600 0
DWIDTH 16 0
BBX 9 27 4 -4
BITMAP
E000
F800
3C00
1C00
1C00
1C00
1C00
1800
1800
1800
1800
1800
1E00
0F80
0F80
1C00
1800
1800
1800
1800
1800
1C00
1C00
1C00
3C00
F800
E000
ENDCHAR
STARTCHAR 007E
ENCODING 126
SWIDTH 600 0
DWIDTH 16 0
BBX 14 5 1 6
BITMAP
1C08
7F0C
639C
E1F8
40F0
ENDCHAR
STARTCHAR 00A0
ENCODING 160
SWIDTH 600 0
DWIDTH 16 0
BBX 0 0 0 0
BITMAP
ENDCHAR
STARTCHAR 00A1
ENCODING 161
SWIDTH 600 0
DWIDTH 16 0
BBX 4 19 6 -6
BITMAP
60
F0
F0
60
00
00
60
60
60
60
60
60
60
70
70
70
70
70
70
ENDCHAR
STARTCHAR 00A2
ENCODING 162
SWIDTH 600 0
DWIDTH 16 0
BBX 11 23 3 -4
BITMAP
0600
0600
0600
0600
0F80
3FE0
78C0
6000
E000
E000
E000
E000
E000
E000
E000
E000
70C0
3FE0
1F80
0600
0600
0600
0600
ENDCHAR
STARTCHAR 00A3
ENCODING 163
SWIDTH 600 0
DWIDTH 16 0
BBX 13 19 2 0
BITMAP
07C0
1FF0
1C78
3820
3800
3800
3800
3800
FFC0
FFC0
3800
3800
3800
3800
3800
3000
7000
FFF0
FFF0
ENDCHAR
STARTCHAR 00A4
ENCODING 164
SWIDTH 600 0
DWIDTH 16 0
BBX 14 16 1 1
BITMAP
4008
C00C
E7DC
7FF8
3C70
3838
3038
7018
7018
3038
3038
3C70
7FF8
E7DC
E00C
4008
ENDCHAR
STARTCHAR 00A5
ENCODING 165
SWIDTH 600 0
DWIDTH 16 0
BBX 14 19 1 0
BITMAP
E01C
701C
7038
3830
1870
1C60
0CE0
0EC0
07C0
3FF0
3FF0
0380
0380
3FF0
3FF0
0380
0380
0380
0380
ENDCHAR
STARTCHAR 00A6
ENCODING 166
SWIDTH 600 0
DWIDTH 16 0
BBX 2 25 7 -3
BITMAP
C0
C0
C0
C0
C0
C0
C0
C0
C0
C0
00
00
00
00
00
C0
C0
C0
C0
C0
C0
C0
C0
C0
C0
ENDCHAR
STARTCHAR 00A7
ENCODING 167
SWIDTH 600 0
DWIDTH 16 0
BBX 11 21 3 -2
BITMAP
1F00
7FC0
70C0
E000
E000
7000
7C00
7F80
E7C0
C1C0
C0E0
E0E0
F8C0
7F80
1F80
03C0
01C0
01C0
41C0
FF80
7F00
ENDCHAR
STARTCHAR 00A8
ENCODING 168
SWIDTH 600 0
DWIDTH 16 0
BBX 9 3 4 18
BITMAP
C300
E780
E300
ENDCHAR
STARTCHAR 00A9
ENCODING 169
SWIDTH 600 0
DWIDTH 16 0
BBX 15 18 1 3
BITMAP
0FC0
1FF0
3878
6018
67CC
CFEC
DC44
9806
9806
9806
9806
D804
DC4C
6FEC
6798
3878
1FF0
0FC0
ENDCHAR
STARTCHAR 00AA
ENCODING 170
SWIDTH 600 0
DWIDTH 16 0
BBX 11 20 3 1
BITMAP
7F00
7F80
0180
01C0
1FC0
7FC0
E1C0
C1C0
C1C0
E3C0
FEC0
3CC0
0000
0000
0000
0000
0000
0000
FFE0
FFE0
ENDCHAR
STARTCHAR 00AB
ENCODING 171
SWIDTH 600 0
DWIDTH 16 0
BBX 12 14 2 1
BITMAP
0820
0C30
1C70
38E0
71C0
73C0
E380
E380
73C0
71C0
38E0
1C70
0C30
0820
ENDCHAR
STARTCHAR 00AC
ENCODING 172
SWIDTH 600 0
DWIDTH 16 0
BBX 10 6 3 4
BITMAP
FFC0
FFC0
00C0
00C0
00C0
00C0
ENDCHAR
STARTCHAR 00AD
ENCODING 173
SWIDTH 600 0
DWIDTH 16 0
BBX 9 2 4 8
BITMAP
FF80
FF80
ENDCHAR
STARTCHAR 00AE
ENCODING 174
SWIDTH 600 0
DWIDTH 16 0
BBX 14 14 1 7
BITMAP
07C0
1870
3018
6F88
4CCC
CC4C
CCC4
CF84
CD84
4CCC
6CE8
2018
1870
0FC0
ENDCHAR
STARTCHAR 00AF
ENCODING 175
SWIDTH 600 0
DWIDTH 16 0
BBX 8 2 4 19
BITMAP
FF
FF
ENDCHAR
STARTCHAR 00B0
ENCODING 176
SWIDTH 600 0
DWIDTH 16 0
BBX 9 9 2 12
BITMAP
3C00
7F00
E300
C380
C180
C380
E300
7F00
3C00
ENDCHAR
STARTCHAR 00B1
ENCODING 177
SWIDTH 600 0
DWIDTH 16 0
BBX 10 15 3 0
BITMAP
0C00
0C00
0C00
0C00
FFC0
FFC0
0C00
0C00
0C00
0C00
0000
0000
0000
FFC0
FFC0
ENDCHAR
STARTCHAR 00B2
ENCODING 178
SWIDTH 600 0
DWIDTH 16 0
BBX 8 9 4 9
BITMAP
3E
7F
C7
03
06
1C
70
FF
FF
ENDCHAR
STARTCHAR 00B3
ENCODING 179
SWIDTH 600 0
DWIDTH 16 0
BBX 8 9 4 9
BITMAP
3E
FF
47
03
1C
03
43
FF
3E
ENDCHAR
STARTCHAR 00B4
ENCODING 180
SWIDTH 600 0
DWIDTH 16 0
BBX 7 5 5 17
BITMAP
04
1C
7E
E0
80
ENDCHAR
STARTCHAR 00B5
ENCODING 181
SWIDTH 600 0
DWIDTH 16 0
BBX 12 21 2 -6
BITMAP
E060
E060
E060
E060
E060
E060
E060
E060
E060
E060
E060
E0E0
F1F0
FFF0
FE70
E000
E000
E000
E000
E000
8000
ENDCHAR
STARTCHAR 00B6
ENCODING 182
SWIDTH 600 0
DWIDTH 16 0
BBX 14 25 1 -6
BITMAP
0FFC
3FFC
7F8C
FF8C
FF8C
FF8C
FF8C
FF8C
7F8C
3F8C
1F8C
018C
018C
018C
018C
018C
018C
018C
018C
018C
018C
018C
018C
018C
018C
ENDCHAR
STARTCHAR 00B7
ENCODING 183
SWIDTH 600 0
DWIDTH 16 0
BBX 5 5 6 7
BITMAP
70
F8
F8
F8
70
ENDCHAR
STARTCHAR 00B8
ENCODING 184
SWIDTH 600 0
DWIDTH 16 0
BBX 6 7 5 -7
BITMAP
30
30
3C
0C
0C
FC
78
ENDCHAR
STARTCHAR 00B9
ENCODING 185
SWIDTH 600 0
DWIDTH 16 0
BBX 6 9 5 9
BITMAP
1C
3C
FC
4C
0C
0C
0C
0C
0C
ENDCHAR
STARTCHAR 00BA
ENCODING 186
SWIDTH 600 0
DWIDTH 16 0
BBX 11 20 3 1
BITMAP
1F00
7F80
E1C0
C0C0
C0E0
C0E0
C0E0
C0E0
C0C0
E1C0
7F80
1F00
0000
0000
0000
0000
0000
0000
FFE0
FFE0
ENDCHAR
STARTCHAR 00BB
ENCODING 187
SWIDTH 600 0
DWIDTH 16 0
BBX 12 14 2 1
BITMAP
4100
E300
6180
31C0
38E0
1C70
1C70
1C70
1C70
38E0
71C0
6180
E300
4100
ENDCHAR
STARTCHAR 00BC
ENCODING 188
SWIDTH 600 0
DWIDTH 16 0
BBX 17 19 0 0
BITMAP
1C0000
7C0000
FC0000
5C0000
1C0000
1C0200
1C0700
1C1E00
1CF800
03C000
0F1C00
3C1800
F03000
403600
006600
006600
00FF80
00FF80
000600
ENDCHAR
STARTCHAR 00BD
ENCODING 189
SWIDTH 600 0
DWIDTH 16 0
BBX 17 19 0 0
BITMAP
1C0000
7C0000
FC0000
5C0000
1C0000
1C0200
1C0700
1C1E00
1C7800
01E000
07BE00
1E7F00
F86300
400300
000700
000C00
003800
007F80
007F00
ENDCHAR
STARTCHAR 00BE
ENCODING 190
SWIDTH 600 0
DWIDTH 16 0
BBX 17 19 0 0
BITMAP
3E0000
FF0000
470000
030000
1C0000
030000
430700
FF1C00
7E7000
03C000
0F1C00
3C1800
703000
403600
006600
006600
00FF80
00FF80
000600
ENDCHAR
STARTCHAR 00BF
ENCODING 191
SWIDTH 600 0
DWIDTH 16 0
BBX 11 20 3 -6
BITMAP
0600
0F00
0F00
0600
0000
0000
0000
0600
0600
0E00
1E00
3C00
7800
E000
E000
C000
E040
F1E0
7FC0
1F00
ENDCHAR
STARTCHAR 00C0
ENCODING 192
SWIDTH 600 0
DWIDTH 16 0
BBX 16 25 0 0
BITMAP
0200
0780
03E0
00E0
0000
0000
03C0
03C0
03E0
0760
0660
0670
0E70
0E30
0C38
1C38
1C18
181C
3FFC
3FFC
300E
300E
700E
7007
E007
ENDCHAR
STARTCHAR 00C1
ENCODING 193
SWIDTH 600 0
DWIDTH 16 0
BBX 16 25 0 0
BITMAP
0020
00E0
03F0
0700
0000
0000
03C0
03C0
03E0
0760
0660
0670
0E70
0E30
0C38
1C38
1C18
181C
3FFC
3FFC
300E
300E
700E
7007
E007
ENDCHAR
STARTCHAR 00C2
ENCODING 194
SWIDTH 600 0
DWIDTH 16 0
BBX 16 25 0 0
BITMAP
01C0
03E0
0F70
0C38
0000
0000
03C0
03C0
03E0
0760
0660
0670
0E70
0E30
0C38
1C38
1C18
181C
3FFC
3FFC
300E
300E
700E
7007
E007
ENDCHAR
STARTCHAR 00C3
ENCODING 195
SWIDTH 600 0
DWIDTH 16 0
BBX 16 24 0 0
BITMAP
0798
0FF0
0CE0
0000
0000
03C0
03C0
03E0
0760
0660
0670
0E70
0E30
0C38
1C38
1C18
181C
3FFC
3FFC
300E
300E
700E
7007
E007
ENDCHAR
STARTCHAR 00C4
ENCODING 196
SWIDTH 600 0
DWIDTH 16 0
BBX 16 24 0 0
BITMAP
0C30
0E78
0E30
0000
0000
03C0
03C0
03E0
0760
0660
0670
0E70
0E30
0C38
1C38
1C18
181C
3FFC
3FFC
300E
300E
700E
7007
E007
ENDCHAR
STARTCHAR 00C5
ENCODING 197
SWIDTH 600 0
DWIDTH 16 0
BBX 16 26 0 0
BITMAP
03C0
0660
0620
0620
0660
03C0
0000
03C0
03C0
03E0
0760
0660
0670
0E70
0E30
0C38
1C38
1C18
181C
3FFC
3FFC
300E
300E
700E
7007
E007
ENDCHAR
STARTCHAR 00C6
ENCODING 198
SWIDTH 600 0
DWIDTH 16 0
BBX 17 19 0 0
BITMAP
07FE00
07FE00
0D8000
0D8000
0D8000
1DC000
1DC000
18C000
18FE00
38FE00
38E000
30E000
3FE000
7FE000
707000
607000
E07000
E03F80
E03F80
ENDCHAR
STARTCHAR 00C7
ENCODING 199
SWIDTH 600 0
DWIDTH 16 0
BBX 14 26 2 -7
BITMAP
07E0
1FF8
3C38
7010
7000
E000
E000
E000
C000
C000
C000
E000
E000
E000
7000
7008
3C38
1FFC
07E0
0300
0300
03C0
00E0
00E0
07C0
0F80
ENDCHAR
STARTCHAR 00C8
ENCODING 200
SWIDTH 600 0
DWIDTH 16 0
BBX 11 25 3 0
BITMAP
1800
1E00
1F00
0380
0000
0000
FFE0
FFE0
E000
E000
E000
E000
E000
E000
FFC0
FFC0
E000
E000
E000
E000
E000
E000
E000
FFE0
FFE0
ENDCHAR
STARTCHAR 00C9
ENCODING 201
SWIDTH 600 0
DWIDTH 16 0
BBX 11 25 3 0
BITMAP
0100
0780
3F00
1C00
0000
0000
FFE0
FFE0
E000
E000
E000
E000
E000
E000
FFC0
FFC0
E000
E000
E000
E000
E000
E000
E000
FFE0
FFE0
ENDCHAR
STARTCHAR 00CA
ENCODING 202
SWIDTH 600 0
DWIDTH 16 0
BBX 11 25 3 0
BITMAP
0E00
1F00
3BC0
70C0
0000
0000
FFE0
FFE0
E000
E000
E000
E000
E000
E000
FFC0
FFC0
E000
E000
E000
E000
E000
E000
E000
FFE0
FFE0
ENDCHAR
STARTCHAR 00CB
ENCODING 203
SWIDTH 600 0
DWIDTH 16 0
BBX 11 24 3 0
BITMAP
31C0
79C0
31C0
0000
0000
FFE0
FFE0
E000
E000
E000
E000
E000
E000
FFC0
FFC0
E000
E000
E000
E000
E000
E000
E000
FFE0
FFE0
ENDCHAR
STARTCHAR 00CC
ENCODING 204
SWIDTH 600 0
DWIDTH 16 0
BBX 11 25 3 0
BITMAP
1000
3C00
1F00
0700
0000
0000
FFE0
FFE0
0E00
0E00
0E00
0E00
0E00
0E00
0E00
0E00
0E00
0E00
0E00
0E00
0E00
0E00
0E00
FFE0
FFE0
ENDCHAR
STARTCHAR 00CD
ENCODING 205
SWIDTH 600 0
DWIDTH 16 0
BBX 11 25 3 0
BITMAP
0100
0700
1F80
3800
0000
0000
FFE0
FFE0
0E00
0E00
0E00
0E00
0E00
0E00
0E00
0E00
0E00
0E00
0E00
0E00
0E00
0E00
0E00
FFE0
FFE0
ENDCHAR
STARTCHAR 00CE
ENCODING 206
SWIDTH 600 0
DWIDTH 16 0
BBX 11 25 3 0
BITMAP
0E00
1F00
7B80
61C0
0000
0000
FFE0
FFE0
0E00
0E00
0E00
0E00
0E00
0E00
0E00
0E00
0E00
0E00
0E00
0E00
0E00
0E00
0E00
FFE0
FFE0
ENDCHAR
STARTCHAR 00CF
ENCODING 207
SWIDTH 600 0
DWIDTH 16 0
BBX 11 24 3 0
BITMAP
6180
73C0
7180
0000
0000
FFE0
FFE0
0E00
0E00
0E00
0E00
0E00
0E00
0E00
0E00
0E00
0E00
0E00
0E00
0E00
0E00
0E00
FFE0
FFE0
ENDCHAR
STARTCHAR 00D0
ENCODING 208
SWIDTH 600 0
DWIDTH 16 0
BBX 15 19 0 0
BITMAP
3FC0
3FF0
3878
381C
380E
380E
380E
3806
FF86
FF86
3806
380E
380E
380E
380E
381C
3878
3FF0
3FC0
ENDCHAR
STARTCHAR 00D1
ENCODING 209
SWIDTH 600 0
DWIDTH 16 0
BBX 12 24 2 0
BITMAP
1E60
3FC0
3380
0000
0000
F030
F030
F830
D830
DC30
DC30
CC30
EE30
EE30
E630
E730
E330
E3B0
E3B0
E1B0
E1F0
E0F0
E0F0
E0F0
ENDCHAR
STARTCHAR 00D2
ENCODING 210
SWIDTH 600 0
DWIDTH 16 0
BBX 14 25 1 0
BITMAP
0400
0F00
07C0
01C0
0000
0000
07C0
1FE0
3C70
7038
7018
601C
E01C
E01C
E01C
E01C
E01C
E01C
E01C
601C
7018
7038
3C70
1FE0
07C0
ENDCHAR
STARTCHAR 00D3
ENCODING 211
SWIDTH 600 0
DWIDTH 16 0
BBX 14 25 1 0
BITMAP
0040
01C0
07E0
0E00
0000
0000
07C0
1FE0
3C70
7038
7018
601C
E01C
E01C
E01C
E01C
E01C
E01C
E01C
601C
7018
7038
3C70
1FE0
07C0
ENDCHAR
STARTCHAR 00D4
ENCODING 212
SWIDTH 600 0
DWIDTH 16 0
BBX 14 25 1 0
BITMAP
0380
07C0
1EE0
1870
0000
0000
07C0
1FE0
3C70
7038
7018
601C
E01C
E01C
E01C
E01C
E01C
E01C
E01C
601C
7018
7038
3C70
1FE0
07C0
ENDCHAR
STARTCHAR 00D5
ENCODING 213
SWIDTH 600 0
DWIDTH 16 0
BBX 14 24 1 0
BITMAP
0F30
1FE0
19C0
0000
0000
07C0
1FE0
3C70
7038
7018
601C
E01C
E01C
E01C
E01C
E01C
E01C
E01C
601C
7018
7038
3C70
1FE0
07C0
ENDCHAR
STARTCHAR 00D6
ENCODING 214
SWIDTH 600 0
DWIDTH 16 0
BBX 14 24 1 0
BITMAP
1860
1CF0
1C60
0000
0000
07C0
1FE0
3C70
7038
7018
601C
E01C
E01C
E01C
E01C
E01C
E01C
E01C
601C
7018
7038
3C70
1FE0
07C0
ENDCHAR
STARTCHAR 00D7
ENCODING 215
SWIDTH 600 0
DWIDTH 16 0
BBX 10 10 3 3
BITMAP
6080
F1C0
3B80
1F00
0E00
1F00
3B80
F1C0
60C0
4080
ENDCHAR
STARTCHAR 00D8
ENCODING 216
SWIDTH 600 0
DWIDTH 16 0
BBX 14 25 1 -3
BITMAP
0020
0070
0060
07E0
1FE0
3CF0
70F8
70D8
609C
E19C
E19C
E11C
E31C
E31C
E31C
E61C
661C
7618
7438
3C70
1FE0
1FC0
1800
1800
2800
ENDCHAR
STARTCHAR 00D9
ENCODING 217
SWIDTH 600 0
DWIDTH 16 0
BBX 13 25 2 0
BITMAP
0800
1E00
0F80
0380
0000
0000
E038
E038
E038
E038
E038
E038
E038
E038
E038
E038
E038
E038
E038
E038
E030
E070
70E0
3FE0
1F80
ENDCHAR
STARTCHAR 00DA
ENCODING 218
SWIDTH 600 0
DWIDTH 16 0
BBX 13 25 2 0
BITMAP
0080
0380
0FC0
1C00
0000
0000
E038
E038
E038
E038
E038
E038
E038
E038
E038
E038
E038
E038
E038
E038
E030
E070
70E0
3FE0
1F80
ENDCHAR
STARTCHAR 00DB
ENCODING 219
SWIDTH 600 0
DWIDTH 16 0
BBX 13 25 2 0
BITMAP
0700
0F80
3DC0
30E0
0000
0000
E038
E038
E038
E038
E038
E038
E038
E038
E038
E038
E038
E038
E038
E038
E030
E070
70E0
3FE0
1F80
ENDCHAR
STARTCHAR 00DC
ENCODING 220
SWIDTH 600 0
DWIDTH 16 0
BBX 13 24 2 0
BITMAP
30C0
39E0
38C0
0000
0000
E038
E038
E038
E038
E038
E038
E038
E038
E038
E038
E038
E038
E038
E038
E030
E070
70E0
3FE0
1F80
ENDCHAR
STARTCHAR 00DD
ENCODING 221
SWIDTH 600 0
DWIDTH 16 0
BBX 16 25 0 0
BITMAP
0020
00E0
03F0
0700
0000
0000
F007
700E
380E
381C
1C1C
1C38
0E30
0670
0760
03E0
03C0
01C0
01C0
01C0
01C0
01C0
01C0
01C0
01C0
ENDCHAR
STARTCHAR 00DE
ENCODING 222
SWIDTH 600 0
DWIDTH 16 0
BBX 12 19 3 0
BITMAP
C000
C000
C000
FF00
FFC0
C1E0
C070
C070
C070
C070
C070
C070
C0E0
FFC0
FF80
C000
C000
C000
C000
ENDCHAR
STARTCHAR 00DF
ENCODING 223
SWIDTH 600 0
DWIDTH 16 0
BBX 13 21 2 0
BITMAP
1F80
3FC0
70E0
60E0
60E0
E0E0
E1C0
E380
E300
E700
E380
E3E0
E0F0
E078
E038
E018
E018
E038
E438
E7F0
E7E0
ENDCHAR
STARTCHAR 00E0
ENCODING 224
SWIDTH 600 0
DWIDTH 16 0
BBX 12 22 2 0
BITMAP
0800
1C00
1F00
0780
0180
0000
0000
3F80
7FC0
61E0
00E0
0060
0060
1FE0
7FE0
F060
E060
E060
E0E0
F1F0
7F70
3E30
ENDCHAR
STARTCHAR 00E1
ENCODING 225
SWIDTH 600 0
DWIDTH 16 0
BBX 12 22 2 0
BITMAP
0180
0380
0F80
1C00
1000
0000
0000
3F80
7FC0
61E0
00E0
0060
0060
1FE0
7FE0
F060
E060
E060
E0E0
F1F0
7F70
3E30
ENDCHAR
STARTCHAR 00E2
ENCODING 226
SWIDTH 600 0
DWIDTH 16 0
BBX 12 22 2 0
BITMAP
0600
1F80
3DC0
70E0
2040
0000
0000
3F80
7FC0
61E0
00E0
0060
0060
1FE0
7FE0
F060
E060
E060
E0E0
F1F0
7F70
3E30
ENDCHAR
STARTCHAR 00E3
ENCODING 227
SWIDTH 600 0
DWIDTH 16 0
BBX 12 21 2 0
BITMAP
1CE0
3FC0
6380
0000
0000
0000
3F80
7FC0
61E0
00E0
0060
0060
1FE0
7FE0
F060
E060
E060
E0E0
F1F0
7F70
3E30
ENDCHAR
STARTCHAR 00E4
ENCODING 228
SWIDTH 600 0
DWIDTH 16 0
BBX 12 21 2 0
BITMAP
30C0
79C0
30C0
0000
0000
0000
3F80
7FC0
61E0
00E0
0060
0060
1FE0
7FE0
F060
E060
E060
E0E0
F1F0
7F70
3E30
ENDCHAR
STARTCHAR 00E5
ENCODING 229
SWIDTH 600 0
DWIDTH 16 0
BBX 12 23 2 0
BITMAP
0F00
1980
1980
1980
1980
0F00
0000
0000
3F80
7FC0
61E0
00E0
0060
0060
1FE0
7FE0
F060
E060
E060
E0E0
F1F0
7F70
3E30
ENDCHAR
STARTCHAR 00E6
ENCODING 230
SWIDTH 600 0
DWIDTH 16 0
BBX 17 15 0 0
BITMAP
3E3C00
7F7E00
43E700
01C300
018300
018300
1FFF80
7FFF80
F18000
E18000
C1C000
E1C000
E3E200
7E7F00
3C3E00
ENDCHAR
STARTCHAR 00E7
ENCODING 231
SWIDTH 600 0
DWIDTH 16 0
BBX 12 22 2 -7
BITMAP
07C0
1FF0
3C70
7000
7000
6000
E000
E000
E000
6000
7000
7000
3C70
1FF0
0FC0
0300
0300
03C0
00C0
00C0
0FC0
0780
ENDCHAR
STARTCHAR 00E8
ENCODING 232
SWIDTH 600 0
DWIDTH 16 0
BBX 12 22 2 0
BITMAP
0800
0E00
1F00
03C0
0080
0000
0000
0F80
3FC0
78E0
7070
E030
E030
FFF0
FFF0
E000
E000
E000
7000
7860
3FF0
0FC0
ENDCHAR
STARTCHAR 00E9
ENCODING 233
SWIDTH 600 0
DWIDTH 16 0
BBX 12 22 2 0
BITMAP
0080
03C0
0F80
1E00
0800
0000
0000
0F80
3FC0
78E0
7070
E030
E030
FFF0
FFF0
E000
E000
E000
7000
7860
3FF0
0FC0
ENDCHAR
STARTCHAR 00EA
ENCODING 234
SWIDTH 600 0
DWIDTH 16 0
BBX 12 22 2 0
BITMAP
0700
0F80
1DC0
38E0
1040
0000
0000
0F80
3FC0
78E0
7070
E030
E030
FFF0
FFF0
E000
E000
E000
7000
7860
3FF0
0FC0
ENDCHAR
STARTCHAR 00EB
ENCODING 235
SWIDTH 600 0
DWIDTH 16 0
BBX 12 21 2 0
BITMAP
38E0
38E0
38E0
0000
0000
0000
0F80
3FC0
78E0
7070
E030
E030
FFF0
FFF0
E000
E000
E000
7000
7860
3FF0
0FC0
ENDCHAR
STARTCHAR 00EC
ENCODING 236
SWIDTH 600 0
DWIDTH 16 0
BBX 11 22 3 0
BITMAP
1000
1800
3E00
0F00
0100
0000
0000
FE00
FE00
0600
0600
0600
0600
0600
0600
0600
0600
0600
0600
0600
FFE0
FFE0
ENDCHAR
STARTCHAR 00ED
ENCODING 237
SWIDTH 600 0
DWIDTH 16 0
BBX 11 22 3 0
BITMAP
0100
0700
1F80
3800
2000
0000
0000
FE00
FE00
0600
0600
0600
0600
0600
0600
0600
0600
0600
0600
0600
FFE0
FFE0
ENDCHAR
STARTCHAR 00EE
ENCODING 238
SWIDTH 600 0
DWIDTH 16 0
BBX 11 22 3 0
BITMAP
0E00
1F00
3B80
61C0
4080
0000
0000
FE00
FE00
0600
0600
0600
0600
0600
0600
0600
0600
0600
0600
0600
FFE0
FFE0
ENDCHAR
STARTCHAR 00EF
ENCODING 239
SWIDTH 600 0
DWIDTH 16 0
BBX 11 21 3 0
BITMAP
7180
73C0
7180
0000
0000
0000
FE00
FE00
0600
0600
0600
0600
0600
0600
0600
0600
0600
0600
0600
FFE0
FFE0
ENDCHAR
STARTCHAR 00F0
ENCODING 240
SWIDTH 600 0
DWIDTH 16 0
BBX 13 22 2 0
BITMAP
2180
3BC0
7F00
0F80
0FC0
39E0
08E0
0070
1F70
3FB0
70F0
E078
E038
C038
C038
C038
E030
E070
E070
70E0
3FC0
1F80
ENDCHAR
STARTCHAR 00F1
ENCODING 241
SWIDTH 600 0
DWIDTH 16 0
BBX 11 21 3 0
BITMAP
3CC0
7F80
6700
0000
0000
0000
C780
DFC0
F1E0
E0E0
C0E0
C0E0
C0E0
C0E0
C0E0
C0E0
C0E0
C0E0
C0E0
C0E0
C0E0
ENDCHAR
STARTCHAR 00F2
ENCODING 242
SWIDTH 600 0
DWIDTH 16 0
BBX 13 22 2 0
BITMAP
0800
0C00
1F00
0780
0080
0000
0000
0F80
3FC0
78E0
7070
E070
E030
E030
E038
E038
E030
E070
7070
78E0
3FC0
1F80
ENDCHAR
STARTCHAR 00F3
ENCODING 243
SWIDTH 600 0
DWIDTH 16 0
BBX 13 22 2 0
BITMAP
0080
0380
0FC0
1C00
1000
0000
0000
0F80
3FC0
78E0
7070
E070
E030
E030
E038
E038
E030
E070
7070
78E0
3FC0
1F80
ENDCHAR
STARTCHAR 00F4
ENCODING 244
SWIDTH 600 0
DWIDTH 16 0
BBX 13 22 2 0
BITMAP
0700
0F80
1DC0
30E0
2040
0000
0000
0F80
3FC0
78E0
7070
E070
E030
E030
E038
E038
E030
E070
7070
78E0
3FC0
1F80
ENDCHAR
STARTCHAR 00F5
ENCODING 245
SWIDTH 600 0
DWIDTH 16 0
BBX 13 21 2 0
BITMAP
1E60
3FC0
3380
0000
0000
0000
0F80
3FC0
78E0
7070
E070
E030
E030
E038
E038
E030
E070
7070
78E0
3FC0
1F80
ENDCHAR
STARTCHAR 00F6
ENCODING 246
SWIDTH 600 0
DWIDTH 16 0
BBX 13 21 2 0
BITMAP
30C0
39E0
38C0
0000
0000
0000
0F80
3FC0
78E0
7070
E070
E030
E030
E038
E038
E030
E070
7070
78E0
3FC0
1F80
ENDCHAR
STARTCHAR 00F7
ENCODING 247
SWIDTH 600 0
DWIDTH 16 0
BBX 10 15 3 1
BITMAP
0C00
1E00
1E00
0C00
0000
0000
FFC0
FFC0
0000
0000
0000
0C00
1E00
1E00
0C00
ENDCHAR
STARTCHAR 00F8
ENCODING 248
SWIDTH 600 0
DWIDTH 16 0
BBX 13 21 2 -3
BITMAP
00E0
00C0
00C0
0FC0
3FC0
79E0
7170
E370
E330
E230
E638
E638
E430
EC70
6C70
7CE0
3FC0
1F80
3800
3000
3000
ENDCHAR
STARTCHAR 00F9
ENCODING 249
SWIDTH 600 0
DWIDTH 16 0
BBX 11 22 3 0
BITMAP
1000
1800
3E00
0F00
0100
0000
0000
C0E0
C0E0
C0E0
C0E0
C0E0
C0E0
C0E0
C0E0
C0E0
C0E0
C0E0
C0E0
E3E0
FFE0
7CE0
ENDCHAR
STARTCHAR 00FA
ENCODING 250
SWIDTH 600 0
DWIDTH 16 0
BBX 11 22 3 0
BITMAP
0100
0700
1F80
3800
2000
0000
0000
C0E0
C0E0
C0E0
C0E0
C0E0
C0E0
C0E0
C0E0
C0E0
C0E0
C0E0
C0E0
E3E0
FFE0
7CE0
ENDCHAR
STARTCHAR 00FB
ENCODING 251
SWIDTH 600 0
DWIDTH 16 0
BBX 11 22 3 0
BITMAP
0E00
1F00
3B80
61C0
4080
0000
0000
C0E0
C0E0
C0E0
C0E0
C0E0
C0E0
C0E0
C0E0
C0E0
C0E0
C0E0
C0E0
E3E0
FFE0
7CE0
ENDCHAR
STARTCHAR 00FC
ENCODING 252
SWIDTH 600 0
DWIDTH 16 0
BBX 11 21 3 0
BITMAP
6180
73C0
7180
0000
0000
0000
C0E0
C0E0
C0E0
C0E0
C0E0
C0E0
C0E0
C0E0
C0E0
C0E0
C0E0
C0E0
E3E0
FFE0
7CE0
ENDCHAR
STARTCHAR 00FD
ENCODING 253
SWIDTH 600 0
DWIDTH 16 0
BBX 13 28 2 -6
BITMAP
0080
0380
0FC0
1C00
1000
0000
0000
C038
E030
E070
6070
7060
7060
30E0
38C0
38C0
19C0
1D80
1D80
0F80
0F00
0F00
0700
0600
0E00
3C00
7800
6000
ENDCHAR
STARTCHAR 00FE
ENCODING 254
SWIDTH 600 0
DWIDTH 16 0
BBX 12 27 3 -6
BITMAP
C000
C000
C000
C000
C000
C000
CF80
DFC0
F1E0
E0E0
C0E0
C060
C070
C070
C070
C060
C0E0
C0E0
F1C0
FFC0
CF00
C000
C000
C000
C000
C000
8000
ENDCHAR
STARTCHAR 00FF
ENCODING 255
SWIDTH 600 0
DWIDTH 16 0
BBX 13 27 2 -6
BITMAP
30C0
39E0
38C0
0000
0000
0000
C038
E030
E070
6070
7060
7060
30E0
38C0
38C0
19C0
1D80
1D80
0F80
0F00
0F00
0700
0600
0E00
3C00
7800
6000
ENDCHAR
STARTCHAR 0100
ENCODING 256
SWIDTH 600 0
DWIDTH 16 0
BBX 16 24 0 0
BITMAP
0FF0
0FF0
0000
0000
0000
03C0
03C0
03E0
0760
0660
0670
0E70
0E30
0C38
1C38
1C18
181C
3FFC
3FFC
300E
300E
700E
7007
E007
ENDCHAR
STARTCHAR 0101
ENCODING 257
SWIDTH 600 0
DWIDTH 16 0
BBX 12 21 2 0
BITMAP
3FC0
3FC0
0000
0000
0000
0000
3F80
7FC0
61E0
00E0
0060
0060
1FE0
7FE0
F060
E060
E060
E0E0
F1F0
7F70
3E30
ENDCHAR
STARTCHAR 0102
ENCODING 258
SWIDTH 600 0
DWIDTH 16 0
BBX 16 25 0 0
BITMAP
0C30
0E70
07F0
03C0
0000
0000
03C0
03C0
03E0
0760
0660
0670
0E70
0E30
0C38
1C38
1C18
181C
3FFC
3FFC
300E
300E
700E
7007
E007
ENDCHAR
STARTCHAR 0103
ENCODING 259
SWIDTH 600 0
DWIDTH 16 0
BBX 12 21 2 0
BITMAP
30C0
39C0
1F80
0F00
0000
0000
3F80
7FC0
61E0
00E0
0060
0060
1FE0
7FE0
F060
E060
E060
E0E0
F1F0
7F70
3E30
ENDCHAR
STARTCHAR 0104
ENCODING 260
SWIDTH 600 0
DWIDTH 16 0
BBX 16 25 0 -6
BITMAP
03C0
03C0
03E0
0760
0660
0670
0E70
0E30
0C38
1C38
1C18
181C
3FFC
3FFC
300E
300E
700E
7007
E00F
0038
0070
0060
0072
007C
003C
ENDCHAR
STARTCHAR 0105
ENCODING 261
SWIDTH 600 0
DWIDTH 16 0
BBX 12 21 2 -6
BITMAP
3F80
7FC0
61E0
00E0
0060
0060
1FE0
7FE0
F060
E060
E060
E0E0
F1F0
7F70
3E70
01C0
0180
0300
0380
01F0
00E0
ENDCHAR
STARTCHAR 0106
ENCODING 262
SWIDTH 600 0
DWIDTH 16 0
BBX 14 25 2 0
BITMAP
0040
01E0
03E0
0700
0000
0000
07E0
1FF8
3C38
7010
7000
E000
E000
E000
C000
C000
C000
E000
E000
E000
7000
7008
3C38
1FFC
07E0
ENDCHAR
STARTCHAR 0107
ENCODING 263
SWIDTH 600 0
DWIDTH 16 0
BBX 12 22 2 0
BITMAP
0040
01E0
07C0
0F00
0400
0000
0000
07C0
1FF0
3C70
7000
7000
6000
E000
E000
E000
6000
7000
7000
3C70
1FF0
0FC0
ENDCHAR
STARTCHAR 0108
ENCODING 264
SWIDTH 600 0
DWIDTH 16 0
BBX 14 25 2 0
BITMAP
0180
07E0
0E70
1C38
0000
0000
07E0
1FF8
3C38
7010
7000
E000
E000
E000
C000
C000
C000
E000
E000
E000
7000
7008
3C38
1FFC
07E0
ENDCHAR
STARTCHAR 0109
ENCODING 265
SWIDTH 600 0
DWIDTH 16 0
BBX 12 22 2 0
BITMAP
0380
07C0
0EE0
1C70
0820
0000
0000
07C0
1FF0
3C70
7000
7000
6000
E000
E000
E000
6000
7000
7000
3C70
1FF0
0FC0
ENDCHAR
STARTCHAR 010A
ENCODING 266
SWIDTH 600 0
DWIDTH 16 0
BBX 14 25 2 0
BITMAP
0180
03C0
03C0
0180
0000
0000
07E0
1FF8
3C38
7010
7000
E000
E000
E000
C000
C000
C000
E000
E000
E000
7000
7008
3C38
1FFC
07E0
ENDCHAR
STARTCHAR 010B
ENCODING 267
SWIDTH 600 0
DWIDTH 16 0
BBX 12 22 2 0
BITMAP
0380
0380
0380
0380
0000
0000
0000
07C0
1FF0
3C70
7000
7000
6000
E000
E000
E000
6000
7000
7000
3C70
1FF0
0FC0
ENDCHAR
STARTCHAR 010C
ENCODING 268
SWIDTH 600 0
DWIDTH 16 0
BBX 14 25 2 0
BITMAP
1C38
0E70
07E0
0180
0000
0000
07E0
1FF8
3C38
7010
7000
E000
E000
E000
C000
C000
C000
E000
E000
E000
7000
7008
3C38
1FFC
07E0
ENDCHAR
STARTCHAR 010D
ENCODING 269
SWIDTH 600 0
DWIDTH 16 0
BBX 12 22 2 0
BITMAP
0820
1C70
0EE0
07C0
0380
0000
0000
07C0
1FF0
3C70
7000
7000
6000
E000
E000
E000
6000
7000
7000
3C70
1FF0
0FC0
ENDCHAR
STARTCHAR 010E
ENCODING 270
SWIDTH 600 0
DWIDTH 16 0
BBX 13 25 2 0
BITMAP
70C0
3BC0
1F00
0E00
0000
0000
FF00
FFC0
E1E0
E070
E070
E038
E038
E038
E038
E038
E038
E038
E038
E038
E070
E070
E1E0
FFC0
FF00
ENDCHAR
STARTCHAR 010F
ENCODING 271
SWIDTH 600 0
DWIDTH 16 0
BBX 16 21 1 0
BITMAP
0070
0073
0073
0076
0076
0076
1F70
3FF0
78F0
7070
E070
E070
E070
E070
E070
E070
E070
7070
79F0
3FB0
1E30
ENDCHAR
STARTCHAR 0110
ENCODING 272
SWIDTH 600 0
DWIDTH 16 0
BBX 15 19 0 0
BITMAP
3FC0
3FF0
3878
381C
380E
380E
380E
3806
FF86
FF86
3806
380E
380E
380E
380E
381C
3878
3FF0
3FC0
ENDCHAR
STARTCHAR 0111
ENCODING 273
SWIDTH 600 0
DWIDTH 16 0
BBX 14 21 2 0
BITMAP
0070
0070
07FC
07FC
0070
0070
1F70
3FF0
79F0
E070
E070
E070
E070
E070
E070
E070
E070
E070
71F0
7FF0
1E70
ENDCHAR
STARTCHAR 0112
ENCODING 274
SWIDTH 600 0
DWIDTH 16 0
BBX 11 24 3 0
BITMAP
3FC0
3FC0
0000
0000
0000
FFE0
FFE0
E000
E000
E000
E000
E000
E000
FFC0
FFC0
E000
E000
E000
E000
E000
E000
E000
FFE0
FFE0
ENDCHAR
STARTCHAR 0113
ENCODING 275
SWIDTH 600 0
DWIDTH 16 0
BBX 12 21 2 0
BITMAP
1FC0
1FC0
0000
0000
0000
0000
0F80
3FC0
78E0
7070
E030
E030
FFF0
FFF0
E000
E000
E000
7000
7860
3FF0
0FC0
ENDCHAR
STARTCHAR 0114
ENCODING 276
SWIDTH 600 0
DWIDTH 16 0
BBX 11 25 3 0
BITMAP
20C0
39C0
3F80
0F00
0000
0000
FFE0
FFE0
E000
E000
E000
E000
E000
E000
FFC0
FFC0
E000
E000
E000
E000
E000
E000
E000
FFE0
FFE0
ENDCHAR
STARTCHAR 0115
ENCODING 277
SWIDTH 600 0
DWIDTH 16 0
BBX 12 21 2 0
BITMAP
3060
18C0
1FC0
0700
0000
0000
0F80
3FC0
78E0
7070
E030
E030
FFF0
FFF0
E000
E000
E000
7000
7860
3FF0
0FC0
ENDCHAR
STARTCHAR 0116
ENCODING 278
SWIDTH 600 0
DWIDTH 16 0
BBX 11 25 3 0
BITMAP
0600
0F00
0F00
0600
0000
0000
FFE0
FFE0
E000
E000
E000
E000
E000
E000
FFC0
FFC0
E000
E000
E000
E000
E000
E000
E000
FFE0
FFE0
ENDCHAR
STARTCHAR 0117
ENCODING 279
SWIDTH 600 0
DWIDTH 16 0
BBX 12 22 2 0
BITMAP
0700
0700
0700
0700
0000
0000
0000
0F80
3FC0
78E0
7070
E030
E030
FFF0
FFF0
E000
E000
E000
7000
7860
3FF0
0FC0
ENDCHAR
STARTCHAR 0118
ENCODING 280
SWIDTH 600 0
DWIDTH 16 0
BBX 11 25 3 -6
BITMAP
FFE0
FFE0
E000
E000
E000
E000
E000
E000
FFC0
FFC0
E000
E000
E000
E000
E000
E000
E000
FFE0
FFE0
0700
0600
0C00
0E00
07C0
0380
ENDCHAR
STARTCHAR 0119
ENCODING 281
SWIDTH 600 0
DWIDTH 16 0
BBX 12 22 2 -7
BITMAP
0F80
3FC0
38E0
7070
6030
E030
E030
FFF0
FFF0
E000
E000
6000
7020
3CF0
1FE0
0F80
0600
0C00
0C00
1C00
0F80
0780
ENDCHAR
STARTCHAR 011A
ENCODING 282
SWIDTH 600 0
DWIDTH 16 0
BBX 11 25 3 0
BITMAP
70C0
3BC0
1F00
0E00
0000
0000
FFE0
FFE0
E000
E000
E000
E000
E000
E000
FFC0
FFC0
E000
E000
E000
E000
E000
E000
E000
FFE0
FFE0
ENDCHAR
STARTCHAR 011B
ENCODING 283
SWIDTH 600 0
DWIDTH 16 0
BBX 12 22 2 0
BITMAP
1040
38E0
1DC0
0F80
0700
0000
0000
0F80
3FC0
78E0
7070
E030
E030
FFF0
FFF0
E000
E000
E000
7000
7860
3FF0
0FC0
ENDCHAR
STARTCHAR 011C
ENCODING 284
SWIDTH 600 0
DWIDTH 16 0
BBX 14 25 1 0
BITMAP
01C0
07E0
0E70
1C38
0000
0000
07E0
0FF8
3C3C
3808
7000
7000
E000
E000
E1FC
E0FC
E01C
E01C
E01C
601C
701C
781C
3C3C
1FFC
07E0
ENDCHAR
STARTCHAR 011D
ENCODING 285
SWIDTH 600 0
DWIDTH 16 0
BBX 13 28 2 -6
BITMAP
0600
0F80
3DC0
70E0
2040
0000
0038
1FF8
3FF0
70C0
E060
E070
E070
E060
70E0
3FC0
3F80
7000
6000
7000
7FE0
3FF0
0078
0038
C038
E070
7FF0
3FC0
ENDCHAR
STARTCHAR 011E
ENCODING 286
SWIDTH 600 0
DWIDTH 16 0
BBX 14 25 1 0
BITMAP
0C30
0E70
07E0
03C0
0000
0000
07E0
0FF8
3C3C
3808
7000
7000
E000
E000
E1FC
E0FC
E01C
E01C
E01C
601C
701C
781C
3C3C
1FFC
07E0
ENDCHAR
STARTCHAR 011F
ENCODING 287
SWIDTH 600 0
DWIDTH 16 0
BBX 13 27 2 -6
BITMAP
30C0
39C0
1F80
0F00
0000
0038
1FF8
3FF0
70C0
E060
E070
E070
E060
70E0
3FC0
3F80
7000
6000
7000
7FE0
3FF0
0078
0038
C038
E070
7FF0
3FC0
ENDCHAR
STARTCHAR 0120
ENCODING 288
SWIDTH 600 0
DWIDTH 16 0
BBX 14 25 1 0
BITMAP
0180
03C0
03C0
0180
0000
0000
07E0
0FF8
3C3C
3808
7000
7000
E000
E000
E1FC
E0FC
E01C
E01C
E01C
601C
701C
781C
3C3C
1FFC
07E0
ENDCHAR
STARTCHAR 0121
ENCODING 289
SWIDTH 600 0
DWIDTH 16 0
BBX 13 28 2 -6
BITMAP
0600
0F00
0F00
0600
0000
0000
0038
1FF8
3FF0
70C0
E060
E070
E070
E060
70E0
3FC0
3F80
7000
6000
7000
7FE0
3FF0
0078
0038
C038
E070
7FF0
3FC0
ENDCHAR
STARTCHAR 0122
ENCODING 290
SWIDTH 600 0
DWIDTH 16 0
BBX 14 27 1 -8
BITMAP
07E0
0FF8
3C3C
3808
7000
7000
E000
E000
E1FC
E0FC
E01C
E01C
E01C
601C
701C
781C
3C3C
1FFC
07E0
0000
0000
0180
01C0
01C0
0180
0180
0300
ENDCHAR
STARTCHAR 0123
ENCODING 291
SWIDTH 600 0
DWIDTH 16 0
BBX 13 28 2 -6
BITMAP
0300
0600
0600
0600
0F00
0600
0038
1FF8
3FF0
70C0
E060
E070
E070
E060
70E0
3FC0
3F80
7000
6000
7000
7FE0
3FF0
0078
0038
C038
E070
7FF0
3FC0
ENDCHAR
STARTCHAR 0124
ENCODING 292
SWIDTH 600 0
DWIDTH 16 0
BBX 12 25 2 0
BITMAP
0700
0F80
3DC0
30E0
0000
0000
E030
E030
E030
E030
E030
E030
E030
E030
FFF0
FFF0
E030
E030
E030
E030
E030
E030
E030
E030
E030
ENDCHAR
STARTCHAR 0125
ENCODING 293
SWIDTH 600 0
DWIDTH 16 0
BBX 11 26 3 0
BITMAP
0E00
1F00
7B80
61C0
0000
C000
C000
C000
C000
C000
C000
C780
DFC0
F1E0
E0E0
C0E0
C0E0
C0E0
C0E0
C0E0
C0E0
C0E0
C0E0
C0E0
C0E0
C0E0
ENDCHAR
STARTCHAR 0126
ENCODING 294
SWIDTH 600 0
DWIDTH 16 0
BBX 16 19 0 0
BITMAP
380C
380C
380C
FFFF
FFFF
380C
380C
380C
3FFC
3FFC
380C
380C
380C
380C
380C
380C
380C
380C
380C
ENDCHAR
STARTCHAR 0127
ENCODING 295
SWIDTH 600 0
DWIDTH 16 0
BBX 14 21 0 0
BITMAP
1800
1800
FFC0
FFC0
1800
1800
18F0
1BF8
1E3C
1C1C
181C
181C
181C
181C
181C
181C
181C
181C
181C
181C
181C
ENDCHAR
STARTCHAR 0128
ENCODING 296
SWIDTH 600 0
DWIDTH 16 0
BBX 11 24 3 0
BITMAP
3CC0
7F80
6700
0000
0000
FFE0
FFE0
0E00
0E00
0E00
0E00
0E00
0E00
0E00
0E00
0E00
0E00
0E00
0E00
0E00
0E00
0E00
FFE0
FFE0
ENDCHAR
STARTCHAR 0129
ENCODING 297
SWIDTH 600 0
DWIDTH 16 0
BBX 11 21 3 0
BITMAP
3CC0
7F80
6700
0000
0000
0000
FE00
FE00
0600
0600
0600
0600
0600
0600
0600
0600
0600
0600
0600
FFE0
FFE0
ENDCHAR
STARTCHAR 012A
ENCODING 298
SWIDTH 600 0
DWIDTH 16 0
BBX 11 24 3 0
BITMAP
7F80
7F80
0000
0000
0000
FFE0
FFE0
0E00
0E00
0E00
0E00
0E00
0E00
0E00
0E00
0E00
0E00
0E00
0E00
0E00
0E00
0E00
FFE0
FFE0
ENDCHAR
STARTCHAR 012B
ENCODING 299
SWIDTH 600 0
DWIDTH 16 0
BBX 11 21 3 0
BITMAP
7F80
7F80
0000
0000
0000
0000
FE00
FE00
0600
0600
0600
0600
0600
0600
0600
0600
0600
0600
0600
FFE0
FFE0
ENDCHAR
STARTCHAR 012C
ENCODING 300
SWIDTH 600 0
DWIDTH 16 0
BBX 11 25 3 0
BITMAP
6180
7380
3F80
1E00
0000
0000
FFE0
FFE0
0E00
0E00
0E00
0E00
0E00
0E00
0E00
0E00
0E00
0E00
0E00
0E00
0E00
0E00
0E00
FFE0
FFE0
ENDCHAR
STARTCHAR 012D
ENCODING 301
SWIDTH 600 0
DWIDTH 16 0
BBX 11 21 3 0
BITMAP
6180
7380
3F00
1E00
0000
0000
FE00
FE00
0600
0600
0600
0600
0600
0600
0600
0600
0600
0600
0600
FFE0
FFE0
ENDCHAR
STARTCHAR 012E
ENCODING 302
SWIDTH 600 0
DWIDTH 16 0
BBX 11 25 3 -6
BITMAP
FFE0
FFE0
0E00
0E00
0E00
0E00
0E00
0E00
0E00
0E00
0E00
0E00
0E00
0E00
0E00
0E00
0E00
FFE0
FFE0
3800
7000
6000
7000
7C00
3C00
ENDCHAR
STARTCHAR 012F
ENCODING 303
SWIDTH 600 0
DWIDTH 16 0
BBX 11 28 3 -6
BITMAP
0C00
1E00
1E00
0C00
0000
0000
0000
FE00
FE00
0600
0600
0600
0600
0600
0600
0600
0600
0600
0600
0600
FFE0
FFE0
1800
3000
3000
3000
3E00
1E00
ENDCHAR
STARTCHAR 0130
ENCODING 304
SWIDTH 600 0
DWIDTH 16 0
BBX 11 25 3 0
BITMAP
0C00
1E00
1E00
0C00
0000
0000
FFE0
FFE0
0E00
0E00
0E00
0E00
0E00
0E00
0E00
0E00
0E00
0E00
0E00
0E00
0E00
0E00
0E00
FFE0
FFE0
ENDCHAR
STARTCHAR 0131
ENCODING 305
SWIDTH 600 0
DWIDTH 16 0
BBX 11 15 3 0
BITMAP
FE00
FE00
0600
0600
0600
0600
0600
0600
0600
0600
0600
0600
0600
FFE0
FFE0
ENDCHAR
STARTCHAR 0132
ENCODING 306
SWIDTH 600 0
DWIDTH 16 0
BBX 15 23 0 -4
BITMAP
FFFE
FFFE
1C0E
1C0E
1C0E
1C0E
1C0E
1C0E
1C0E
1C0E
1C0E
1C0E
1C0E
1C0E
1C0E
1C0E
1C0C
FF1C
FF1C
0038
00F0
07E0
0700
ENDCHAR
STARTCHAR 0133
ENCODING 307
SWIDTH 600 0
DWIDTH 16 0
BBX 13 28 1 -6
BITMAP
1838
3C78
3C38
1838
0000
0000
0000
FFF8
FFF8
1838
1838
1838
1838
1838
1838
1838
1838
1838
1838
1838
FF38
FF38
0038
0070
00E0
03C0
0780
0200
ENDCHAR
STARTCHAR 0134
ENCODING 308
SWIDTH 600 0
DWIDTH 16 0
BBX 12 25 2 0
BITMAP
0380
07C0
0EE0
1C30
0000
0000
1FF0
1FF0
0070
0070
0070
0070
0070
0070
0070
0070
0070
0070
0070
0070
0060
00E0
E1E0
FFC0
3F00
ENDCHAR
STARTCHAR 0135
ENCODING 309
SWIDTH 600 0
DWIDTH 16 0
BBX 13 28 2 -6
BITMAP
0180
03E0
0F70
1C38
0810
0000
0000
3FC0
3FC0
00C0
00C0
00C0
00C0
00C0
00C0
00C0
00C0
00C0
00C0
00C0
00C0
01C0
01C0
0380
0F00
FE00
7800
4000
ENDCHAR
STARTCHAR 0136
ENCODING 310
SWIDTH 600 0
DWIDTH 16 0
BBX 13 27 3 -8
BITMAP
C078
C0E0
C0E0
C1C0
C380
C700
CE00
CE00
DC00
DC00
CE00
CF00
C700
C380
C1C0
C1E0
C0E0
C070
C078
0000
0000
0600
0E00
0E00
0600
0C00
0C00
ENDCHAR
STARTCHAR 0137
ENCODING 311
SWIDTH 600 0
DWIDTH 16 0
BBX 13 29 3 -8
BITMAP
C000
C000
C000
C000
C000
C000
C0F0
C1E0
C3C0
C380
C700
CE00
DC00
DC00
CE00
C700
C380
C3C0
C1E0
C0E0
C078
0000
0000
0E00
0E00
0E00
0C00
0C00
0800
ENDCHAR
STARTCHAR 0138
ENCODING 312
SWIDTH 600 0
DWIDTH 16 0
BBX 13 15 3 0
BITMAP
C0F0
C1C0
C3C0
C380
C700
CE00
DC00
FC00
CE00
C700
C780
C3C0
C1C0
C0E0
C078
ENDCHAR
STARTCHAR 0139
ENCODING 313
SWIDTH 600 0
DWIDTH 16 0
BBX 13 25 2 0
BITMAP
0800
3C00
F800
E000
0000
0000
3000
3000
3000
3000
3000
3000
3000
3000
3000
3000
3000
3000
3000
3000
3000
3000
3000
3FF8
3FF8
ENDCHAR
STARTCHAR 013A
ENCODING 314
SWIDTH 600 0
DWIDTH 16 0
BBX 12 28 2 0
BITMAP
0100
0700
1F80
3800
2000
0000
0000
FE00
FE00
0E00
0E00
0E00
0E00
0E00
0E00
0E00
0E00
0E00
0E00
0E00
0E00
0E00
0E00
0E00
0E00
0E10
07F0
03E0
ENDCHAR
STARTCHAR 013B
ENCODING 315
SWIDTH 600 0
DWIDTH 16 0
BBX 11 27 4 -8
BITMAP
C000
C000
C000
C000
C000
C000
C000
C000
C000
C000
C000
C000
C000
C000
C000
C000
C000
FFE0
FFE0
0000
0000
0C00
1E00
0C00
0C00
0C00
1800
ENDCHAR
STARTCHAR 013C
ENCODING 316
SWIDTH 600 0
DWIDTH 16 0
BBX 12 29 2 -8
BITMAP
FE00
FE00
0E00
0E00
0E00
0E00
0E00
0E00
0E00
0E00
0E00
0E00
0E00
0E00
0E00
0E00
0E00
0E00
0E10
07F0
03E0
0000
0000
0180
03C0
0180
0180
0100
0300
ENDCHAR
STARTCHAR 013D
ENCODING 317
SWIDTH 600 0
DWIDTH 16 0
BBX 11 19 4 0
BITMAP
CE00
CE00
CC00
CC00
CC00
C000
C000
C000
C000
C000
C000
C000
C000
C000
C000
C000
C000
FFE0
FFE0
ENDCHAR
STARTCHAR 013E
ENCODING 318
SWIDTH 600 0
DWIDTH 16 0
BBX 12 21 2 0
BITMAP
FE00
FEE0
0EE0
0EC0
0EC0
0EC0
0E00
0E00
0E00
0E00
0E00
0E00
0E00
0E00
0E00
0E00
0E00
0E00
0E10
07F0
03E0
ENDCHAR
STARTCHAR 013F
ENCODING 319
SWIDTH 600 0
DWIDTH 16 0
BBX 11 19 4 0
BITMAP
C000
C000
C000
C000
C000
C000
C0C0
C1E0
C1E0
C0C0
C000
C000
C000
C000
C000
C000
C000
FFE0
FFE0
ENDCHAR
STARTCHAR 0140
ENCODING 320
SWIDTH 600 0
DWIDTH 16 0
BBX 15 21 2 0
BITMAP
FE00
FE00
0E00
0E00
0E00
0E00
0E00
0E00
0E0E
0E0E
0E0E
0E0E
0E00
0E00
0E00
0E00
0E00
0E00
0E10
07F0
03E0
ENDCHAR
STARTCHAR 0141
ENCODING 321
SWIDTH 600 0
DWIDTH 16 0
BBX 14 19 1 0
BITMAP
1800
1800
1800
1800
1800
1840
19E0
1B80
1F00
3C00
7800
F800
5800
1800
1800
1800
1800
1FFC
1FFC
ENDCHAR
STARTCHAR 0142
ENCODING 322
SWIDTH 600 0
DWIDTH 16 0
BBX 12 21 2 0
BITMAP
FE00
FE00
0E00
0E00
0E00
0E00
0E00
0E80
0FC0
0F80
1E00
3E00
7E00
2E00
0E00
0E00
0E00
0E00
0E10
07F0
03E0
ENDCHAR
STARTCHAR 0143
ENCODING 323
SWIDTH 600 0
DWIDTH 16 0
BBX 12 25 2 0
BITMAP
0080
0380
0FC0
1C00
0000
0000
F030
F030
F830
D830
DC30
DC30
CC30
EE30
EE30
E630
E730
E330
E3B0
E3B0
E1B0
E1F0
E0F0
E0F0
E0F0
ENDCHAR
STARTCHAR 0144
ENCODING 324
SWIDTH 600 0
DWIDTH 16 0
BBX 11 22 3 0
BITMAP
0100
0700
1F80
3800
2000
0000
0000
C780
DFC0
F1E0
E0E0
C0E0
C0E0
C0E0
C0E0
C0E0
C0E0
C0E0
C0E0
C0E0
C0E0
C0E0
ENDCHAR
STARTCHAR 0145
ENCODING 325
SWIDTH 600 0
DWIDTH 16 0
BBX 12 27 2 -8
BITMAP
F030
F030
F830
D830
DC30
DC30
CC30
EE30
EE30
E630
E730
E330
E3B0
E3B0
E1B0
E1F0
E0F0
E0F0
E0F0
0000
0000
0600
0700
0700
0600
0600
0400
ENDCHAR
STARTCHAR 0146
ENCODING 326
SWIDTH 600 0
DWIDTH 16 0
BBX 11 23 3 -8
BITMAP
C780
DFC0
F1E0
E0E0
C0E0
C0E0
C0E0
C0E0
C0E0
C0E0
C0E0
C0E0
C0E0
C0E0
C0E0
0000
0000
0C00
0E00
0E00
0C00
0C00
0800
ENDCHAR
STARTCHAR 0147
ENCODING 327
SWIDTH 600 0
DWIDTH 16 0
BBX 12 25 2 0
BITMAP
30E0
3DC0
0F80
0700
0000
0000
F030
F030
F830
D830
DC30
DC30
CC30
EE30
EE30
E630
E730
E330
E3B0
E3B0
E1B0
E1F0
E0F0
E0F0
E0F0
ENDCHAR
STARTCHAR 0148
ENCODING 328
SWIDTH 600 0
DWIDTH 16 0
BBX 11 22 3 0
BITMAP
4080
61C0
3B80
1F00
0E00
0000
0000
C780
DFC0
F1E0
E0E0
C0E0
C0E0
C0E0
C0E0
C0E0
C0E0
C0E0
C0E0
C0E0
C0E0
C0E0
ENDCHAR
STARTCHAR 0149
ENCODING 329
SWIDTH 600 0
DWIDTH 16 0
BBX 14 21 0 0
BITMAP
6000
E000
E000
6000
C000
C000
18F0
1BF8
1F1C
1C1C
1C1C
1C1C
1C1C
1C1C
1C1C
1C1C
1C1C
1C1C
1C1C
1C1C
1C1C
ENDCHAR
STARTCHAR 014A
ENCODING 330
SWIDTH 600 0
DWIDTH 16 0
BBX 12 25 2 -6
BITMAP
F030
F030
F830
D830
DC30
DC30
CC30
EE30
EE30
E630
E730
E330
E3B0
E3B0
E1B0
E1F0
E0F0
E0F0
E0F0
0030
0030
0070
0270
07E0
03C0
ENDCHAR
STARTCHAR 014B
ENCODING 331
SWIDTH 600 0
DWIDTH 16 0
BBX 11 21 3 -6
BITMAP
C780
DFC0
F1E0
E0E0
C0E0
C0E0
C0E0
C0E0
C0E0
C0E0
C0E0
C0E0
C0E0
C0E0
C0E0
00E0
00E0
01C0
03C0
0780
0200
ENDCHAR
STARTCHAR 014C
ENCODING 332
SWIDTH 600 0
DWIDTH 16 0
BBX 14 24 1 0
BITMAP
1FE0
1FE0
0000
0000
0000
07C0
1FE0
3C70
7038
7018
601C
E01C
E01C
E01C
E01C
E01C
E01C
E01C
601C
7018
7038
3C70
1FE0
07C0
ENDCHAR
STARTCHAR 014D
ENCODING 333
SWIDTH 600 0
DWIDTH 16 0
BBX 13 21 2 0
BITMAP
3FC0
3FC0
0000
0000
0000
0000
0F80
3FC0
78E0
7070
E070
E030
E030
E038
E038
E030
E070
7070
78E0
3FC0
1F80
ENDCHAR
STARTCHAR 014E
ENCODING 334
SWIDTH 600 0
DWIDTH 16 0
BBX 14 25 1 0
BITMAP
1860
1CE0
0FE0
0780
0000
0000
07C0
1FE0
3C70
7038
7018
601C
E01C
E01C
E01C
E01C
E01C
E01C
E01C
601C
7018
7038
3C70
1FE0
07C0
ENDCHAR
STARTCHAR 014F
ENCODING 335
SWIDTH 600 0
DWIDTH 16 0
BBX 13 21 2 0
BITMAP
30C0
39C0
1F80
0F00
0000
0000
0F80
3FC0
78E0
7070
E070
E030
E030
E038
E038
E030
E070
7070
78E0
3FC0
1F80
ENDCHAR
STARTCHAR 0150
ENCODING 336
SWIDTH 600 0
DWIDTH 16 0
BBX 14 26 1 0
BITMAP
0210
0738
0630
0660
0CE0
0440
0000
07C0
1FE0
3C70
7038
7018
601C
E01C
E01C
E01C
E01C
E01C
E01C
E01C
601C
7018
7038
3C70
1FE0
07C0
ENDCHAR
STARTCHAR 0151
ENCODING 337
SWIDTH 600 0
DWIDTH 16 0
BBX 13 23 2 0
BITMAP
0460
0E70
0CE0
1CC0
19C0
0880
0000
0000
0F80
3FC0
78E0
7070
E070
E030
E030
E038
E038
E030
E070
7070
78E0
3FC0
1F80
ENDCHAR
STARTCHAR 0152
ENCODING 338
SWIDTH 600 0
DWIDTH 16 0
BBX 17 19 0 0
BITMAP
0FFF80
3FFF00
79C000
70E000
60E000
E06000
E06000
E07000
E07F00
E07F00
E07000
E06000
E06000
E06000
60E000
70E000
79C000
3FFF80
1FFF80
ENDCHAR
STARTCHAR 0153
ENCODING 339
SWIDTH 600 0
DWIDTH 16 0
BBX 17 15 0 0
BITMAP
1E3C00
7F7E00
736700
E1C300
E1C380
E1C380
E1FF80
E1FF80
E1C000
E1C000
E1C000
E1C000
736300
7F7F00
3E3E00
ENDCHAR
STARTCHAR 0154
ENCODING 340
SWIDTH 600 0
DWIDTH 16 0
BBX 12 25 3 0
BITMAP
0100
0700
1F80
3800
0000
0000
FF00
FFC0
C1E0
C0F0
C070
C070
C070
C0E0
C1E0
FFC0
FF00
C700
C380
C380
C1C0
C1E0
C0E0
C070
C070
ENDCHAR
STARTCHAR 0155
ENCODING 341
SWIDTH 600 0
DWIDTH 16 0
BBX 12 22 3 0
BITMAP
0180
0380
0F80
1C00
1000
0000
0000
F1F0
F3F0
3760
3C60
3C60
3800
3800
3800
3800
3800
3800
3800
3800
FE00
FE00
ENDCHAR
STARTCHAR 0156
ENCODING 342
SWIDTH 600 0
DWIDTH 16 0
BBX 12 27 3 -8
BITMAP
FF00
FFC0
C1E0
C0F0
C070
C070
C070
C0E0
C1E0
FFC0
FF00
C700
C380
C380
C1C0
C1E0
C0E0
C070
C070
0000
0000
0C00
0E00
0E00
0C00
0C00
0800
ENDCHAR
STARTCHAR 0157
ENCODING 343
SWIDTH 600 0
DWIDTH 16 0
BBX 12 23 3 -8
BITMAP
F1F0
F3F0
3760
3C60
3C60
3800
3800
3800
3800
3800
3800
3800
3800
FE00
FE00
0000
0000
3000
3800
3800
3000
3000
2000
ENDCHAR
STARTCHAR 0158
ENCODING 344
SWIDTH 600 0
DWIDTH 16 0
BBX 12 25 3 0
BITMAP
61C0
7B80
1F00
0E00
0000
0000
FF00
FFC0
C1E0
C0F0
C070
C070
C070
C0E0
C1E0
FFC0
FF00
C700
C380
C380
C1C0
C1E0
C0E0
C070
C070
ENDCHAR
STARTCHAR 0159
ENCODING 345
SWIDTH 600 0
DWIDTH 16 0
BBX 12 22 3 0
BITMAP
2040
70E0
3DC0
0F80
0600
0000
0000
F1F0
F3F0
3760
3C60
3C60
3800
3800
3800
3800
3800
3800
3800
3800
FE00
FE00
ENDCHAR
STARTCHAR 015A
ENCODING 346
SWIDTH 600 0
DWIDTH 16 0
BBX 14 25 1 0
BITMAP
0040
01C0
07E0
0E00
0000
0000
0FC0
3FF0
3878
7010
7000
7000
7800
3E00
1FC0
07F0
00F8
0038
001C
001C
001C
4038
F078
7FF0
1FC0
ENDCHAR
STARTCHAR 015B
ENCODING 347
SWIDTH 600 0
DWIDTH 16 0
BBX 12 22 2 0
BITMAP
0080
03C0
0F80
1E00
0800
0000
0000
1F80
3FF0
7860
6020
7000
7800
3F00
1FC0
01E0
0070
0070
4070
F0E0
7FE0
1F80
ENDCHAR
STARTCHAR 015C
ENCODING 348
SWIDTH 600 0
DWIDTH 16 0
BBX 14 25 1 0
BITMAP
0380
07C0
0EE0
1870
0000
0000
0FC0
3FF0
3878
7010
7000
7000
7800
3E00
1FC0
07F0
00F8
0038
001C
001C
001C
4038
F078
7FF0
1FC0
ENDCHAR
STARTCHAR 015D
ENCODING 349
SWIDTH 600 0
DWIDTH 16 0
BBX 12 22 2 0
BITMAP
0700
0F80
1DC0
38E0
1040
0000
0000
1F80
3FF0
7860
6020
7000
7800
3F00
1FC0
01E0
0070
0070
4070
F0E0
7FE0
1F80
ENDCHAR
STARTCHAR 015E
ENCODING 350
SWIDTH 600 0
DWIDTH 16 0
BBX 14 26 1 -7
BITMAP
0FC0
3FF0
3878
7010
7000
7000
7800
3E00
1FC0
07F0
00F8
0038
001C
001C
001C
4038
F078
7FF0
1FC0
0300
0300
0380
00C0
00C0
0FC0
0780
ENDCHAR
STARTCHAR 015F
ENCODING 351
SWIDTH 600 0
DWIDTH 16 0
BBX 12 22 2 -7
BITMAP
1F80
3FF0
7860
6020
7000
7800
3F00
1FC0
01E0
0070
0070
4070
F0E0
7FE0
1F80
0600
0600
0700
0180
0180
1F80
0F00
ENDCHAR
STARTCHAR 0160
ENCODING 352
SWIDTH 600 0
DWIDTH 16 0
BBX 14 25 1 0
BITMAP
1830
1EE0
07C0
0380
0000
0000
0FC0
3FF0
3878
7010
7000
7000
7800
3E00
1FC0
07F0
00F8
0038
001C
001C
001C
4038
F078
7FF0
1FC0
ENDCHAR
STARTCHAR 0161
ENCODING 353
SWIDTH 600 0
DWIDTH 16 0
BBX 12 22 2 0
BITMAP
1040
38E0
1DC0
0F80
0700
0000
0000
1F80
3FF0
7860
6020
7000
7800
3F00
1FC0
01E0
0070
0070
4070
F0E0
7FE0
1F80
ENDCHAR
STARTCHAR 0162
ENCODING 354
SWIDTH 600 0
DWIDTH 16 0
BBX 14 26 1 -7
BITMAP
FFFC
FFFC
0380
0380
0380
0380
0380
0380
0380
0380
0380
0380
0380
0380
0380
0380
0380
0380
0380
0300
0300
03C0
00E0
00E0
0FC0
0780
ENDCHAR
STARTCHAR 0163
ENCODING 355
SWIDTH 600 0
DWIDTH 16 0
BBX 12 26 2 -7
BITMAP
0400
1C00
1C00
1C00
FFE0
FFE0
1C00
1C00
1C00
1C00
1C00
1C00
1C00
1C00
1C00
1C00
0E10
0FF0
03E0
0180
0180
01C0
0060
0060
07E0
03C0
ENDCHAR
STARTCHAR 0164
ENCODING 356
SWIDTH 600 0
DWIDTH 16 0
BBX 14 25 1 0
BITMAP
1870
1EE0
0FC0
0380
0000
0000
FFFC
FFFC
0380
0380
0380
0380
0380
0380
0380
0380
0380
0380
0380
0380
0380
0380
0380
0380
0380
ENDCHAR
STARTCHAR 0165
ENCODING 357
SWIDTH 600 0
DWIDTH 16 0
BBX 12 21 2 0
BITMAP
00C0
00C0
04C0
1C80
1D80
1C00
FFE0
FFE0
1C00
1C00
1C00
1C00
1C00
1C00
1C00
1C00
1C00
1C00
0E10
0FF0
03E0
ENDCHAR
STARTCHAR 0166
ENCODING 358
SWIDTH 600 0
DWIDTH 16 0
BBX 14 19 1 0
BITMAP
FFFC
FFFC
0380
0380
0380
0380
0380
3FF0
3FF0
0380
0380
0380
0380
0380
0380
0380
0380
0380
0380
ENDCHAR
STARTCHAR 0167
ENCODING 359
SWIDTH 600 0
DWIDTH 16 0
BBX 12 19 2 0
BITMAP
0400
1C00
1C00
1C00
FFE0
FFE0
1C00
1C00
1C00
FFE0
FFE0
1C00
1C00
1C00
1C00
1C00
0E10
0FF0
03E0
ENDCHAR
STARTCHAR 0168
ENCODING 360
SWIDTH 600 0
DWIDTH 16 0
BBX 13 24 2 0
BITMAP
1E60
3FC0
3380
0000
0000
E038
E038
E038
E038
E038
E038
E038
E038
E038
E038
E038
E038
E038
E038
E030
E070
70E0
3FE0
1F80
ENDCHAR
STARTCHAR 0169
ENCODING 361
SWIDTH 600 0
DWIDTH 16 0
BBX 11 21 3 0
BITMAP
3CC0
7F80
6700
0000
0000
0000
C0E0
C0E0
C0E0
C0E0
C0E0
C0E0
C0E0
C0E0
C0E0
C0E0
C0E0
C0E0
E3E0
FFE0
7CE0
ENDCHAR
STARTCHAR 016A
ENCODING 362
SWIDTH 600 0
DWIDTH 16 0
BBX 13 24 2 0
BITMAP
3FC0
3FC0
0000
0000
0000
E038
E038
E038
E038
E038
E038
E038
E038
E038
E038
E038
E038
E038
E038
E030
E070
70E0
3FE0
1F80
ENDCHAR
STARTCHAR 016B
ENCODING 363
SWIDTH 600 0
DWIDTH 16 0
BBX 11 21 3 0
BITMAP
7F80
7F80
0000
0000
0000
0000
C0E0
C0E0
C0E0
C0E0
C0E0
C0E0
C0E0
C0E0
C0E0
C0E0
C0E0
C0E0
E3E0
FFE0
7CE0
ENDCHAR
STARTCHAR 016C
ENCODING 364
SWIDTH 600 0
DWIDTH 16 0
BBX 13 25 2 0
BITMAP
30C0
39C0
1FC0
0F00
0000
0000
E038
E038
E038
E038
E038
E038
E038
E038
E038
E038
E038
E038
E038
E038
E030
E070
70E0
3FE0
1F80
ENDCHAR
STARTCHAR 016D
ENCODING 365
SWIDTH 600 0
DWIDTH 16 0
BBX 11 21 3 0
BITMAP
6180
7380
3F00
1E00
0000
0000
C0E0
C0E0
C0E0
C0E0
C0E0
C0E0
C0E0
C0E0
C0E0
C0E0
C0E0
C0E0
E3E0
FFE0
7CE0
ENDCHAR
STARTCHAR 016E
ENCODING 366
SWIDTH 600 0
DWIDTH 16 0
BBX 13 26 2 0
BITMAP
0F00
1980
1880
1880
1980
0F00
0000
E038
E038
E038
E038
E038
E038
E038
E038
E038
E038
E038
E038
E038
E038
E030
E070
70E0
3FE0
1F80
ENDCHAR
STARTCHAR 016F
ENCODING 367
SWIDTH 600 0
DWIDTH 16 0
BBX 11 23 3 0
BITMAP
1E00
3300
3100
3100
3300
1E00
0000
0000
C0E0
C0E0
C0E0
C0E0
C0E0
C0E0
C0E0
C0E0
C0E0
C0E0
C0E0
C0E0
E3E0
FFE0
7CE0
ENDCHAR
STARTCHAR 0170
ENCODING 368
SWIDTH 600 0
DWIDTH 16 0
BBX 13 26 2 0
BITMAP
0420
0E70
0C60
0CC0
19C0
0880
0000
E038
E038
E038
E038
E038
E038
E038
E038
E038
E038
E038
E038
E038
E038
E030
E070
70E0
3FE0
1F80
ENDCHAR
STARTCHAR 0171
ENCODING 369
SWIDTH 600 0
DWIDTH 16 0
BBX 11 23 3 0
BITMAP
08C0
1CE0
19C0
3980
3380
1100
0000
0000
C0E0
C0E0
C0E0
C0E0
C0E0
C0E0
C0E0
C0E0
C0E0
C0E0
C0E0
C0E0
E3E0
FFE0
7CE0
ENDCHAR
STARTCHAR 0172
ENCODING 370
SWIDTH 600 0
DWIDTH 16 0
BBX 13 25 2 -6
BITMAP
E038
E038
E038
E038
E038
E038
E038
E038
E038
E038
E038
E038
E038
E038
E030
E070
70E0
3FE0
1F80
0C00
1800
1800
1800
1F00
0F00
ENDCHAR
STARTCHAR 0173
ENCODING 371
SWIDTH 600 0
DWIDTH 16 0
BBX 11 21 3 -6
BITMAP
C0E0
C0E0
C0E0
C0E0
C0E0
C0E0
C0E0
C0E0
C0E0
C0E0
C0E0
C0E0
E3E0
FFE0
7CE0
0380
0300
0600
0700
03E0
01C0
ENDCHAR
STARTCHAR 0174
ENCODING 372
SWIDTH 600 0
DWIDTH 16 0
BBX 16 25 0 0
BITMAP
01C0
03E0
0F70
0C38
0000
0000
E003
E003
E1C3
63C7
63C7
63C7
63C6
7366
7366
7266
7666
366E
366E
366C
363C
363C
3C3C
3C3C
1C3C
ENDCHAR
STARTCHAR 0175
ENCODING 373
SWIDTH 600 0
DWIDTH 16 0
BBX 16 22 0 0
BITMAP
01C0
03E0
0770
0C38
0810
0000
0000
E007
6007
61C7
61C6
73C6
73C6
3366
3366
336E
366C
366C
366C
1E3C
1E3C
1C3C
ENDCHAR
STARTCHAR 0176
ENCODING 374
SWIDTH 600 0
DWIDTH 16 0
BBX 16 25 0 0
BITMAP
01C0
03E0
0F70
0C38
0000
0000
F007
700E
380E
381C
1C1C
1C38
0E30
0670
0760
03E0
03C0
01C0
01C0
01C0
01C0
01C0
01C0
01C0
01C0
ENDCHAR
STARTCHAR 0177
ENCODING 375
SWIDTH 600 0
DWIDTH 16 0
BBX 13 28 2 -6
BITMAP
0700
0F80
1DC0
30E0
2040
0000
0000
C038
E030
E070
6070
7060
7060
30E0
38C0
38C0
19C0
1D80
1D80
0F80
0F00
0F00
0700
0600
0E00
3C00
7800
6000
ENDCHAR
STARTCHAR 0178
ENCODING 376
SWIDTH 600 0
DWIDTH 16 0
BBX 16 24 0 0
BITMAP
0E30
0E38
0E30
0000
0000
F007
700E
380E
381C
1C1C
1C38
0E30
0670
0760
03E0
03C0
01C0
01C0
01C0
01C0
01C0
01C0
01C0
01C0
ENDCHAR
STARTCHAR 0179
ENCODING 377
SWIDTH 600 0
DWIDTH 16 0
BBX 13 25 2 0
BITMAP
0080
03C0
0F80
1C00
0000
0000
7FF8
7FF8
0070
0070
00E0
01C0
01C0
0380
0700
0700
0E00
1C00
1C00
3800
7000
7000
E000
FFF8
FFF0
ENDCHAR
STARTCHAR 017A
ENCODING 378
SWIDTH 600 0
DWIDTH 16 0
BBX 11 22 3 0
BITMAP
0100
0780
1F00
3C00
1000
0000
0000
FFE0
FFE0
01C0
01C0
0380
0700
0E00
0E00
1C00
3800
3800
7000
E000
FFE0
FFE0
ENDCHAR
STARTCHAR 017B
ENCODING 379
SWIDTH 600 0
DWIDTH 16 0
BBX 13 25 2 0
BITMAP
0700
0780
0700
0700
0000
0000
7FF8
7FF8
0070
0070
00E0
01C0
01C0
0380
0700
0700
0E00
1C00
1C00
3800
7000
7000
E000
FFF8
FFF0
ENDCHAR
STARTCHAR 017C
ENCODING 380
SWIDTH 600 0
DWIDTH 16 0
BBX 11 22 3 0
BITMAP
0E00
0E00
0E00
0E00
0000
0000
0000
FFE0
FFE0
01C0
01C0
0380
0700
0E00
0E00
1C00
3800
3800
7000
E000
FFE0
FFE0
ENDCHAR
STARTCHAR 017D
ENCODING 381
SWIDTH 600 0
DWIDTH 16 0
BBX 13 25 2 0
BITMAP
3860
1DE0
0F80
0700
0000
0000
7FF8
7FF8
0070
0070
00E0
01C0
01C0
0380
0700
0700
0E00
1C00
1C00
3800
7000
7000
E000
FFF8
FFF0
ENDCHAR
STARTCHAR 017E
ENCODING 382
SWIDTH 600 0
DWIDTH 16 0
BBX 11 22 3 0
BITMAP
2080
71C0
3B80
1F00
0E00
0000
0000
FFE0
FFE0
01C0
01C0
0380
0700
0E00
0E00
1C00
3800
3800
7000
E000
FFE0
FFE0
ENDCHAR
STARTCHAR 0192
ENCODING 402
SWIDTH 600 0
DWIDTH 16 0
BBX 11 27 3 -6
BITMAP
0FE0
1FC0
1C40
1800
1800
1800
FF80
FF00
1800
1800
1800
1800
1800
1800
1800
1800
1800
1800
1800
1800
1800
3800
3800
3800
F000
E000
8000
ENDCHAR
STARTCHAR 01FC
ENCODING 508
SWIDTH 600 0
DWIDTH 16 0
BBX 17 25 0 0
BITMAP
001000
007800
01F000
01C000
000000
000000
07FE00
07FE00
0D8000
0D8000
0D8000
1DC000
1DC000
18C000
18FE00
38FE00
38E000
30E000
3FE000
7FE000
707000
607000
E07000
E03F80
E03F80
ENDCHAR
STARTCHAR 01FD
ENCODING 509
SWIDTH 600 0
DWIDTH 16 0
BBX 17 22 0 0
BITMAP
002000
00F000
03E000
078000
020000
000000
000000
3E3C00
7F7E00
43E700
01C300
018300
018300
1FFF80
7FFF80
F18000
E18000
C1C000
E1C000
E3E200
7E7F00
3C3E00
ENDCHAR
STARTCHAR 01FE
ENCODING 510
SWIDTH 600 0
DWIDTH 16 0
BBX 14 28 1 -3
BITMAP
0040
01C0
07E0
0E20
0070
0060
07E0
1FE0
3CF0
70F8
70D8
609C
E19C
E19C
E11C
E31C
E31C
E31C
E61C
661C
7618
7438
3C70
1FE0
1FC0
1800
1800
2800
ENDCHAR
STARTCHAR 01FF
ENCODING 511
SWIDTH 600 0
DWIDTH 16 0
BBX 13 25 2 -3
BITMAP
0080
0380
0FC0
1C00
10E0
00C0
00C0
0FC0
3FC0
79E0
7170
E370
E330
E230
E638
E638
E430
EC70
6C70
7CE0
3FC0
1F80
3800
3000
3000
ENDCHAR
STARTCHAR 0218
ENCODING 536
SWIDTH 600 0
DWIDTH 16 0
BBX 14 27 1 -8
BITMAP
0FC0
3FF0
3878
7010
7000
7000
7800
3E00
1FC0
07F0
00F8
0038
001C
001C
001C
4038
F078
7FF0
1FC0
0000
0000
0300
0380
0380
0300
0300
0600
ENDCHAR
STARTCHAR 0219
ENCODING 537
SWIDTH 600 0
DWIDTH 16 0
BBX 12 23 2 -8
BITMAP
1F80
3FF0
7860
6020
7000
7800
3F00
1FC0
01E0
0070
0070
4070
F0E0
7FE0
1F80
0000
0000
0600
0700
0700
0600
0600
0C00
ENDCHAR
STARTCHAR 021A
ENCODING 538
SWIDTH 600 0
DWIDTH 16 0
BBX 14 27 1 -8
BITMAP
FFFC
FFFC
0380
0380
0380
0380
0380
0380
0380
0380
0380
0380
0380
0380
0380
0380
0380
0380
0380
0000
0000
0300
0380
0380
0300
0300
0600
ENDCHAR
STARTCHAR 021B
ENCODING 539
SWIDTH 600 0
DWIDTH 16 0
BBX 12 27 2 -8
BITMAP
0400
1C00
1C00
1C00
FFE0
FFE0
1C00
1C00
1C00
1C00
1C00
1C00
1C00
1C00
1C00
1C00
0E10
0FF0
03E0
0000
0000
0180
01C0
01C0
0180
0180
0300
ENDCHAR
STARTCHAR 0237
ENCODING 567
SWIDTH 600 0
DWIDTH 16 0
BBX 10 21 2 -6
BITMAP
3FC0
3FC0
00C0
00C0
00C0
00C0
00C0
00C0
00C0
00C0
00C0
00C0
00C0
00C0
01C0
01C0
0380
0F00
FE00
7800
4000
ENDCHAR
STARTCHAR 02B9
ENCODING 697
SWIDTH 600 0
DWIDTH 16 0
BBX 5 8 6 12
BITMAP
38
30
70
70
60
E0
C0
C0
ENDCHAR
STARTCHAR 02BA
ENCODING 698
SWIDTH 600 0
DWIDTH 16 0
BBX 9 8 4 12
BITMAP
3B80
3300
7700
6700
6600
E600
CC00
CC00
ENDCHAR
STARTCHAR 02BC
ENCODING 700
SWIDTH 600 0
DWIDTH 16 0
BBX 4 6 6 15
BITMAP
60
F0
60
60
60
C0
ENDCHAR
STARTCHAR 02C6
ENCODING 710
SWIDTH 600 0
DWIDTH 16 0
BBX 9 5 4 17
BITMAP
1C00
3E00
7700
C380
8100
ENDCHAR
STARTCHAR 02C7
ENCODING 711
SWIDTH 600 0
DWIDTH 16 0
BBX 9 5 4 17
BITMAP
8100
C380
7700
3E00
1C00
ENDCHAR
STARTCHAR 02C9
ENCODING 713
SWIDTH 600 0
DWIDTH 16 0
BBX 8 2 4 19
BITMAP
FF
FF
ENDCHAR
STARTCHAR 02D8
ENCODING 728
SWIDTH 600 0
DWIDTH 16 0
BBX 8 4 4 17
BITMAP
C3
E7
7E
3C
ENDCHAR
STARTCHAR 02D9
ENCODING 729
SWIDTH 600 0
DWIDTH 16 0
BBX 4 4 6 18
BITMAP
60
F0
F0
60
ENDCHAR
STARTCHAR 02DA
ENCODING 730
SWIDTH 600 0
DWIDTH 16 0
BBX 6 6 5 17
BITMAP
78
CC
C4
C4
CC
78
ENDCHAR
STARTCHAR 02DB
ENCODING 731
SWIDTH 600 0
DWIDTH 16 0
BBX 6 8 5 -6
BITMAP
04
1C
70
60
E0
E0
7C
3C
ENDCHAR
STARTCHAR 02DC
ENCODING 732
SWIDTH 600 0
DWIDTH 16 0
BBX 9 3 4 18
BITMAP
7980
FF00
CE00
ENDCHAR
STARTCHAR 02DD
ENCODING 733
SWIDTH 600 0
DWIDTH 16 0
BBX 9 6 4 17
BITMAP
2200
7380
6700
E600
CE00
4400
ENDCHAR
STARTCHAR 0300
ENCODING 768
SWIDTH 600 0
DWIDTH 16 0
BBX 7 5 5 17
BITMAP
40
F0
78
1E
04
ENDCHAR
STARTCHAR 0301
ENCODING 769
SWIDTH 600 0
DWIDTH 16 0
BBX 7 5 5 17
BITMAP
04
1C
7E
E0
80
ENDCHAR
STARTCHAR 0302
ENCODING 770
SWIDTH 600 0
DWIDTH 16 0
BBX 9 4 4 17
BITMAP
1C00
3E00
F700
C380
ENDCHAR
STARTCHAR 0303
ENCODING 771
SWIDTH 600 0
DWIDTH 16 0
BBX 9 3 4 18
BITMAP
7980
FF00
CE00
ENDCHAR
STARTCHAR 0304
ENCODING 772
SWIDTH 600 0
DWIDTH 16 0
BBX 8 2 4 18
BITMAP
FF
FF
ENDCHAR
STARTCHAR 0305
ENCODING 773
SWIDTH 600 0
DWIDTH 16 0
BBX 12 2 2 17
BITMAP
FFF0
FFF0
ENDCHAR
STARTCHAR 0306
ENCODING 774
SWIDTH 600 0
DWIDTH 16 0
BBX 8 4 4 16
BITMAP
C3
E7
7F
3C
ENDCHAR
STARTCHAR 0307
ENCODING 775
SWIDTH 600 0
DWIDTH 16 0
BBX 4 4 6 17
BITMAP
60
F0
F0
60
ENDCHAR
STARTCHAR 0308
ENCODING 776
SWIDTH 600 0
DWIDTH 16 0
BBX 9 3 4 18
BITMAP
C300
E780
E300
ENDCHAR
STARTCHAR 030A
ENCODING 778
SWIDTH 600 0
DWIDTH 16 0
BBX 6 6 5 16
BITMAP
78
CC
C4
C4
CC
78
ENDCHAR
STARTCHAR 030B
ENCODING 779
SWIDTH 600 0
DWIDTH 16 0
BBX 9 6 4 16
BITMAP
2200
7380
6700
E600
CE00
4400
ENDCHAR
STARTCHAR 030C
ENCODING 780
SWIDTH 600 0
DWIDTH 16 0
BBX 9 4 4 16
BITMAP
C380
F700
3E00
1C00
ENDCHAR
STARTCHAR 030F
ENCODING 783
SWIDTH 600 0
DWIDTH 16 0
BBX 9 6 4 17
BITMAP
4200
EE00
6700
7300
3380
2100
ENDCHAR
STARTCHAR 0313
ENCODING 787
SWIDTH 600 0
DWIDTH 16 0
BBX 4 6 6 15
BITMAP
60
F0
60
60
60
C0
ENDCHAR
STARTCHAR 0314
ENCODING 788
SWIDTH 600 0
DWIDTH 16 0
BBX 4 6 5 15
BITMAP
60
F0
60
60
60
30
ENDCHAR
STARTCHAR 0326
ENCODING 806
SWIDTH 600 0
DWIDTH 16 0
BBX 3 6 7 -8
BITMAP
C0
E0
E0
C0
C0
80
ENDCHAR
STARTCHAR 0327
ENCODING 807
SWIDTH 600 0
DWIDTH 16 0
BBX 6 7 5 -7
BITMAP
30
30
3C
0C
0C
FC
78
ENDCHAR
STARTCHAR 0335
ENCODING 821
SWIDTH 600 0
DWIDTH 16 0
BBX 10 2 3 8
BITMAP
FFC0
FFC0
ENDCHAR
STARTCHAR 0336
ENCODING 822
SWIDTH 600 0
DWIDTH 16 0
BBX 18 2 -1 8
BITMAP
FFFFC0
FFFFC0
ENDCHAR
STARTCHAR 0342
ENCODING 834
SWIDTH 600 0
DWIDTH 16 0
BBX 9 3 4 18
BITMAP
7980
FF00
CE00
ENDCHAR
STARTCHAR 0345
ENCODING 837
SWIDTH 600 0
DWIDTH 16 0
BBX 6 4 5 -5
BITMAP
E0
E0
7C
78
ENDCHAR
STARTCHAR 0370
ENCODING 880
SWIDTH 600 0
DWIDTH 16 0
BBX 10 19 3 0
BITMAP
E000
E000
E000
E000
E000
E000
E000
E000
FFC0
FFC0
E000
E000
E000
E000
E000
E000
E000
E000
E000
ENDCHAR
STARTCHAR 0371
ENCODING 881
SWIDTH 600 0
DWIDTH 16 0
BBX 11 15 3 0
BITMAP
E000
E000
E000
6000
6000
6000
7FE0
7FE0
6000
6000
6000
6000
6000
6000
6000
ENDCHAR
STARTCHAR 0372
ENCODING 882
SWIDTH 600 0
DWIDTH 16 0
BBX 15 19 1 0
BITMAP
FFFE
FFFE
C38E
C38E
C38E
C38E
C38E
0380
0380
0380
0380
0380
0380
0380
0380
0380
0380
0380
0380
ENDCHAR
STARTCHAR 0373
ENCODING 883
SWIDTH 600 0
DWIDTH 16 0
BBX 16 21 0 -6
BITMAP
FFFF
7FFF
01C0
01C0
01C0
01C0
01C0
01C0
01C0
01C0
01C0
01C0
01C0
01C0
01C0
01C0
01C0
01C0
01C0
01C0
0100
ENDCHAR
STARTCHAR 0374
ENCODING 884
SWIDTH 600 0
DWIDTH 16 0
BBX 5 8 6 12
BITMAP
38
30
70
70
60
E0
C0
C0
ENDCHAR
STARTCHAR 0375
ENCODING 885
SWIDTH 600 0
DWIDTH 16 0
BBX 5 8 6 -5
BITMAP
18
30
30
70
60
E0
E0
C0
ENDCHAR
STARTCHAR 0376
ENCODING 886
SWIDTH 600 0
DWIDTH 16 0
BBX 12 19 2 0
BITMAP
E070
E0F0
E0F0
E0F0
E1B0
E1B0
E3B0
E330
E330
E630
E630
EE30
EC30
EC30
F830
D830
F830
F030
F030
ENDCHAR
STARTCHAR 0377
ENCODING 887
SWIDTH 600 0
DWIDTH 16 0
BBX 13 15 2 0
BITMAP
E0F0
E0F0
E1F0
E1F0
E3F0
E370
E770
E670
EE70
EC70
FC70
F870
F870
F078
F030
ENDCHAR
STARTCHAR 037A
ENCODING 890
SWIDTH 600 0
DWIDTH 16 0
BBX 6 4 5 -5
BITMAP
E0
E0
7C
78
ENDCHAR
STARTCHAR 037B
ENCODING 891
SWIDTH 600 0
DWIDTH 16 0
BBX 12 15 2 0
BITMAP
3F00
FFC0
61E0
00E0
0070
0070
0070
0070
0070
0070
0070
00E0
61E0
FFC0
3F00
ENDCHAR
STARTCHAR 037C
ENCODING 892
SWIDTH 600 0
DWIDTH 16 0
BBX 12 15 2 0
BITMAP
07C0
1FF0
3C70
7000
7000
6180
E380
E380
E380
6000
7000
7000
3C70
1FF0
0FC0
ENDCHAR
STARTCHAR 037D
ENCODING 893
SWIDTH 600 0
DWIDTH 16 0
BBX 12 15 2 0
BITMAP
3F00
FFC0
61E0
00E0
0070
0C70
1C70
1E70
1C70
0070
0070
00E0
61E0
FFC0
3F00
ENDCHAR
STARTCHAR 037E
ENCODING 894
SWIDTH 600 0
DWIDTH 16 0
BBX 5 20 6 -5
BITMAP
70
F8
F8
F8
70
00
00
00
00
00
70
F8
F8
F8
70
70
60
E0
E0
C0
ENDCHAR
STARTCHAR 037F
ENCODING 895
SWIDTH 600 0
DWIDTH 16 0
BBX 12 19 2 0
BITMAP
1FF0
1FF0
0070
0070
0070
0070
0070
0070
0070
0070
0070
0070
0070
0070
0060
00E0
E1E0
FFC0
3F00
ENDCHAR
STARTCHAR 0384
ENCODING 900
SWIDTH 600 0
DWIDTH 16 0
BBX 4 6 6 16
BITMAP
70
70
60
60
60
C0
ENDCHAR
STARTCHAR 0385
ENCODING 901
SWIDTH 600 0
DWIDTH 16 0
BBX 9 8 4 17
BITMAP
0E00
0C00
0C00
0C00
1800
C300
E780
C300
ENDCHAR
STARTCHAR 0386
ENCODING 902
SWIDTH 600 0
DWIDTH 16 0
BBX 16 19 0 0
BITMAP
3BC0
3BC0
33E0
7760
6660
2670
0E70
0E30
0C38
1C38
1C18
181C
3FFC
3FFC
300E
300E
700E
7007
E007
ENDCHAR
STARTCHAR 0387
ENCODING 903
SWIDTH 600 0
DWIDTH 16 0
BBX 5 5 6 7
BITMAP
70
F8
F8
F8
70
ENDCHAR
STARTCHAR 0388
ENCODING 904
SWIDTH 600 0
DWIDTH 16 0
BBX 15 19 -1 0
BITMAP
7FFE
EFFE
EE00
EE00
CE00
4E00
0E00
0E00
0FFC
0FFC
0E00
0E00
0E00
0E00
0E00
0E00
0E00
0FFE
0FFE
ENDCHAR
STARTCHAR 0389
ENCODING 905
SWIDTH 600 0
DWIDTH 16 0
BBX 16 19 -2 0
BITMAP
FE03
EE03
EE03
CE03
CE03
4E03
0E03
0E03
0FFF
0FFF
0E03
0E03
0E03
0E03
0E03
0E03
0E03
0E03
0E03
ENDCHAR
STARTCHAR 038A
ENCODING 906
SWIDTH 600 0
DWIDTH 16 0
BBX 16 19 -2 0
BITMAP
77FF
77FF
6070
E070
E070
4070
0070
0070
0070
0070
0070
0070
0070
0070
0070
0070
0070
07FF
07FF
ENDCHAR
STARTCHAR 038C
ENCODING 908
SWIDTH 600 0
DWIDTH 16 0
BBX 16 19 -1 0
BITMAP
F1F0
E7F8
EF1C
DC0E
DC06
5807
3807
3807
3807
3807
3807
3807
3807
1807
1C06
1C0E
0F1C
07F8
01F0
ENDCHAR
STARTCHAR 038E
ENCODING 910
SWIDTH 600 0
DWIDTH 16 0
BBX 20 19 -4 0
BITMAP
7F0070
7700E0
6380E0
6381C0
E1C1C0
41C380
00E300
006700
007600
003E00
003C00
001C00
001C00
001C00
001C00
001C00
001C00
001C00
001C00
ENDCHAR
STARTCHAR 038F
ENCODING 911
SWIDTH 600 0
DWIDTH 16 0
BBX 16 19 -1 0
BITMAP
F1F0
E7F8
EF1C
DC0E
DC06
5807
3807
3807
3807
3807
3807
3807
3807
1C07
1C06
0E0C
0618
3F3F
3F3F
ENDCHAR
STARTCHAR 0390
ENCODING 912
SWIDTH 600 0
DWIDTH 16 0
BBX 12 25 2 0
BITMAP
0300
0700
0700
0600
0600
30C0
79C0
30C0
0000
0000
FE00
FE00
0E00
0E00
0E00
0E00
0E00
0E00
0E00
0E00
0E00
0E00
0710
07F0
03F0
ENDCHAR
STARTCHAR 0391
ENCODING 913
SWIDTH 600 0
DWIDTH 16 0
BBX 16 19 0 0
BITMAP
03C0
03C0
03E0
0760
0660
0670
0E70
0E30
0C38
1C38
1C18
181C
3FFC
3FFC
300E
300E
700E
7007
E007
ENDCHAR
STARTCHAR 0392
ENCODING 914
SWIDTH 600 0
DWIDTH 16 0
BBX 13 19 2 0
BITMAP
FF80
FFE0
E0F0
E070
E070
E070
E070
E0E0
FFC0
FFC0
E0F0
E038
E038
E038
E038
E038
E0F0
FFE0
FF80
ENDCHAR
STARTCHAR 0393
ENCODING 915
SWIDTH 600 0
DWIDTH 16 0
BBX 11 19 4 0
BITMAP
FFE0
FFE0
C000
C000
C000
C000
C000
C000
C000
C000
C000
C000
C000
C000
C000
C000
C000
C000
C000
ENDCHAR
STARTCHAR 0394
ENCODING 916
SWIDTH 600 0
DWIDTH 16 0
BBX 16 19 0 0
BITMAP
03C0
03C0
03E0
07E0
0760
0670
0E70
0E30
0C38
1C38
1C18
181C
381C
381C
300E
300E
700E
7FFF
FFFF
ENDCHAR
STARTCHAR 0395
ENCODING 917
SWIDTH 600 0
DWIDTH 16 0
BBX 11 19 3 0
BITMAP
FFE0
FFE0
E000
E000
E000
E000
E000
E000
FFC0
FFC0
E000
E000
E000
E000
E000
E000
E000
FFE0
FFE0
ENDCHAR
STARTCHAR 0396
ENCODING 918
SWIDTH 600 0
DWIDTH 16 0
BBX 13 19 2 0
BITMAP
7FF8
7FF8
0070
0070
00E0
01C0
01C0
0380
0700
0700
0E00
1C00
1C00
3800
7000
7000
E000
FFF8
FFF0
ENDCHAR
STARTCHAR 0397
ENCODING 919
SWIDTH 600 0
DWIDTH 16 0
BBX 12 19 2 0
BITMAP
E030
E030
E030
E030
E030
E030
E030
E030
FFF0
FFF0
E030
E030
E030
E030
E030
E030
E030
E030
E030
ENDCHAR
STARTCHAR 0398
ENCODING 920
SWIDTH 600 0
DWIDTH 16 0
BBX 14 19 1 0
BITMAP
07C0
1FE0
3C70
7038
7018
601C
E01C
E01C
E7DC
E7DC
E01C
E01C
E01C
601C
7018
7038
3C70
1FE0
07C0
ENDCHAR
STARTCHAR 0399
ENCODING 921
SWIDTH 600 0
DWIDTH 16 0
BBX 11 19 3 0
BITMAP
FFE0
FFE0
0E00
0E00
0E00
0E00
0E00
0E00
0E00
0E00
0E00
0E00
0E00
0E00
0E00
0E00
0E00
FFE0
FFE0
ENDCHAR
STARTCHAR 039A
ENCODING 922
SWIDTH 600 0
DWIDTH 16 0
BBX 13 19 3 0
BITMAP
C078
C0E0
C0E0
C1C0
C380
C700
CE00
CE00
DC00
DC00
CE00
CF00
C700
C380
C1C0
C1E0
C0E0
C070
C078
ENDCHAR
STARTCHAR 039B
ENCODING 923
SWIDTH 600 0
DWIDTH 16 0
BBX 15 19 1 0
BITMAP
0780
0780
07C0
0FC0
0EC0
0CE0
1CE0
1C60
1870
3870
3870
3838
3038
7038
7018
601C
E01C
E00C
C00E
ENDCHAR
STARTCHAR 039C
ENCODING 924
SWIDTH 600 0
DWIDTH 16 0
BBX 15 19 1 0
BITMAP
703C
783C
787C
787C
787C
7C7C
EC7C
ECDC
ECCC
EECC
E6CC
E68C
E78C
E78C
C38C
C38C
C00E
C00E
C00E
ENDCHAR
STARTCHAR 039D
ENCODING 925
SWIDTH 600 0
DWIDTH 16 0
BBX 12 19 2 0
BITMAP
F030
F030
F830
D830
DC30
DC30
CC30
EE30
EE30
E630
E730
E330
E3B0
E3B0
E1B0
E1F0
E0F0
E0F0
E0F0
ENDCHAR
STARTCHAR 039E
ENCODING 926
SWIDTH 600 0
DWIDTH 16 0
BBX 12 19 2 0
BITMAP
FFF0
FFF0
0000
0000
0000
0000
0000
0000
7FE0
7FE0
0000
0000
0000
0000
0000
0000
0000
FFF0
FFF0
ENDCHAR
STARTCHAR 039F
ENCODING 927
SWIDTH 600 0
DWIDTH 16 0
BBX 14 19 1 0
BITMAP
07C0
1FE0
3C70
7038
7018
601C
E01C
E01C
E01C
E01C
E01C
E01C
E01C
601C
7018
7038
3C70
1FE0
07C0
ENDCHAR
STARTCHAR 03A0
ENCODING 928
SWIDTH 600 0
DWIDTH 16 0
BBX 12 19 2 0
BITMAP
FFF0
FFF0
E030
E030
E030
E030
E030
E030
E030
E030
E030
E030
E030
E030
E030
E030
E030
E030
E030
ENDCHAR
STARTCHAR 03A1
ENCODING 929
SWIDTH 600 0
DWIDTH 16 0
BBX 12 19 3 0
BITMAP
FF00
FFC0
E1E0
E070
E070
E070
E070
E070
E070
E1E0
FFC0
FF00
E000
E000
E000
E000
E000
E000
E000
ENDCHAR
STARTCHAR 03A3
ENCODING 931
SWIDTH 600 0
DWIDTH 16 0
BBX 13 19 2 0
BITMAP
FFF8
FFF8
E000
7000
3800
1C00
0E00
0700
0380
0180
0380
0700
0E00
1C00
3800
7000
E000
FFF8
FFF8
ENDCHAR
STARTCHAR 03A4
ENCODING 932
SWIDTH 600 0
DWIDTH 16 0
BBX 14 19 1 0
BITMAP
FFFC
FFFC
0380
0380
0380
0380
0380
0380
0380
0380
0380
0380
0380
0380
0380
0380
0380
0380
0380
ENDCHAR
STARTCHAR 03A5
ENCODING 933
SWIDTH 600 0
DWIDTH 16 0
BBX 16 19 0 0
BITMAP
F007
700E
380E
381C
1C1C
1C38
0E30
0670
0760
03E0
03C0
01C0
01C0
01C0
01C0
01C0
01C0
01C0
01C0
ENDCHAR
STARTCHAR 03A6
ENCODING 934
SWIDTH 600 0
DWIDTH 16 0
BBX 16 19 0 0
BITMAP
0180
0180
0FF0
3FFC
799E
7186
6187
E187
E187
E187
E187
E187
6187
7186
399E
3FFC
0FF0
0180
0180
ENDCHAR
STARTCHAR 03A7
ENCODING 935
SWIDTH 600 0
DWIDTH 16 0
BBX 15 19 1 0
BITMAP
F01C
7038
3838
3870
1C60
1CE0
0EC0
07C0
0780
0780
07C0
0EC0
1CE0
1C70
3870
3838
7038
601C
E01E
ENDCHAR
STARTCHAR 03A8
ENCODING 936
SWIDTH 600 0
DWIDTH 16 0
BBX 16 19 0 0
BITMAP
E1C7
E1C7
E1C7
E1C7
E1C7
E1C7
E1C7
E1C7
E1C7
61C7
71CE
3DFE
1FFC
07E0
01C0
01C0
01C0
01C0
01C0
ENDCHAR
STARTCHAR 03A9
ENCODING 937
SWIDTH 600 0
DWIDTH 16 0
BBX 14 19 1 0
BITMAP
07C0
1FE0
3C70
7038
7018
601C
E01C
E01C
E01C
E01C
E01C
E01C
E01C
701C
7018
3830
1860
FCFC
FCFC
ENDCHAR
STARTCHAR 03AA
ENCODING 938
SWIDTH 600 0
DWIDTH 16 0
BBX 11 24 3 0
BITMAP
6180
73C0
7180
0000
0000
FFE0
FFE0
0E00
0E00
0E00
0E00
0E00
0E00
0E00
0E00
0E00
0E00
0E00
0E00
0E00
0E00
0E00
FFE0
FFE0
ENDCHAR
STARTCHAR 03AB
ENCODING 939
SWIDTH 600 0
DWIDTH 16 0
BBX 16 24 0 0
BITMAP
0E30
0E38
0E30
0000
0000
F007
700E
380E
381C
1C1C
1C38
0E30
0670
0760
03E0
03C0
01C0
01C0
01C0
01C0
01C0
01C0
01C0
01C0
ENDCHAR
STARTCHAR 03AC
ENCODING 940
SWIDTH 600 0
DWIDTH 16 0
BBX 14 22 1 0
BITMAP
0180
0380
0380
0300
0300
0300
0000
0F1C
3F98
39D8
7058
7078
6070
6030
E030
E070
6070
7078
70F8
79D8
3F9C
1F08
ENDCHAR
STARTCHAR 03AD
ENCODING 941
SWIDTH 600 0
DWIDTH 16 0
BBX 13 22 2 0
BITMAP
0180
0380
0380
0300
0300
0300
0000
1FC0
3FF0
7860
7000
7000
7000
1F80
3F80
7000
E000
E000
E010
7878
3FF0
1FC0
ENDCHAR
STARTCHAR 03AE
ENCODING 942
SWIDTH 600 0
DWIDTH 16 0
BBX 12 28 2 -6
BITMAP
0380
0380
0300
0300
0700
0200
0000
E3C0
EFE0
F8F0
7070
6070
6070
6070
6070
6070
6070
6070
6070
6070
6070
6070
0070
0070
0070
0070
0070
0070
ENDCHAR
STARTCHAR 03AF
ENCODING 943
SWIDTH 600 0
DWIDTH 16 0
BBX 12 22 2 0
BITMAP
0380
0300
0700
0700
0600
0600
0000
FE00
FE00
0E00
0E00
0E00
0E00
0E00
0E00
0E00
0E00
0E00
0E00
0710
07F0
03F0
ENDCHAR
STARTCHAR 03B0
ENCODING 944
SWIDTH 600 0
DWIDTH 16 0
BBX 11 25 3 0
BITMAP
0700
0600
0600
0600
0C00
6180
73C0
6180
0000
0000
C0E0
C0E0
C0E0
C060
C060
C060
C060
C060
C060
C060
C0E0
E0E0
E3C0
7F80
3E00
ENDCHAR
STARTCHAR 03B1
ENCODING 945
SWIDTH 600 0
DWIDTH 16 0
BBX 14 15 1 0
BITMAP
0F1C
3F98
39D8
7058
7078
6070
6030
E030
E070
6070
7078
70F8
79D8
3F9C
1F08
ENDCHAR
STARTCHAR 03B2
ENCODING 946
SWIDTH 600 0
DWIDTH 16 0
BBX 13 27 2 -6
BITMAP
1F80
3FC0
70E0
6060
E070
E070
E060
E060
E1C0
E700
EFC0
E0F0
E030
E038
E038
E038
E038
E038
F0F0
FFE0
EFC0
E000
E000
E000
E000
E000
8000
ENDCHAR
STARTCHAR 03B3
ENCODING 947
SWIDTH 600 0
DWIDTH 16 0
BBX 14 21 1 -6
BITMAP
2008
F01C
701C
3838
3838
1830
1C70
0C70
0C60
0EE0
06C0
07C0
0780
0380
0300
0300
0700
0700
0700
0300
0300
ENDCHAR
STARTCHAR 03B4
ENCODING 948
SWIDTH 600 0
DWIDTH 16 0
BBX 13 21 2 0
BITMAP
0F80
3FE0
38E0
7020
7000
3800
3E00
0F80
1FE0
70F0
6070
E038
E038
E038
E038
E038
E030
E070
78E0
3FE0
1F80
ENDCHAR
STARTCHAR 03B5
ENCODING 949
SWIDTH 600 0
DWIDTH 16 0
BBX 13 15 2 0
BITMAP
1FC0
3FF0
7860
7000
7000
7000
1F80
3F80
7000
E000
E000
E010
7878
3FF0
1FC0
ENDCHAR
STARTCHAR 03B6
ENCODING 950
SWIDTH 600 0
DWIDTH 16 0
BBX 12 27 3 -6
BITMAP
7FE0
7FF0
00E0
01C0
0380
0F00
1C00
3C00
3800
7000
7000
E000
E000
E000
E000
E000
7000
7C00
3F80
0FC0
01E0
0060
0060
00E0
01C0
0380
0100
ENDCHAR
STARTCHAR 03B7
ENCODING 951
SWIDTH 600 0
DWIDTH 16 0
BBX 12 21 2 -6
BITMAP
E3C0
EFE0
F8F0
7070
6070
6070
6070
6070
6070
6070
6070
6070
6070
6070
6070
0070
0070
0070
0070
0070
0070
ENDCHAR
STARTCHAR 03B8
ENCODING 952
SWIDTH 600 0
DWIDTH 16 0
BBX 13 21 2 0
BITMAP
0F80
3FC0
38E0
7060
6070
E070
E030
E030
E030
FFF8
FFF8
E038
E030
E030
E030
E070
6070
7060
39E0
3FC0
0F00
ENDCHAR
STARTCHAR 03B9
ENCODING 953
SWIDTH 600 0
DWIDTH 16 0
BBX 12 15 2 0
BITMAP
FE00
FE00
0E00
0E00
0E00
0E00
0E00
0E00
0E00
0E00
0E00
0E00
0710
07F0
03F0
ENDCHAR
STARTCHAR 03BA
ENCODING 954
SWIDTH 600 0
DWIDTH 16 0
BBX 13 15 2 0
BITMAP
E030
6078
60E0
61C0
6380
7700
7E00
7E00
7700
7380
71C0
71E0
70F0
7078
7038
ENDCHAR
STARTCHAR 03BB
ENCODING 955
SWIDTH 600 0
DWIDTH 16 0
BBX 14 21 1 0
BITMAP
3800
3E00
0F00
0700
0380
0380
0780
0780
07C0
0FC0
0CC0
1CE0
1CE0
18E0
3860
3870
3070
7038
7038
601C
E018
ENDCHAR
STARTCHAR 03BC
ENCODING 956
SWIDTH 600 0
DWIDTH 16 0
BBX 12 21 2 -6
BITMAP
E060
E060
E060
E060
E060
E060
E060
E060
E060
E060
E060
E0E0
F1F0
FFF0
FE70
E000
E000
E000
E000
E000
8000
ENDCHAR
STARTCHAR 03BD
ENCODING 957
SWIDTH 600 0
DWIDTH 16 0
BBX 14 15 1 0
BITMAP
601C
E01C
7018
3038
3838
3830
1870
1C60
0C60
0CE0
0EC0
0FC0
0780
0780
0780
ENDCHAR
STARTCHAR 03BE
ENCODING 958
SWIDTH 600 0
DWIDTH 16 0
BBX 12 27 3 -6
BITMAP
0FC0
3FF0
7870
7000
6000
6000
7000
3800
1FC0
3FC0
7000
E000
E000
C000
C000
E000
E000
7800
3F00
0FC0
03F0
0070
0070
0070
00E0
01E0
0180
ENDCHAR
STARTCHAR 03BF
ENCODING 959
SWIDTH 600 0
DWIDTH 16 0
BBX 13 15 2 0
BITMAP
0F80
3FC0
78E0
7070
E070
E030
E030
E038
E038
E030
E070
7070
78E0
3FC0
1F80
ENDCHAR
STARTCHAR 03C0
ENCODING 960
SWIDTH 600 0
DWIDTH 16 0
BBX 15 15 0 0
BITMAP
FFFE
FFFE
9C38
1C38
1C38
1C38
1C38
1C38
1C38
1C38
1C38
1C38
1C18
1C1C
1C0C
ENDCHAR
STARTCHAR 03C1
ENCODING 961
SWIDTH 600 0
DWIDTH 16 0
BBX 13 21 2 -6
BITMAP
0F80
3FE0
38E0
7070
6070
6030
E030
E038
E030
E030
E070
E070
F8E0
FFE0
E780
E000
E000
E000
E000
E000
8000
ENDCHAR
STARTCHAR 03C2
ENCODING 962
SWIDTH 600 0
DWIDTH 16 0
BBX 12 21 3 -6
BITMAP
0FC0
3FF0
7860
7000
E000
E000
E000
C000
E000
E000
F000
7800
3F00
0FC0
03E0
00E0
00E0
00E0
01C0
0380
0300
ENDCHAR
STARTCHAR 03C3
ENCODING 963
SWIDTH 600 0
DWIDTH 16 0
BBX 13 15 2 0
BITMAP
0FF8
3FF8
78E0
7060
E070
E030
E030
E038
E030
E030
E070
7070
78E0
3FC0
0F80
ENDCHAR
STARTCHAR 03C4
ENCODING 964
SWIDTH 600 0
DWIDTH 16 0
BBX 13 15 1 0
BITMAP
FFF8
FFF8
8700
0700
0700
0700
0700
0700
0700
0700
0700
0700
0788
03F8
01F0
ENDCHAR
STARTCHAR 03C5
ENCODING 965
SWIDTH 600 0
DWIDTH 16 0
BBX 11 15 3 0
BITMAP
C0E0
C0E0
C0E0
C060
C060
C060
C060
C060
C060
C060
C0E0
E0E0
E3C0
7F80
3E00
ENDCHAR
STARTCHAR 03C6
ENCODING 966
SWIDTH 600 0
DWIDTH 16 0
BBX 15 21 1 -6
BITMAP
70F0
61F8
639C
E30C
E30C
E30C
C30E
C30E
C30E
C30C
E30C
E31C
7318
7FF8
1FE0
0300
0300
0300
0300
0300
0300
ENDCHAR
STARTCHAR 03C7
ENCODING 967
SWIDTH 600 0
DWIDTH 16 0
BBX 14 21 1 -6
BITMAP
2014
F018
3838
3830
1C70
0C60
0EE0
06C0
07C0
0380
0380
07C0
06C0
0EE0
0C60
1C70
3830
3838
7038
701C
E018
ENDCHAR
STARTCHAR 03C8
ENCODING 968
SWIDTH 600 0
DWIDTH 16 0
BBX 15 21 1 -6
BITMAP
E31C
E30C
E30C
E30C
E30C
E30E
E30E
E30E
E30E
E30C
E30C
E31C
7B38
3FF0
0FC0
0300
0300
0300
0300
0300
0200
ENDCHAR
STARTCHAR 03C9
ENCODING 969
SWIDTH 600 0
DWIDTH 16 0
BBX 15 15 1 0
BITMAP
601C
601C
E00C
E00C
C08C
C30E
C30E
C30E
C30E
C30E
C38E
E38C
E79C
7EF8
3C70
ENDCHAR
STARTCHAR 03CA
ENCODING 970
SWIDTH 600 0
DWIDTH 16 0
BBX 12 21 2 0
BITMAP
31C0
79C0
31C0
0000
0000
0000
FE00
FE00
0E00
0E00
0E00
0E00
0E00
0E00
0E00
0E00
0E00
0E00
0710
07F0
03F0
ENDCHAR
STARTCHAR 03CB
ENCODING 971
SWIDTH 600 0
DWIDTH 16 0
BBX 11 21 3 0
BITMAP
6180
73C0
7180
0000
0000
0000
C0E0
C0E0
C0E0
C060
C060
C060
C060
C060
C060
C060
C0E0
E0E0
E3C0
7F80
3E00
ENDCHAR
STARTCHAR 03CC
ENCODING 972
SWIDTH 600 0
DWIDTH 16 0
BBX 13 22 2 0
BITMAP
0380
0380
0300
0300
0700
0200
0000
0F80
3FC0
78E0
7070
E070
E030
E030
E038
E038
E030
E070
7070
78E0
3FC0
1F80
ENDCHAR
STARTCHAR 03CD
ENCODING 973
SWIDTH 600 0
DWIDTH 16 0
BBX 11 22 3 0
BITMAP
0700
0700
0600
0600
0E00
0400
0000
C0E0
C0E0
C0E0
C060
C060
C060
C060
C060
C060
C060
C0E0
E0E0
E3C0
7F80
3E00
ENDCHAR
STARTCHAR 03CE
ENCODING 974
SWIDTH 600 0
DWIDTH 16 0
BBX 15 22 1 0
BITMAP
01C0
01C0
0180
0180
0380
0100
0000
601C
601C
E00C
E00C
C08C
C30E
C30E
C30E
C30E
C30E
C38E
E38C
E79C
7EF8
3C70
ENDCHAR
STARTCHAR 03CF
ENCODING 975
SWIDTH 600 0
DWIDTH 16 0
BBX 13 25 3 -6
BITMAP
C0F0
C0E0
C1C0
C380
C380
C700
CE00
DC00
FC00
DC00
DE00
CE00
C700
C780
C380
C1C0
C1E0
C0F8
C078
0038
0038
0038
0270
07F0
03E0
ENDCHAR
STARTCHAR 03D0
ENCODING 976
SWIDTH 600 0
DWIDTH 16 0
BBX 12 21 2 0
BITMAP
07C0
0FE0
1CE0
3860
7060
70E0
61C0
E300
FFC0
FFE0
F0F0
E070
E070
E030
E030
E070
6070
7070
78E0
3FC0
0F80
ENDCHAR
STARTCHAR 03D1
ENCODING 977
SWIDTH 600 0
DWIDTH 16 0
BBX 13 21 2 0
BITMAP
1F00
7F80
71C0
E0E0
E0E0
E060
F070
7FF8
1FF8
0070
0070
6070
6070
6060
6060
60E0
60E0
60C0
71C0
3F80
1F00
ENDCHAR
STARTCHAR 03D2
ENCODING 978
SWIDTH 600 0
DWIDTH 16 0
BBX 15 19 1 0
BITMAP
E00E
701E
7038
3030
3870
1860
1CE0
0CE0
0EC0
07C0
0780
0780
0300
0300
0300
0300
0300
0300
0300
ENDCHAR
STARTCHAR 03D3
ENCODING 979
SWIDTH 600 0
DWIDTH 16 0
BBX 19 19 -3 0
BITMAP
FE00E0
E701E0
E70380
C30300
C38700
418600
01CE00
00CE00
00EC00
007C00
007800
007800
003000
003000
003000
003000
003000
003000
003000
ENDCHAR
STARTCHAR 03D4
ENCODING 980
SWIDTH 600 0
DWIDTH 16 0
BBX 15 24 1 0
BITMAP
1C60
1C70
1C60
0000
0000
E00E
701E
7038
3030
3870
1860
1CE0
0CE0
0EC0
07C0
0780
0780
0300
0300
0300
0300
0300
0300
0300
ENDCHAR
STARTCHAR 03D5
ENCODING 981
SWIDTH 600 0
DWIDTH 16 0
BBX 14 27 1 -6
BITMAP
0300
0300
0300
0300
0300
0300
0FE0
3FF0
7338
731C
E31C
E30C
E30C
E30C
E30C
E31C
E31C
731C
7B38
3FF0
1FE0
0300
0300
0300
0300
0300
0300
ENDCHAR
STARTCHAR 03D6
ENCODING 982
SWIDTH 600 0
DWIDTH 16 0
BBX 16 15 0 0
BITMAP
FFFF
FFFF
3006
3006
7006
71C6
71C7
71C7
71C7
71C7
71C6
71C6
33CE
3F7C
1E38
ENDCHAR
STARTCHAR 03D7
ENCODING 983
SWIDTH 600 0
DWIDTH 16 0
BBX 13 21 2 -6
BITMAP
C040
E0F0
E0F0
61F0
71F0
63F0
6370
6770
6670
6E70
6C70
7870
7870
7078
7038
0038
0038
0038
0278
07F0
03E0
ENDCHAR
STARTCHAR 03D8
ENCODING 984
SWIDTH 600 0
DWIDTH 16 0
BBX 14 25 1 -6
BITMAP
07C0
1FE0
3C70
7038
7018
601C
E01C
E01C
E01C
E01C
E01C
E01C
E01C
601C
701C
7038
3878
1FF0
0FE0
0380
0380
0380
0380
0380
0380
ENDCHAR
STARTCHAR 03D9
ENCODING 985
SWIDTH 600 0
DWIDTH 16 0
BBX 13 21 2 -6
BITMAP
0F80
3FC0
78E0
7070
E070
E030
E030
E038
E038
E030
E070
6070
70E0
3FE0
1F80
0700
0700
0700
0700
0700
0600
ENDCHAR
STARTCHAR 03DA
ENCODING 986
SWIDTH 600 0
DWIDTH 16 0
BBX 13 25 2 -6
BITMAP
07F8
1FF8
3E00
7800
7000
E000
E000
E000
E000
E000
E000
E000
E000
7000
7800
3E00
0F80
07E0
00F0
0070
0070
0070
00E0
01C0
0080
ENDCHAR
STARTCHAR 03DB
ENCODING 987
SWIDTH 600 0
DWIDTH 16 0
BBX 12 22 2 -6
BITMAP
0070
0070
01E0
0FE0
3F80
7800
E000
E000
E000
E000
E000
E000
7800
3F00
1FC0
03E0
00F0
0070
0070
00E0
03C0
0100
ENDCHAR
STARTCHAR 03DC
ENCODING 988
SWIDTH 600 0
DWIDTH 16 0
BBX 12 19 3 0
BITMAP
FFF0
FFF0
E000
E000
E000
E000
E000
E000
FFC0
FFC0
E040
E000
E000
E000
E000
E000
E000
E000
E000
ENDCHAR
STARTCHAR 03DD
ENCODING 989
SWIDTH 600 0
DWIDTH 16 0
BBX 11 20 3 -5
BITMAP
3FE0
7FE0
7000
E000
E000
E000
E000
E000
FFC0
FFC0
E040
E000
E000
E000
E000
E000
E000
E000
E000
E000
ENDCHAR
STARTCHAR 03DE
ENCODING 990
SWIDTH 600 0
DWIDTH 16 0
BBX 13 19 2 0
BITMAP
0380
0700
0E00
1C00
3C00
3800
7000
E000
FFF0
FFF0
0078
0070
00E0
01C0
01C0
0380
0700
0F00
1E00
ENDCHAR
STARTCHAR 03DF
ENCODING 991
SWIDTH 600 0
DWIDTH 16 0
BBX 12 21 2 0
BITMAP
0400
0600
0E00
0E00
0C00
1C00
1800
3800
3030
71F0
7FF0
FF70
70E0
00E0
01C0
01C0
0380
0380
0700
0700
0700
ENDCHAR
STARTCHAR 03E0
ENCODING 992
SWIDTH 600 0
DWIDTH 16 0
BBX 15 19 1 0
BITMAP
0700
0300
0380
0380
0780
07C0
06C0
0EC0
0CE0
1CE0
18F0
19F0
39B0
31B8
7318
7318
631C
E70C
E60E
ENDCHAR
STARTCHAR 03E1
ENCODING 993
SWIDTH 600 0
DWIDTH 16 0
BBX 13 27 1 -6
BITMAP
4000
7000
3C00
1E00
0700
0380
01C0
03C0
03E0
0770
0670
0E70
0C78
1C78
18F8
38D8
3198
7198
7398
E318
E718
0018
0038
0038
0038
0030
0030
ENDCHAR
STARTCHAR 03F0
ENCODING 1008
SWIDTH 600 0
DWIDTH 16 0
BBX 13 15 2 0
BITMAP
8040
E0F0
E0F0
61F0
71F0
63F0
6370
6770
6670
6E70
6C70
7870
7870
7078
7030
ENDCHAR
STARTCHAR 03F1
ENCODING 1009
SWIDTH 600 0
DWIDTH 16 0
BBX 13 21 2 -6
BITMAP
0F80
3FE0
38E0
7070
6070
6030
E038
E030
E030
E070
E070
F0E0
FFE0
EF80
E000
6000
7000
7E00
3FC0
03E0
0080
ENDCHAR
STARTCHAR 03F2
ENCODING 1010
SWIDTH 600 0
DWIDTH 16 0
BBX 12 15 2 0
BITMAP
07C0
1FF0
3C70
7000
7000
6000
E000
E000
E000
6000
7000
7000
3C70
1FF0
0FC0
ENDCHAR
STARTCHAR 03F3
ENCODING 1011
SWIDTH 600 0
DWIDTH 16 0
BBX 10 28 2 -6
BITMAP
0180
03C0
03C0
0180
0000
0000
0000
3FC0
3FC0
00C0
00C0
00C0
00C0
00C0
00C0
00C0
00C0
00C0
00C0
00C0
00C0
01C0
01C0
0380
0F00
FE00
7800
4000
ENDCHAR
STARTCHAR 03F4
ENCODING 1012
SWIDTH 600 0
DWIDTH 16 0
BBX 14 19 1 0
BITMAP
07C0
1FE0
3870
7038
7018
601C
E01C
E01C
FFFC
FFFC
E01C
E01C
E01C
601C
7018
7038
3C70
1FE0
07C0
ENDCHAR
STARTCHAR 03F5
ENCODING 1013
SWIDTH 600 0
DWIDTH 16 0
BBX 12 15 2 0
BITMAP
07C0
1FF0
3C70
7000
7000
6000
FFC0
FFC0
E000
6000
7000
7000
3C70
1FF0
0FC0
ENDCHAR
STARTCHAR 03F6
ENCODING 1014
SWIDTH 600 0
DWIDTH 16 0
BBX 12 15 2 0
BITMAP
1F80
7FC0
61E0
0060
0070
0070
1FF0
1FF0
0070
0070
0070
00E0
61E0
FFC0
1F00
ENDCHAR
STARTCHAR 03F7
ENCODING 1015
SWIDTH 600 0
DWIDTH 16 0
BBX 12 19 3 0
BITMAP
C000
C000
C000
FF00
FFC0
C1E0
C070
C070
C070
C070
C070
C070
C0E0
FFC0
FF80
C000
C000
C000
C000
ENDCHAR
STARTCHAR 03F8
ENCODING 1016
SWIDTH 600 0
DWIDTH 16 0
BBX 12 27 3 -6
BITMAP
C000
C000
C000
C000
C000
C000
CF80
DFC0
F1E0
E0E0
C0E0
C060
C070
C070
C070
C060
C0E0
C0E0
F1C0
FFC0
CF00
C000
C000
C000
C000
C000
8000
ENDCHAR
STARTCHAR 03F9
ENCODING 1017
SWIDTH 600 0
DWIDTH 16 0
BBX 14 19 2 0
BITMAP
07E0
1FF8
3C38
7010
7000
E000
E000
E000
C000
C000
C000
E000
E000
E000
7000
7008
3C38
1FFC
07E0
ENDCHAR
STARTCHAR 03FA
ENCODING 1018
SWIDTH 600 0
DWIDTH 16 0
BBX 15 19 1 0
BITMAP
703C
783C
787C
787C
787C
7C7C
EC7C
ECDC
ECCC
EECC
E6CC
E68C
E78C
E78C
C38C
C38C
C00E
C00E
C00E
ENDCHAR
STARTCHAR 03FB
ENCODING 1019
SWIDTH 600 0
DWIDTH 16 0
BBX 15 20 0 -5
BITMAP
3C1C
3C3C
3C3C
3C3C
363E
366E
366E
366E
736E
73CE
73C6
73C6
7186
6006
6006
6000
6000
6000
6000
E000
ENDCHAR
STARTCHAR 03FC
ENCODING 1020
SWIDTH 600 0
DWIDTH 16 0
BBX 14 20 1 -5
BITMAP
03E0
0FF0
1E38
1C1C
181C
381C
381C
380C
381C
381C
381C
381C
3C38
3FF0
3BE0
3800
FF80
FF80
3800
3800
ENDCHAR
STARTCHAR 03FD
ENCODING 1021
SWIDTH 600 0
DWIDTH 16 0
BBX 14 19 1 0
BITMAP
1F80
FFE0
70F0
4070
0038
0038
001C
001C
001C
001C
001C
001C
001C
0038
0038
4070
E0E0
FFC0
3F80
ENDCHAR
STARTCHAR 03FE
ENCODING 1022
SWIDTH 600 0
DWIDTH 16 0
BBX 14 19 2 0
BITMAP
07E0
1FF8
3C38
7010
7000
E000
E000
E180
C3C0
C3C0
C180
E000
E000
E000
7000
7008
3C38
1FFC
07E0
ENDCHAR
STARTCHAR 03FF
ENCODING 1023
SWIDTH 600 0
DWIDTH 16 0
BBX 14 19 1 0
BITMAP
1F80
FFE0
70F0
4070
0038
0038
001C
0E1C
0E1C
0E1C
0E1C
001C
001C
0038
0038
4070
E0E0
FFC0
3F80
ENDCHAR
STARTCHAR 0400
ENCODING 1024
SWIDTH 600 0
DWIDTH 16 0
BBX 11 25 3 0
BITMAP
1800
1E00
1F00
0380
0000
0000
FFE0
FFE0
E000
E000
E000
E000
E000
E000
FFC0
FFC0
E000
E000
E000
E000
E000
E000
E000
FFE0
FFE0
ENDCHAR
STARTCHAR 0401
ENCODING 1025
SWIDTH 600 0
DWIDTH 16 0
BBX 11 24 3 0
BITMAP
31C0
79C0
31C0
0000
0000
FFE0
FFE0
E000
E000
E000
E000
E000
E000
FFC0
FFC0
E000
E000
E000
E000
E000
E000
E000
FFE0
FFE0
ENDCHAR
STARTCHAR 0402
ENCODING 1026
SWIDTH 600 0
DWIDTH 16 0
BBX 16 23 0 -4
BITMAP
FFE0
FFE0
0E00
0E00
0E00
0E00
0E00
0EF8
0FFE
0F0E
0E06
0E07
0E07
0E07
0E07
0E07
0E07
0E07
0E06
000E
001C
0038
0010
ENDCHAR
STARTCHAR 0403
ENCODING 1027
SWIDTH 600 0
DWIDTH 16 0
BBX 11 25 4 0
BITMAP
0100
0780
1F00
3800
0000
0000
FFE0
FFE0
C000
C000
C000
C000
C000
C000
C000
C000
C000
C000
C000
C000
C000
C000
C000
C000
C000
ENDCHAR
STARTCHAR 0404
ENCODING 1028
SWIDTH 600 0
DWIDTH 16 0
BBX 15 19 1 0
BITMAP
03F0
0FFC
1E1C
3800
7000
7000
7000
6000
FFE0
FFE0
E000
6000
7000
7000
7000
3804
1E1E
0FFC
03F0
ENDCHAR
STARTCHAR 0405
ENCODING 1029
SWIDTH 600 0
DWIDTH 16 0
BBX 14 19 1 0
BITMAP
0FC0
3FF0
3878
7010
7000
7000
7800
3E00
1FC0
07F0
00F8
0038
001C
001C
001C
4038
F078
7FF0
1FC0
ENDCHAR
STARTCHAR 0406
ENCODING 1030
SWIDTH 600 0
DWIDTH 16 0
BBX 11 19 3 0
BITMAP
FFE0
FFE0
0E00
0E00
0E00
0E00
0E00
0E00
0E00
0E00
0E00
0E00
0E00
0E00
0E00
0E00
0E00
FFE0
FFE0
ENDCHAR
STARTCHAR 0407
ENCODING 1031
SWIDTH 600 0
DWIDTH 16 0
BBX 11 24 3 0
BITMAP
6180
73C0
7180
0000
0000
FFE0
FFE0
0E00
0E00
0E00
0E00
0E00
0E00
0E00
0E00
0E00
0E00
0E00
0E00
0E00
0E00
0E00
FFE0
FFE0
ENDCHAR
STARTCHAR 0408
ENCODING 1032
SWIDTH 600 0
DWIDTH 16 0
BBX 12 19 2 0
BITMAP
1FF0
1FF0
0070
0070
0070
0070
0070
0070
0070
0070
0070
0070
0070
0070
0060
00E0
E1E0
FFC0
3F00
ENDCHAR
STARTCHAR 0409
ENCODING 1033
SWIDTH 600 0
DWIDTH 16 0
BBX 16 19 0 0
BITMAP
3FC0
3FC0
39C0
39C0
39C0
39C0
39C0
31F8
31FE
31CF
31C7
31C3
31C3
71C3
71C3
71C7
61CF
E1FE
41F8
ENDCHAR
STARTCHAR 040A
ENCODING 1034
SWIDTH 600 0
DWIDTH 16 0
BBX 15 19 1 0
BITMAP
E380
E380
E380
E380
E380
E380
E380
FFF0
FFFC
E39E
E38E
E386
E386
E386
E386
E38E
E39E
E3FC
E3F0
ENDCHAR
STARTCHAR 040B
ENCODING 1035
SWIDTH 600 0
DWIDTH 16 0
BBX 16 19 0 0
BITMAP
FFE0
FFE0
0E00
0E00
0E00
0E00
0E00
0EF8
0FFE
0F0E
0E06
0E07
0E07
0E07
0E07
0E07
0E07
0E07
0E07
ENDCHAR
STARTCHAR 040C
ENCODING 1036
SWIDTH 600 0
DWIDTH 16 0
BBX 14 25 2 0
BITMAP
0080
03C0
1F80
0E00
0000
0000
E03C
E038
E070
E0E0
E0E0
E1C0
E380
E300
FF00
FF00
E380
E380
E1C0
E1E0
E0E0
E070
E078
E038
E01C
ENDCHAR
STARTCHAR 040D
ENCODING 1037
SWIDTH 600 0
DWIDTH 16 0
BBX 12 25 2 0
BITMAP
0800
1E00
0F80
0380
0000
0000
E070
E0F0
E0F0
E0F0
E1B0
E1B0
E3B0
E330
E330
E630
E630
EE30
EC30
EC30
F830
D830
F830
F030
F030
ENDCHAR
STARTCHAR 040E
ENCODING 1038
SWIDTH 600 0
DWIDTH 16 0
BBX 15 26 1 -1
BITMAP
1830
0C60
0FE0
07C0
0000
0000
E00E
E00C
601C
701C
3038
3838
3830
1C70
1C70
0C60
0EE0
06C0
07C0
03C0
0380
0380
0700
3E00
3C00
2000
ENDCHAR
STARTCHAR 040F
ENCODING 1039
SWIDTH 600 0
DWIDTH 16 0
BBX 12 23 2 -4
BITMAP
E030
E030
E030
E030
E030
E030
E030
E030
E030
E030
E030
E030
E030
E030
E030
E030
E030
FFF0
FFF0
0600
0600
0600
0600
ENDCHAR
STARTCHAR 0410
ENCODING 1040
SWIDTH 600 0
DWIDTH 16 0
BBX 16 19 0 0
BITMAP
03C0
03C0
03E0
0760
0660
0670
0E70
0E30
0C38
1C38
1C18
181C
3FFC
3FFC
300E
300E
700E
7007
E007
ENDCHAR
STARTCHAR 0411
ENCODING 1041
SWIDTH 600 0
DWIDTH 16 0
BBX 12 19 3 0
BITMAP
FFC0
FFC0
C000
C000
C000
C000
C000
FF00
FFC0
C1E0
C0F0
C070
C070
C070
C070
C0F0
C1E0
FFC0
FF00
ENDCHAR
STARTCHAR 0412
ENCODING 1042
SWIDTH 600 0
DWIDTH 16 0
BBX 13 19 2 0
BITMAP
FF80
FFE0
E0F0
E070
E070
E070
E070
E0E0
FFC0
FFC0
E0F0
E038
E038
E038
E038
E038
E0F0
FFE0
FF80
ENDCHAR
STARTCHAR 0413
ENCODING 1043
SWIDTH 600 0
DWIDTH 16 0
BBX 11 19 4 0
BITMAP
FFE0
FFE0
C000
C000
C000
C000
C000
C000
C000
C000
C000
C000
C000
C000
C000
C000
C000
C000
C000
ENDCHAR
STARTCHAR 0414
ENCODING 1044
SWIDTH 600 0
DWIDTH 16 0
BBX 16 23 0 -4
BITMAP
0FFC
0FFC
0E1C
0E1C
0E1C
0C1C
0C1C
0C1C
1C1C
1C1C
1C1C
1C1C
1C1C
181C
381C
381C
701C
FFFF
FFFF
C007
C007
C007
C007
ENDCHAR
STARTCHAR 0415
ENCODING 1045
SWIDTH 600 0
DWIDTH 16 0
BBX 11 19 3 0
BITMAP
FFE0
FFE0
E000
E000
E000
E000
E000
E000
FFC0
FFC0
E000
E000
E000
E000
E000
E000
E000
FFE0
FFE0
ENDCHAR
STARTCHAR 0416
ENCODING 1046
SWIDTH 600 0
DWIDTH 16 0
BBX 16 19 0 0
BITMAP
6187
7186
718E
318E
398C
398C
199C
1998
1FF8
1FF8
1998
199C
398C
318C
318E
718E
7186
6187
E187
ENDCHAR
STARTCHAR 0417
ENCODING 1047
SWIDTH 600 0
DWIDTH 16 0
BBX 14 19 1 0
BITMAP
1FC0
7FF0
F078
4038
0038
0038
0070
0FE0
1FE0
0078
0038
001C
001C
001C
001C
4038
F078
7FF0
1FC0
ENDCHAR
STARTCHAR 0418
ENCODING 1048
SWIDTH 600 0
DWIDTH 16 0
BBX 12 19 2 0
BITMAP
E070
E0F0
E0F0
E0F0
E1B0
E1B0
E3B0
E330
E330
E630
E630
EE30
EC30
EC30
F830
D830
F830
F030
F030
ENDCHAR
STARTCHAR 0419
ENCODING 1049
SWIDTH 600 0
DWIDTH 16 0
BBX 12 24 2 0
BITMAP
1080
30C0
1FC0
0F80
0000
E070
E0F0
E0F0
E0F0
E1B0
E1B0
E3B0
E330
E330
E630
E630
EE30
EC30
EC30
F830
D830
F830
F030
F030
ENDCHAR
STARTCHAR 041A
ENCODING 1050
SWIDTH 600 0
DWIDTH 16 0
BBX 14 19 2 0
BITMAP
E03C
E038
E070
E0E0
E0E0
E1C0
E380
E300
FF00
FF00
E380
E380
E1C0
E1E0
E0E0
E070
E078
E038
E01C
ENDCHAR
STARTCHAR 041B
ENCODING 1051
SWIDTH 600 0
DWIDTH 16 0
BBX 14 19 0 0
BITMAP
0FFC
0FFC
0E0C
0E0C
0E0C
0C0C
0C0C
0C0C
1C0C
1C0C
1C0C
1C0C
180C
180C
380C
380C
700C
F00C
600C
ENDCHAR
STARTCHAR 041C
ENCODING 1052
SWIDTH 600 0
DWIDTH 16 0
BBX 15 19 1 0
BITMAP
703C
783C
787C
787C
787C
7C7C
EC7C
ECDC
ECCC
EECC
E6CC
E68C
E78C
E78C
C38C
C38C
C00E
C00E
C00E
ENDCHAR
STARTCHAR 041D
ENCODING 1053
SWIDTH 600 0
DWIDTH 16 0
BBX 12 19 2 0
BITMAP
E030
E030
E030
E030
E030
E030
E030
E030
FFF0
FFF0
E030
E030
E030
E030
E030
E030
E030
E030
E030
ENDCHAR
STARTCHAR 041E
ENCODING 1054
SWIDTH 600 0
DWIDTH 16 0
BBX 14 19 1 0
BITMAP
07C0
1FE0
3C70
7038
7018
601C
E01C
E01C
E01C
E01C
E01C
E01C
E01C
601C
7018
7038
3C70
1FE0
07C0
ENDCHAR
STARTCHAR 041F
ENCODING 1055
SWIDTH 600 0
DWIDTH 16 0
BBX 12 19 2 0
BITMAP
FFF0
FFF0
E030
E030
E030
E030
E030
E030
E030
E030
E030
E030
E030
E030
E030
E030
E030
E030
E030
ENDCHAR
STARTCHAR 0420
ENCODING 1056
SWIDTH 600 0
DWIDTH 16 0
BBX 12 19 3 0
BITMAP
FF00
FFC0
E1E0
E070
E070
E070
E070
E070
E070
E1E0
FFC0
FF00
E000
E000
E000
E000
E000
E000
E000
ENDCHAR
STARTCHAR 0421
ENCODING 1057
SWIDTH 600 0
DWIDTH 16 0
BBX 14 19 2 0
BITMAP
07E0
1FF8
3C38
7010
7000
E000
E000
E000
C000
C000
C000
E000
E000
E000
7000
7008
3C38
1FFC
07E0
ENDCHAR
STARTCHAR 0422
ENCODING 1058
SWIDTH 600 0
DWIDTH 16 0
BBX 14 19 1 0
BITMAP
FFFC
FFFC
0380
0380
0380
0380
0380
0380
0380
0380
0380
0380
0380
0380
0380
0380
0380
0380
0380
ENDCHAR
STARTCHAR 0423
ENCODING 1059
SWIDTH 600 0
DWIDTH 16 0
BBX 15 20 1 -1
BITMAP
E00E
E00C
601C
701C
3038
3838
3830
1C70
1C70
0C60
0EE0
06C0
07C0
03C0
0380
0380
0700
3E00
3C00
2000
ENDCHAR
STARTCHAR 0424
ENCODING 1060
SWIDTH 600 0
DWIDTH 16 0
BBX 16 21 0 -1
BITMAP
0180
0180
0FF0
1FFC
398E
7186
6187
6187
E187
E187
E187
E187
E187
6187
6187
718E
398E
3FFC
0FF8
0180
0180
ENDCHAR
STARTCHAR 0425
ENCODING 1061
SWIDTH 600 0
DWIDTH 16 0
BBX 15 19 1 0
BITMAP
F01C
7038
3838
3870
1C60
1CE0
0EC0
07C0
0780
0780
07C0
0EC0
1CE0
1C70
3870
3838
7038
601C
E01E
ENDCHAR
STARTCHAR 0426
ENCODING 1062
SWIDTH 600 0
DWIDTH 16 0
BBX 14 23 2 -4
BITMAP
E030
E030
E030
E030
E030
E030
E030
E030
E030
E030
E030
E030
E030
E030
E030
E030
E030
FFFC
FFFC
001C
000C
000C
000C
ENDCHAR
STARTCHAR 0427
ENCODING 1063
SWIDTH 600 0
DWIDTH 16 0
BBX 13 19 1 0
BITMAP
E018
E018
E018
E018
E018
E018
E018
E018
E018
6038
78F8
3FF8
1F98
0018
0018
0018
0018
0018
0018
ENDCHAR
STARTCHAR 0428
ENCODING 1064
SWIDTH 600 0
DWIDTH 16 0
BBX 14 19 1 0
BITMAP
E30C
E30C
E30C
E30C
E30C
E30C
E30C
E30C
E30C
E30C
E30C
E30C
E30C
E30C
E30C
E30C
E30C
FFFC
FFFC
ENDCHAR
STARTCHAR 0429
ENCODING 1065
SWIDTH 600 0
DWIDTH 16 0
BBX 16 23 1 -4
BITMAP
E30C
E30C
E30C
E30C
E30C
E30C
E30C
E30C
E30C
E30C
E30C
E30C
E30C
E30C
E30C
E30C
E30C
FFFF
FFFF
0007
0007
0003
0003
ENDCHAR
STARTCHAR 042A
ENCODING 1066
SWIDTH 600 0
DWIDTH 16 0
BBX 16 19 0 0
BITMAP
FC00
FC00
1C00
1C00
1C00
1C00
1C00
1FF0
1FFC
1C1E
1C0F
1C07
1C07
1C07
1C07
1C0E
1C1E
1FFC
1FF0
ENDCHAR
STARTCHAR 042B
ENCODING 1067
SWIDTH 600 0
DWIDTH 16 0
BBX 15 19 1 0
BITMAP
C00E
C00E
C00E
C00E
C00E
C00E
C00E
FF0E
FF8E
C3CE
C1CE
C0EE
C0EE
C0EE
C0EE
C1CE
C3CE
FF8E
FE0E
ENDCHAR
STARTCHAR 042C
ENCODING 1068
SWIDTH 600 0
DWIDTH 16 0
BBX 13 19 2 0
BITMAP
E000
E000
E000
E000
E000
E000
E000
FFC0
FFF0
E0F0
E038
E038
E038
E038
E038
E038
E0F0
FFE0
FF80
ENDCHAR
STARTCHAR 042D
ENCODING 1069
SWIDTH 600 0
DWIDTH 16 0
BBX 14 19 1 0
BITMAP
1F80
7FE0
F0F0
4038
0038
0018
001C
001C
1FFC
1FFC
001C
001C
001C
0038
0038
4070
F0F0
7FE0
1F80
ENDCHAR
STARTCHAR 042E
ENCODING 1070
SWIDTH 600 0
DWIDTH 16 0
BBX 15 19 1 0
BITMAP
E1F0
E3F8
E31C
E71C
E60C
E60E
E60E
EE0E
FE0E
FE0E
EE0E
EE0E
E60E
E60E
E60C
E70C
E31C
E3F8
E1F0
ENDCHAR
STARTCHAR 042F
ENCODING 1071
SWIDTH 600 0
DWIDTH 16 0
BBX 13 19 1 0
BITMAP
07F8
1FF8
3C18
7018
7018
7018
7018
7018
3818
3FF8
0FF8
0C18
1C18
1C18
3818
3818
7018
7018
E018
ENDCHAR
STARTCHAR 0430
ENCODING 1072
SWIDTH 600 0
DWIDTH 16 0
BBX 12 15 2 0
BITMAP
3F80
7FC0
61E0
00E0
0060
0060
1FE0
7FE0
F060
E060
E060
E0E0
F1F0
7F70
3E30
ENDCHAR
STARTCHAR 0431
ENCODING 1073
SWIDTH 600 0
DWIDTH 16 0
BBX 12 21 2 0
BITMAP
0040
01E0
0FC0
1F00
3800
7000
6000
E780
EFE0
F8E0
F070
E070
E030
E030
E030
E030
E070
7070
78E0
3FC0
0F80
ENDCHAR
STARTCHAR 0432
ENCODING 1074
SWIDTH 600 0
DWIDTH 16 0
BBX 12 15 3 0
BITMAP
FF00
FFC0
E1E0
E0E0
E0E0
E0C0
FF80
FFC0
E0E0
E070
E070
E070
E0E0
FFC0
FF80
ENDCHAR
STARTCHAR 0433
ENCODING 1075
SWIDTH 600 0
DWIDTH 16 0
BBX 10 15 4 0
BITMAP
FFC0
FFC0
E000
E000
E000
E000
E000
E000
E000
E000
E000
E000
E000
E000
E000
ENDCHAR
STARTCHAR 0434
ENCODING 1076
SWIDTH 600 0
DWIDTH 16 0
BBX 14 19 1 -4
BITMAP
1FF8
1FF8
1C38
1838
1838
1838
1838
1838
3838
3838
3838
3038
6038
FFFC
FFFC
C01C
C01C
C00C
C00C
ENDCHAR
STARTCHAR 0435
ENCODING 1077
SWIDTH 600 0
DWIDTH 16 0
BBX 12 15 2 0
BITMAP
0F80
3FC0
78E0
7070
E030
E030
FFF0
FFF0
E000
E000
E000
7000
7860
3FF0
0FC0
ENDCHAR
STARTCHAR 0436
ENCODING 1078
SWIDTH 600 0
DWIDTH 16 0
BBX 16 15 0 0
BITMAP
6187
7186
318E
398C
199C
1D98
0FF8
0FF8
1D98
199C
398C
318E
718E
7186
E187
ENDCHAR
STARTCHAR 0437
ENCODING 1079
SWIDTH 600 0
DWIDTH 16 0
BBX 13 15 1 0
BITMAP
0FC0
7FE0
70F0
0030
0030
0070
0FC0
0FE0
0078
0038
0038
4038
F078
7FF0
1FC0
ENDCHAR
STARTCHAR 0438
ENCODING 1080
SWIDTH 600 0
DWIDTH 16 0
BBX 11 15 3 0
BITMAP
C1E0
C1E0
C3E0
C3E0
C7E0
C6E0
C6E0
CCE0
CCE0
D8E0
D8E0
F0E0
F0E0
E0E0
E0E0
ENDCHAR
STARTCHAR 0439
ENCODING 1081
SWIDTH 600 0
DWIDTH 16 0
BBX 11 21 3 0
BITMAP
2100
6180
3F80
1F00
0000
0000
C1E0
C1E0
C3E0
C3E0
C7E0
C6E0
C6E0
CCE0
CCE0
D8E0
D8E0
F0E0
F0E0
E0E0
E0E0
ENDCHAR
STARTCHAR 043A
ENCODING 1082
SWIDTH 600 0
DWIDTH 16 0
BBX 13 15 3 0
BITMAP
C070
C0E0
C1C0
C1C0
C380
C700
FF00
FF00
C700
C380
C1C0
C1C0
C0E0
C070
C078
ENDCHAR
STARTCHAR 043B
ENCODING 1083
SWIDTH 600 0
DWIDTH 16 0
BBX 13 15 1 0
BITMAP
1FF8
1FF8
1838
1838
1838
1838
1838
3838
3838
3838
3838
3038
7038
E038
4038
ENDCHAR
STARTCHAR 043C
ENCODING 1084
SWIDTH 600 0
DWIDTH 16 0
BBX 14 15 1 0
BITMAP
7838
7838
7878
787C
6C7C
6CDC
6CDC
6EDC
E6DC
E79C
E78C
E38C
E30C
E00C
E00C
ENDCHAR
STARTCHAR 043D
ENCODING 1085
SWIDTH 600 0
DWIDTH 16 0
BBX 11 15 3 0
BITMAP
C0E0
C0E0
C0E0
C0E0
C0E0
C0E0
C0E0
FFE0
FFE0
C0E0
C0E0
C0E0
C0E0
C0E0
C0E0
ENDCHAR
STARTCHAR 043E
ENCODING 1086
SWIDTH 600 0
DWIDTH 16 0
BBX 13 15 2 0
BITMAP
0F80
3FC0
78E0
7070
E070
E030
E030
E038
E038
E030
E070
7070
78E0
3FC0
1F80
ENDCHAR
STARTCHAR 043F
ENCODING 1087
SWIDTH 600 0
DWIDTH 16 0
BBX 11 15 3 0
BITMAP
FFE0
FFE0
C0E0
C0E0
C0E0
C0E0
C0E0
C0E0
C0E0
C0E0
C0E0
C0E0
C0E0
C0E0
C0E0
ENDCHAR
STARTCHAR 0440
ENCODING 1088
SWIDTH 600 0
DWIDTH 16 0
BBX 12 21 3 -6
BITMAP
CF80
DFC0
F1E0
E0E0
C0E0
C060
C070
C070
C070
C060
C0E0
C0E0
F1C0
FFC0
CF00
C000
C000
C000
C000
C000
8000
ENDCHAR
STARTCHAR 0441
ENCODING 1089
SWIDTH 600 0
DWIDTH 16 0
BBX 12 15 2 0
BITMAP
07C0
1FF0
3C70
7000
7000
6000
E000
E000
E000
6000
7000
7000
3C70
1FF0
0FC0
ENDCHAR
STARTCHAR 0442
ENCODING 1090
SWIDTH 600 0
DWIDTH 16 0
BBX 13 15 2 0
BITMAP
FFF8
FFF8
0700
0700
0700
0700
0700
0700
0700
0700
0700
0700
0700
0700
0700
ENDCHAR
STARTCHAR 0443
ENCODING 1091
SWIDTH 600 0
DWIDTH 16 0
BBX 13 21 2 -6
BITMAP
C038
E030
E070
6070
7060
7060
30E0
38C0
38C0
19C0
1D80
1D80
0F80
0F00
0F00
0700
0600
0E00
3C00
7800
6000
ENDCHAR
STARTCHAR 0444
ENCODING 1092
SWIDTH 600 0
DWIDTH 16 0
BBX 15 27 1 -6
BITMAP
0300
0300
0300
0300
0300
0300
3B78
7FFC
E79C
E30C
E30E
C30E
C30E
C30E
C30E
C30E
E30C
E30C
E79C
7FF8
3B70
0300
0300
0300
0300
0300
0200
ENDCHAR
STARTCHAR 0445
ENCODING 1093
SWIDTH 600 0
DWIDTH 16 0
BBX 14 15 1 0
BITMAP
7038
3830
1C70
1CE0
0EC0
07C0
0780
0780
07C0
0EC0
1CE0
1870
3870
7038
F01C
ENDCHAR
STARTCHAR 0446
ENCODING 1094
SWIDTH 600 0
DWIDTH 16 0
BBX 14 19 2 -4
BITMAP
E070
E070
E070
E070
E070
E070
E070
E070
E070
E070
E070
E070
E070
FFFC
FFFC
001C
001C
001C
000C
ENDCHAR
STARTCHAR 0447
ENCODING 1095
SWIDTH 600 0
DWIDTH 16 0
BBX 12 15 2 0
BITMAP
E070
E070
E070
E070
E070
E070
E070
F1F0
7FF0
3E70
0070
0070
0070
0070
0070
ENDCHAR
STARTCHAR 0448
ENCODING 1096
SWIDTH 600 0
DWIDTH 16 0
BBX 14 15 1 0
BITMAP
E30C
E30C
E30C
E30C
E30C
E30C
E30C
E30C
E30C
E30C
E30C
E30C
E30C
FFFC
FFFC
ENDCHAR
STARTCHAR 0449
ENCODING 1097
SWIDTH 600 0
DWIDTH 16 0
BBX 16 19 1 -4
BITMAP
E30C
E30C
E30C
E30C
E30C
E30C
E30C
E30C
E30C
E30C
E30C
E30C
E30C
FFFF
FFFF
0003
0003
0003
0003
ENDCHAR
STARTCHAR 044A
ENCODING 1098
SWIDTH 600 0
DWIDTH 16 0
BBX 14 15 1 0
BITMAP
FC00
FC00
1C00
1C00
1C00
1FE0
1FF8
1C3C
1C1C
1C1C
1C1C
1C1C
1C38
1FF8
1FE0
ENDCHAR
STARTCHAR 044B
ENCODING 1099
SWIDTH 600 0
DWIDTH 16 0
BBX 13 15 2 0
BITMAP
C038
C038
C038
C038
C038
FC38
FF38
C738
C3B8
C3B8
C3B8
C3B8
C738
FF38
FC38
ENDCHAR
STARTCHAR 044C
ENCODING 1100
SWIDTH 600 0
DWIDTH 16 0
BBX 12 15 3 0
BITMAP
E000
E000
E000
E000
E000
FF80
FFE0
E0E0
E070
E070
E070
E070
E0E0
FFC0
FF80
ENDCHAR
STARTCHAR 044D
ENCODING 1101
SWIDTH 600 0
DWIDTH 16 0
BBX 12 15 2 0
BITMAP
1F80
7FC0
61E0
0060
0070
0070
1FF0
1FF0
0070
0070
0070
00E0
61E0
FFC0
1F00
ENDCHAR
STARTCHAR 044E
ENCODING 1102
SWIDTH 600 0
DWIDTH 16 0
BBX 15 15 1 0
BITMAP
E1F0
E3F8
E71C
E71C
E60C
E60C
FE0E
FE0E
E60E
E60E
E60C
E71C
E31C
E3F8
E1F0
ENDCHAR
STARTCHAR 044F
ENCODING 1103
SWIDTH 600 0
DWIDTH 16 0
BBX 12 15 1 0
BITMAP
0FF0
3FF0
3830
7030
7030
7030
3830
3FF0
0FF0
1C30
1C30
3830
3830
7030
E030
ENDCHAR
STARTCHAR 0450
ENCODING 1104
SWIDTH 600 0
DWIDTH 16 0
BBX 12 22 2 0
BITMAP
0800
0E00
1F00
03C0
0080
0000
0000
0F80
3FC0
78E0
7070
E030
E030
FFF0
FFF0
E000
E000
E000
7000
7860
3FF0
0FC0
ENDCHAR
STARTCHAR 0451
ENCODING 1105
SWIDTH 600 0
DWIDTH 16 0
BBX 12 21 2 0
BITMAP
38E0
38E0
38E0
0000
0000
0000
0F80
3FC0
78E0
7070
E030
E030
FFF0
FFF0
E000
E000
E000
7000
7860
3FF0
0FC0
ENDCHAR
STARTCHAR 0452
ENCODING 1106
SWIDTH 600 0
DWIDTH 16 0
BBX 14 27 0 -6
BITMAP
1800
1800
FFC0
FFC0
1800
1800
18F0
1BF8
1E3C
1C1C
181C
181C
181C
181C
181C
181C
181C
181C
181C
181C
181C
001C
001C
0038
0078
00F0
0040
ENDCHAR
STARTCHAR 0453
ENCODING 1107
SWIDTH 600 0
DWIDTH 16 0
BBX 10 22 4 0
BITMAP
0100
0700
1F80
3C00
2000
0000
0000
FFC0
FFC0
E000
E000
E000
E000
E000
E000
E000
E000
E000
E000
E000
E000
E000
ENDCHAR
STARTCHAR 0454
ENCODING 1108
SWIDTH 600 0
DWIDTH 16 0
BBX 12 15 2 0
BITMAP
07C0
1FF0
3C70
7000
7000
6000
FFC0
FFC0
E000
6000
7000
7000
3C70
1FF0
0FC0
ENDCHAR
STARTCHAR 0455
ENCODING 1109
SWIDTH 600 0
DWIDTH 16 0
BBX 12 15 2 0
BITMAP
1F80
3FF0
7860
6020
7000
7800
3F00
1FC0
01E0
0070
0070
4070
F0E0
7FE0
1F80
ENDCHAR
STARTCHAR 0456
ENCODING 1110
SWIDTH 600 0
DWIDTH 16 0
BBX 11 22 3 0
BITMAP
0C00
1E00
1E00
0C00
0000
0000
0000
FE00
FE00
0600
0600
0600
0600
0600
0600
0600
0600
0600
0600
0600
FFE0
FFE0
ENDCHAR
STARTCHAR 0457
ENCODING 1111
SWIDTH 600 0
DWIDTH 16 0
BBX 11 21 3 0
BITMAP
7180
73C0
7180
0000
0000
0000
FE00
FE00
0600
0600
0600
0600
0600
0600
0600
0600
0600
0600
0600
FFE0
FFE0
ENDCHAR
STARTCHAR 0458
ENCODING 1112
SWIDTH 600 0
DWIDTH 16 0
BBX 10 28 2 -6
BITMAP
0180
03C0
03C0
0180
0000
0000
0000
3FC0
3FC0
00C0
00C0
00C0
00C0
00C0
00C0
00C0
00C0
00C0
00C0
00C0
00C0
01C0
01C0
0380
0F00
FE00
7800
4000
ENDCHAR
STARTCHAR 0459
ENCODING 1113
SWIDTH 600 0
DWIDTH 16 0
BBX 16 15 0 0
BITMAP
1FC0
3FC0
38C0
38C0
38C0
38F8
38FE
38CF
38C7
30C3
30C3
70C7
70CF
E0FE
40F8
ENDCHAR
STARTCHAR 045A
ENCODING 1114
SWIDTH 600 0
DWIDTH 16 0
BBX 14 15 2 0
BITMAP
C300
C300
C300
C300
C300
C300
FFF0
FFF8
C31C
C30C
C30C
C30C
C31C
C3F8
C3F0
ENDCHAR
STARTCHAR 045B
ENCODING 1115
SWIDTH 600 0
DWIDTH 16 0
BBX 14 21 0 0
BITMAP
1800
1800
FFC0
FFC0
1800
1800
18F0
1BF8
1E3C
1C1C
181C
181C
181C
181C
181C
181C
181C
181C
181C
181C
181C
ENDCHAR
STARTCHAR 045C
ENCODING 1116
SWIDTH 600 0
DWIDTH 16 0
BBX 13 22 3 0
BITMAP
0100
0780
0F00
1C00
1000
0000
0000
C070
C0E0
C1C0
C1C0
C380
C700
FF00
FF00
C700
C380
C1C0
C1C0
C0E0
C070
C078
ENDCHAR
STARTCHAR 045D
ENCODING 1117
SWIDTH 600 0
DWIDTH 16 0
BBX 11 22 3 0
BITMAP
1000
1800
3E00
0F00
0100
0000
0000
C1E0
C1E0
C3E0
C3E0
C7E0
C6E0
C6E0
CCE0
CCE0
D8E0
D8E0
F0E0
F0E0
E0E0
E0E0
ENDCHAR
STARTCHAR 045E
ENCODING 1118
SWIDTH 600 0
DWIDTH 16 0
BBX 13 27 2 -6
BITMAP
1080
30C0
1FC0
0F80
0000
0000
C038
E030
E070
6070
7060
7060
30E0
38C0
38C0
19C0
1D80
1D80
0F80
0F00
0F00
0700
0600
0E00
3C00
7800
6000
ENDCHAR
STARTCHAR 045F
ENCODING 1119
SWIDTH 600 0
DWIDTH 16 0
BBX 11 19 3 -4
BITMAP
C0E0
C0E0
C0E0
C0E0
C0E0
C0E0
C0E0
C0E0
C0E0
C0E0
C0E0
C0E0
C0E0
FFE0
FFE0
0C00
0C00
0C00
0C00
ENDCHAR
STARTCHAR 0460
ENCODING 1120
SWIDTH 600 0
DWIDTH 16 0
BBX 16 19 0 0
BITMAP
380C
300E
300E
7006
7006
6007
6007
6007
E187
E187
E187
E187
E187
6187
6187
71C6
7BCE
3F7C
1E38
ENDCHAR
STARTCHAR 0461
ENCODING 1121
SWIDTH 600 0
DWIDTH 16 0
BBX 15 15 1 0
BITMAP
601C
601C
E00C
E00C
C08C
C30E
C30E
C30E
C30E
C30E
C38E
E38C
E79C
7EF8
3C70
ENDCHAR
STARTCHAR 0462
ENCODING 1122
SWIDTH 600 0
DWIDTH 16 0
BBX 16 19 0 0
BITMAP
0E00
0E00
FFE0
FFE0
0E00
0E00
0E00
0FF0
0FFC
0E1E
0E0E
0E07
0E07
0E07
0E06
0E0E
0E1E
0FFC
0FF0
ENDCHAR
STARTCHAR 0463
ENCODING 1123
SWIDTH 600 0
DWIDTH 16 0
BBX 14 18 1 0
BITMAP
1800
1800
1800
FF80
FF80
1800
1800
1800
1FE0
1FF8
1878
181C
181C
181C
181C
1838
1FF8
1FE0
ENDCHAR
STARTCHAR 0464
ENCODING 1124
SWIDTH 600 0
DWIDTH 16 0
BBX 15 19 1 0
BITMAP
E07C
E1FE
E3C4
E380
E700
E700
E600
E600
FFF8
FFF8
E600
E600
E600
E700
E700
E380
E3C6
E1FE
E07C
ENDCHAR
STARTCHAR 0465
ENCODING 1125
SWIDTH 600 0
DWIDTH 16 0
BBX 14 15 2 0
BITMAP
C0F0
C3FC
C708
C600
CE00
CE00
FFF0
FFF0
CE00
CE00
CE00
C600
C788
C3FC
C1F0
ENDCHAR
STARTCHAR 0466
ENCODING 1126
SWIDTH 600 0
DWIDTH 16 0
BBX 16 19 0 0
BITMAP
03C0
03C0
03E0
0760
0660
0670
0E70
0E30
0C38
1FF8
1FF8
199C
399C
398C
318E
318E
718E
7187
E187
ENDCHAR
STARTCHAR 0467
ENCODING 1127
SWIDTH 600 0
DWIDTH 16 0
BBX 15 15 1 0
BITMAP
0780
0780
07C0
0EC0
0CE0
0CE0
1860
1FF0
3FF0
3330
3338
7318
631C
E31C
E30E
ENDCHAR
STARTCHAR 0468
ENCODING 1128
SWIDTH 600 0
DWIDTH 16 0
BBX 16 19 1 0
BITMAP
C0E0
C1E0
C1F0
C1B0
C1B0
C3B0
C338
C318
C318
FFF8
FFFC
C6DC
C6CC
CECC
CECC
CCCE
CCCE
CCC6
DCC7
ENDCHAR
STARTCHAR 0469
ENCODING 1129
SWIDTH 600 0
DWIDTH 16 0
BBX 15 15 1 0
BITMAP
E0E0
E0F0
E1B0
E1B0
E1B0
E3B8
E318
FFF8
FFFC
E6CC
E6CC
E6CC
EECE
ECC6
ECC6
ENDCHAR
STARTCHAR 046A
ENCODING 1130
SWIDTH 600 0
DWIDTH 16 0
BBX 15 19 1 0
BITMAP
7FF8
7FF8
3038
3830
1870
1C60
0CC0
06C0
1FF0
1FF0
3330
3338
3338
7318
6318
631C
631C
E30C
C30E
ENDCHAR
STARTCHAR 046B
ENCODING 1131
SWIDTH 600 0
DWIDTH 16 0
BBX 15 15 1 0
BITMAP
3FF8
3FF8
3830
1860
1CE0
0EC0
07C0
3FF0
3FF8
3318
7318
631C
E30C
C30C
C30E
ENDCHAR
STARTCHAR 046C
ENCODING 1132
SWIDTH 600 0
DWIDTH 16 0
BBX 17 19 0 0
BITMAP
E7FF00
E7FF00
E70600
E30600
E38C00
E18C00
E1D800
E0D800
FFDE00
FFFE00
E37600
E37600
E77700
E67300
E67300
E67300
EE7380
EC7380
EC7180
ENDCHAR
STARTCHAR 046D
ENCODING 1133
SWIDTH 600 0
DWIDTH 16 0
BBX 16 15 1 0
BITMAP
CFFC
CFFC
C60C
C718
C318
C1B0
C1B0
FFF8
FFFC
C6EC
C6EC
CEEE
CCE6
CCE6
DCE7
ENDCHAR
STARTCHAR 046E
ENCODING 1134
SWIDTH 600 0
DWIDTH 16 0
BBX 12 31 2 -6
BITMAP
60C0
39C0
1F80
0E00
0000
0000
FFE0
FFE0
00E0
01C0
0380
0700
0700
0E00
1C00
3F80
3FE0
00F0
0070
0070
0070
0070
0070
00E0
0FE0
7F80
7800
E000
6000
7800
3800
ENDCHAR
STARTCHAR 046F
ENCODING 1135
SWIDTH 600 0
DWIDTH 16 0
BBX 12 29 2 -6
BITMAP
2040
70C0
39C0
1F80
0E00
0000
0000
0000
FFE0
FFE0
00E0
03C0
0700
0E00
1C00
1FC0
1FF0
0070
0070
0070
0070
03E0
3FC0
7F00
E000
E000
7000
3800
1000
ENDCHAR
STARTCHAR 0470
ENCODING 1136
SWIDTH 600 0
DWIDTH 16 0
BBX 16 19 0 0
BITMAP
E1C7
E1C7
E1C7
E1C7
E1C7
E1C7
E1C7
E1C7
E1C7
61C7
71CE
3DFE
1FFC
07E0
01C0
01C0
01C0
01C0
01C0
ENDCHAR
STARTCHAR 0471
ENCODING 1137
SWIDTH 600 0
DWIDTH 16 0
BBX 15 21 1 -6
BITMAP
E31C
E30C
E30C
E30C
E30C
E30E
E30E
E30E
E30E
E30C
E30C
E31C
7B38
3FF0
0FC0
0300
0300
0300
0300
0300
0200
ENDCHAR
STARTCHAR 0472
ENCODING 1138
SWIDTH 600 0
DWIDTH 16 0
BBX 14 19 1 0
BITMAP
07C0
1FE0
3870
7038
7018
601C
E01C
E01C
FFFC
FFFC
E01C
E01C
E01C
601C
7018
7038
3C70
1FE0
07C0
ENDCHAR
STARTCHAR 0473
ENCODING 1139
SWIDTH 600 0
DWIDTH 16 0
BBX 13 15 2 0
BITMAP
0F80
3FC0
78E0
6070
E070
E030
FFF0
FFF8
E038
E030
E070
7070
78E0
3FC0
1F80
ENDCHAR
STARTCHAR 0474
ENCODING 1140
SWIDTH 600 0
DWIDTH 16 0
BBX 15 19 1 0
BITMAP
E01E
E01E
E038
6030
7030
7070
3070
3060
3860
38E0
18E0
18C0
1CC0
0DC0
0D80
0D80
0F80
0780
0700
ENDCHAR
STARTCHAR 0475
ENCODING 1141
SWIDTH 600 0
DWIDTH 16 0
BBX 15 16 1 0
BITMAP
000E
E01E
7038
7030
3030
3870
3870
1860
18E0
1CE0
0CC0
0CC0
0FC0
0780
0780
0780
ENDCHAR
STARTCHAR 0476
ENCODING 1142
SWIDTH 600 0
DWIDTH 16 0
BBX 15 27 1 0
BITMAP
2100
7380
3180
1980
1CC0
0880
0000
0000
E01E
E01E
E038
6030
7030
7070
3070
3060
3860
38E0
18E0
18C0
1CC0
0DC0
0D80
0D80
0F80
0780
0700
ENDCHAR
STARTCHAR 0477
ENCODING 1143
SWIDTH 600 0
DWIDTH 16 0
BBX 15 23 1 0
BITMAP
3100
7380
3980
19C0
1CC0
0880
0000
000E
E01E
7038
7030
3030
3870
3870
1860
18E0
1CE0
0CC0
0CC0
0FC0
0780
0780
0780
ENDCHAR
STARTCHAR 0478
ENCODING 1144
SWIDTH 600 0
DWIDTH 16 0
BBX 16 25 0 -6
BITMAP
1C00
3E00
7700
6300
6363
E363
E3E3
E3E3
E3F3
E3B6
E3B6
E3B6
E3B6
E336
6336
6316
771C
3E1C
1C1C
000C
000C
0018
0038
0070
0040
ENDCHAR
STARTCHAR 0479
ENCODING 1145
SWIDTH 600 0
DWIDTH 16 0
BBX 17 21 0 -6
BITMAP
3CE380
7E6300
676300
E36300
E36300
C37700
C37700
C33600
C33600
C33600
E33600
E33600
673C00
7E1C00
3C1C00
000C00
001C00
001800
017000
00E000
010000
ENDCHAR
STARTCHAR 048A
ENCODING 1162
SWIDTH 600 0
DWIDTH 16 0
BBX 15 29 2 -4
BITMAP
3040
38C0
1FC0
0F00
0000
0000
E070
E0F0
E0F0
E0F0
E1B0
E1B0
E3B0
E330
E330
E630
E630
EE30
EC30
EC30
F830
D830
F830
F03E
F03C
001C
0018
0018
0038
ENDCHAR
STARTCHAR 048B
ENCODING 1163
SWIDTH 600 0
DWIDTH 16 0
BBX 14 25 2 -4
BITMAP
1080
30C0
3F80
1F00
0000
0000
E0E0
E0E0
E1E0
E1E0
E360
E360
E660
E660
EC60
EC60
FC60
F860
F860
F07C
F078
0038
0030
0030
0070
ENDCHAR
STARTCHAR 048C
ENCODING 1164
SWIDTH 600 0
DWIDTH 16 0
BBX 15 19 1 0
BITMAP
3800
3800
FF80
FF80
3800
3800
3800
3FE0
3FF8
383C
381C
380C
380E
380E
381C
381C
383C
3FF8
3FE0
ENDCHAR
STARTCHAR 048D
ENCODING 1165
SWIDTH 600 0
DWIDTH 16 0
BBX 13 15 2 0
BITMAP
3800
3800
FF00
FF00
3800
3800
3FC0
3FF0
3870
3838
3838
3838
3870
3FE0
3F80
ENDCHAR
STARTCHAR 048E
ENCODING 1166
SWIDTH 600 0
DWIDTH 16 0
BBX 12 19 3 0
BITMAP
FF00
FFC0
E1E0
E070
E070
E070
E670
E370
E3F0
E1E0
FFC0
FFC0
E060
E070
E000
E000
E000
E000
E000
ENDCHAR
STARTCHAR 048F
ENCODING 1167
SWIDTH 600 0
DWIDTH 16 0
BBX 12 20 3 -5
BITMAP
CF80
DFC0
F1E0
E0E0
C0E0
C060
C060
C070
C060
CC60
C6E0
C3E0
F3C0
FFC0
CFC0
C0C0
C060
C000
C000
C000
ENDCHAR
STARTCHAR 0490
ENCODING 1168
SWIDTH 600 0
DWIDTH 16 0
BBX 11 24 4 0
BITMAP
00E0
00E0
00E0
00E0
00E0
FFE0
FFE0
C000
C000
C000
C000
C000
C000
C000
C000
C000
C000
C000
C000
C000
C000
C000
C000
C000
ENDCHAR
STARTCHAR 0491
ENCODING 1169
SWIDTH 600 0
DWIDTH 16 0
BBX 10 19 4 0
BITMAP
00C0
00C0
00C0
00C0
FFC0
FFC0
E000
E000
E000
E000
E000
E000
E000
E000
E000
E000
E000
E000
E000
ENDCHAR
STARTCHAR 0492
ENCODING 1170
SWIDTH 600 0
DWIDTH 16 0
BBX 14 19 2 0
BITMAP
3FFC
3FFC
3800
3800
3800
3800
3800
FF80
FF80
3800
3800
3800
3800
3800
3800
3800
3800
3800
3800
ENDCHAR
STARTCHAR 0493
ENCODING 1171
SWIDTH 600 0
DWIDTH 16 0
BBX 13 15 2 0
BITMAP
1FF8
1FF8
1C00
1C00
1C00
1C00
1C00
FF80
FF80
1C00
1C00
1C00
1C00
1C00
1C00
ENDCHAR
STARTCHAR 0494
ENCODING 1172
SWIDTH 600 0
DWIDTH 16 0
BBX 13 25 2 -6
BITMAP
FFE0
FFE0
E000
E000
E000
E000
E000
E7C0
FFF0
F870
E038
E038
E038
E038
E038
E038
E038
E038
E038
0038
0038
0038
0238
03F0
01E0
ENDCHAR
STARTCHAR 0495
ENCODING 1173
SWIDTH 600 0
DWIDTH 16 0
BBX 11 21 3 -6
BITMAP
FF80
FF80
C000
C000
C000
CF80
DFC0
F1C0
E0E0
C0E0
C0E0
C0E0
C0E0
C0E0
C0E0
00E0
00E0
00E0
09C0
1FC0
0F80
ENDCHAR
STARTCHAR 0496
ENCODING 1174
SWIDTH 600 0
DWIDTH 16 0
BBX 17 23 0 -4
BITMAP
618700
718600
718E00
318E00
398C00
398C00
199C00
199800
1FF800
1FF800
199800
199C00
398C00
318C00
318E00
718E00
718600
618780
E18780
000380
000380
000180
000180
ENDCHAR
STARTCHAR 0497
ENCODING 1175
SWIDTH 600 0
DWIDTH 16 0
BBX 16 19 1 -4
BITMAP
E30E
E31C
631C
7318
3338
3B30
1FF0
1FF0
3B30
3338
7318
6318
631C
E30F
C30F
0007
0007
0003
0003
ENDCHAR
STARTCHAR 0498
ENCODING 1176
SWIDTH 600 0
DWIDTH 16 0
BBX 14 26 1 -7
BITMAP
1FC0
7FF0
F078
4038
0038
0038
0070
0FE0
1FE0
0078
0038
001C
001C
001C
001C
4038
F078
7FF0
1FC0
0300
0300
0380
00C0
00C0
0FC0
0F80
ENDCHAR
STARTCHAR 0499
ENCODING 1177
SWIDTH 600 0
DWIDTH 16 0
BBX 13 22 1 -7
BITMAP
0FC0
7FE0
70F0
0030
0030
0070
0FC0
0FE0
0078
0038
0038
4038
F078
7FF0
1FC0
0300
0300
03C0
00C0
00C0
0FC0
0780
ENDCHAR
STARTCHAR 049A
ENCODING 1178
SWIDTH 600 0
DWIDTH 16 0
BBX 14 23 2 -4
BITMAP
E03C
E038
E070
E0E0
E0E0
E1C0
E380
E300
FF00
FF00
E380
E380
E1C0
E1C0
E0E0
E070
E070
E03C
E01C
000C
000C
000C
000C
ENDCHAR
STARTCHAR 049B
ENCODING 1179
SWIDTH 600 0
DWIDTH 16 0
BBX 13 19 3 -4
BITMAP
C070
C0E0
C1C0
C1C0
C380
C700
FF00
FF00
C700
C380
C1C0
C1C0
C0E0
C078
C078
0018
0018
0018
0018
ENDCHAR
STARTCHAR 049C
ENCODING 1180
SWIDTH 600 0
DWIDTH 16 0
BBX 14 19 2 0
BITMAP
E01C
E038
E070
EC70
ECE0
ECC0
EDC0
ED80
FF80
FF80
ED80
EDC0
ECE0
ECE0
EC70
E070
E038
E038
E01C
ENDCHAR
STARTCHAR 049D
ENCODING 1181
SWIDTH 600 0
DWIDTH 16 0
BBX 13 15 3 0
BITMAP
C070
C0E0
C0C0
C9C0
CB80
CB80
FF00
FF00
CB80
CB80
C9C0
C8E0
C0E0
C070
C078
ENDCHAR
STARTCHAR 049E
ENCODING 1182
SWIDTH 600 0
DWIDTH 16 0
BBX 15 19 1 0
BITMAP
381E
381C
FF38
FF70
3870
38E0
38C0
39C0
3F80
3F80
39C0
38E0
38E0
3870
3870
3838
383C
381C
380E
ENDCHAR
STARTCHAR 049F
ENCODING 1183
SWIDTH 600 0
DWIDTH 16 0
BBX 14 21 1 0
BITMAP
3800
3800
3800
FF80
FF80
3800
381C
3838
3870
3860
38E0
39C0
3F80
3F80
39C0
38E0
38E0
3870
3838
3838
381C
ENDCHAR
STARTCHAR 04A0
ENCODING 1184
SWIDTH 600 0
DWIDTH 16 0
BBX 16 19 0 0
BITMAP
FC07
FC0E
1C1C
1C1C
1C38
1C30
1C70
1CE0
1FC0
1FE0
1CE0
1C70
1C78
1C38
1C1C
1C1C
1C0E
1C0F
1C07
ENDCHAR
STARTCHAR 04A1
ENCODING 1185
SWIDTH 600 0
DWIDTH 16 0
BBX 16 15 0 0
BITMAP
FC0E
FC0C
0C1C
0C38
0C30
0C70
0FE0
0FE0
0C70
0C70
0C38
0C1C
0C1C
0C0E
0C07
ENDCHAR
STARTCHAR 04A2
ENCODING 1186
SWIDTH 600 0
DWIDTH 16 0
BBX 14 23 2 -4
BITMAP
E030
E030
E030
E030
E030
E030
E030
E030
FFF0
FFF0
E030
E030
E030
E030
E030
E030
E030
E03C
E03C
001C
001C
000C
000C
ENDCHAR
STARTCHAR 04A3
ENCODING 1187
SWIDTH 600 0
DWIDTH 16 0
BBX 14 19 2 -4
BITMAP
E060
E060
E060
E060
E060
E060
E060
FFE0
FFE0
E060
E060
E060
E060
E07C
E07C
001C
001C
001C
001C
ENDCHAR
STARTCHAR 04A4
ENCODING 1188
SWIDTH 600 0
DWIDTH 16 0
BBX 15 19 2 0
BITMAP
C0FE
C0FC
C0E0
C0E0
C0E0
C0E0
C0E0
C0E0
FFE0
FFE0
C0E0
C0E0
C0E0
C0E0
C0E0
C0E0
C0E0
C0E0
C0E0
ENDCHAR
STARTCHAR 04A5
ENCODING 1189
SWIDTH 600 0
DWIDTH 16 0
BBX 15 15 2 0
BITMAP
E0FE
E0FC
E0E0
E0E0
E0E0
E0E0
E0E0
FFE0
FFE0
E0E0
E0E0
E0E0
E0E0
E0E0
E0E0
ENDCHAR
STARTCHAR 04A6
ENCODING 1190
SWIDTH 600 0
DWIDTH 16 0
BBX 15 25 1 -6
BITMAP
FF80
FF80
C380
C380
C380
C380
C380
C3FC
C3FC
C38E
C386
C386
C386
C386
C386
C386
C386
C386
C386
0006
0006
0006
004E
00FC
0078
ENDCHAR
STARTCHAR 04A7
ENCODING 1191
SWIDTH 600 0
DWIDTH 16 0
BBX 15 21 1 -6
BITMAP
FF80
FF80
C380
C380
C380
C3BC
C3FE
C3CE
C386
C386
C386
C386
C386
C386
C386
0006
0006
0006
004E
00FE
0078
ENDCHAR
STARTCHAR 04A8
ENCODING 1192
SWIDTH 600 0
DWIDTH 16 0
BBX 15 22 1 -3
BITMAP
07C0
1FF8
3C70
7000
7000
E000
E000
E0F8
E1FC
E18E
E38E
E38E
E38E
E38E
718C
71DC
3CF8
1FF0
07F0
0038
001C
0018
ENDCHAR
STARTCHAR 04A9
ENCODING 1193
SWIDTH 600 0
DWIDTH 16 0
BBX 13 18 2 -3
BITMAP
1F80
3F80
7080
E000
E000
C1F0
C3F8
C738
C718
C718
E738
E330
73F0
3FE0
1FC0
00E0
0070
0020
ENDCHAR
STARTCHAR 04AA
ENCODING 1194
SWIDTH 600 0
DWIDTH 16 0
BBX 14 26 2 -7
BITMAP
07E0
1FF8
3C38
7010
7000
E000
E000
E000
C000
C000
C000
C000
E000
E000
E000
7000
7818
3FFC
0FF0
03C0
00C0
00E0
0060
0060
07C0
0780
ENDCHAR
STARTCHAR 04AB
ENCODING 1195
SWIDTH 600 0
DWIDTH 16 0
BBX 12 22 2 -7
BITMAP
07C0
1FF0
3C70
7000
7000
6000
E000
E000
E000
6000
7000
7000
3820
3FF0
0FE0
0180
00C0
00C0
00E0
00C0
0FC0
0780
ENDCHAR
STARTCHAR 04AC
ENCODING 1196
SWIDTH 600 0
DWIDTH 16 0
BBX 14 23 1 -4
BITMAP
FFFC
FFFC
0380
0380
0380
0380
0380
0380
0380
0380
0380
0380
0380
0380
0380
0380
0380
03C0
03C0
00C0
00C0
00C0
00C0
ENDCHAR
STARTCHAR 04AD
ENCODING 1197
SWIDTH 600 0
DWIDTH 16 0
BBX 13 19 2 -4
BITMAP
FFF8
FFF8
0700
0700
0700
0700
0700
0700
0700
0700
0700
0700
0700
07C0
07C0
01C0
01C0
01C0
00C0
ENDCHAR
STARTCHAR 04AE
ENCODING 1198
SWIDTH 600 0
DWIDTH 16 0
BBX 16 19 0 0
BITMAP
F007
700E
380E
381C
1C1C
1C38
0E30
0670
0760
03E0
03C0
01C0
01C0
01C0
01C0
01C0
01C0
01C0
01C0
ENDCHAR
STARTCHAR 04AF
ENCODING 1199
SWIDTH 600 0
DWIDTH 16 0
BBX 14 21 1 -6
BITMAP
E01C
7018
7038
3038
3830
1870
1870
1C60
0CE0
0CC0
0EC0
07C0
0780
0380
0380
0380
0380
0380
0380
0380
0200
ENDCHAR
STARTCHAR 04B0
ENCODING 1200
SWIDTH 600 0
DWIDTH 16 0
BBX 16 19 0 0
BITMAP
F007
700E
380E
381C
1C18
0C38
0E30
0670
0760
03E0
1FF8
1FF8
01C0
01C0
01C0
01C0
01C0
01C0
01C0
ENDCHAR
STARTCHAR 04B1
ENCODING 1201
SWIDTH 600 0
DWIDTH 16 0
BBX 14 21 1 -6
BITMAP
E01C
7018
7038
3038
3830
3870
1870
1C60
0CE0
0CC0
0EC0
07C0
0780
1FE0
1FE0
0380
0380
0380
0380
0380
0380
ENDCHAR
STARTCHAR 04B2
ENCODING 1202
SWIDTH 600 0
DWIDTH 16 0
BBX 15 23 1 -4
BITMAP
F01C
7038
3838
3870
1C60
1CE0
0EC0
07C0
0780
0780
07C0
0EC0
0CE0
1C60
3870
3838
7038
601E
E01E
000E
000E
0006
0006
ENDCHAR
STARTCHAR 04B3
ENCODING 1203
SWIDTH 600 0
DWIDTH 16 0
BBX 14 19 1 -4
BITMAP
7038
3830
1870
1CE0
0EC0
07C0
0780
0780
07C0
0EC0
1CE0
1C70
3870
703C
F01C
000C
000C
000C
000C
ENDCHAR
STARTCHAR 04B4
ENCODING 1204
SWIDTH 600 0
DWIDTH 16 0
BBX 15 23 0 -4
BITMAP
FF9C
FF9C
1C1C
1C1C
1C1C
1C1C
1C1C
1C1C
1C1C
1C1C
1C1C
1C1C
1C1C
1C1C
1C1C
1C1C
1C1C
1FFE
1FFE
0006
0006
0006
0006
ENDCHAR
STARTCHAR 04B5
ENCODING 1205
SWIDTH 600 0
DWIDTH 16 0
BBX 15 19 0 -4
BITMAP
FF9C
FF9C
1C1C
1C1C
1C1C
1C1C
1C1C
1C1C
1C1C
1C1C
1C1C
1C1C
1C1C
1FFE
1FFE
0006
0006
0006
0006
ENDCHAR
STARTCHAR 04B6
ENCODING 1206
SWIDTH 600 0
DWIDTH 16 0
BBX 15 23 1 -4
BITMAP
E018
E018
E018
E018
E018
E018
E018
E018
E018
6038
78F8
3FF8
1F98
0018
0018
0018
0018
001E
001E
000E
000E
0006
0006
ENDCHAR
STARTCHAR 04B7
ENCODING 1207
SWIDTH 600 0
DWIDTH 16 0
BBX 13 19 2 -4
BITMAP
E060
E060
E060
E060
E060
E060
E060
E1E0
7FE0
3E60
0060
0060
0060
0078
0078
0018
0018
0018
0018
ENDCHAR
STARTCHAR 04B8
ENCODING 1208
SWIDTH 600 0
DWIDTH 16 0
BBX 13 19 1 0
BITMAP
E018
E018
E018
E018
E318
E318
E318
E318
E318
6338
7B78
3FF8
1F98
0318
0318
0318
0018
0018
0018
ENDCHAR
STARTCHAR 04B9
ENCODING 1209
SWIDTH 600 0
DWIDTH 16 0
BBX 12 15 2 0
BITMAP
E070
E070
E070
E070
E470
E470
E470
E5F0
7FF0
3E70
0470
0470
0070
0070
0070
ENDCHAR
STARTCHAR 04BA
ENCODING 1210
SWIDTH 600 0
DWIDTH 16 0
BBX 13 19 2 0
BITMAP
E000
E000
E000
E000
E000
E000
E000
E7C0
FFF0
F870
E038
E038
E038
E038
E038
E038
E038
E038
E038
ENDCHAR
STARTCHAR 04BB
ENCODING 1211
SWIDTH 600 0
DWIDTH 16 0
BBX 11 21 3 0
BITMAP
4000
C000
C000
C000
C000
C000
C000
C000
CF80
DFC0
F1E0
E0E0
C0E0
C0E0
C0E0
C0E0
C0E0
C0E0
C0E0
C0E0
C0E0
ENDCHAR
STARTCHAR 04BC
ENCODING 1212
SWIDTH 600 0
DWIDTH 16 0
BBX 16 19 0 0
BITMAP
00F0
03F8
071C
060E
4E06
EE06
CC06
CC06
FFFF
7FFF
0C00
0C00
0C00
0E00
0E00
0700
078C
03FE
00F8
ENDCHAR
STARTCHAR 04BD
ENCODING 1213
SWIDTH 600 0
DWIDTH 16 0
BBX 15 15 0 0
BITMAP
01F0
03FC
071C
660E
CE06
EE06
7FFE
7FFE
0E00
0E00
0E00
0600
078C
03FE
00F8
ENDCHAR
STARTCHAR 04BE
ENCODING 1214
SWIDTH 600 0
DWIDTH 16 0
BBX 16 25 0 -6
BITMAP
00F0
03F8
071C
060E
4E06
EE06
CC06
CC06
FFFF
7FFF
0C00
0C00
0C00
0E00
0E00
0700
078C
03FE
00F8
00C0
0180
0180
0180
01F0
00F0
ENDCHAR
STARTCHAR 04BF
ENCODING 1215
SWIDTH 600 0
DWIDTH 16 0
BBX 15 21 0 -6
BITMAP
01F0
03FC
071C
660E
CE06
EE06
7FFE
7FFE
0E00
0E00
0E00
0600
078C
03FE
00F8
00C0
0180
0180
0180
01F0
00F0
ENDCHAR
STARTCHAR 04C0
ENCODING 1216
SWIDTH 600 0
DWIDTH 16 0
BBX 11 19 3 0
BITMAP
FFE0
FFE0
0E00
0E00
0E00
0E00
0E00
0E00
0E00
0E00
0E00
0E00
0E00
0E00
0E00
0E00
0E00
FFE0
FFE0
ENDCHAR
STARTCHAR 04C1
ENCODING 1217
SWIDTH 600 0
DWIDTH 16 0
BBX 16 24 0 0
BITMAP
0420
0C30
07F0
03E0
0000
6187
7186
718E
318E
398C
398C
199C
1998
1FF8
1FF8
1998
199C
398C
318C
318E
718E
7186
6187
E187
ENDCHAR
STARTCHAR 04C2
ENCODING 1218
SWIDTH 600 0
DWIDTH 16 0
BBX 16 21 0 0
BITMAP
0420
0C30
07F0
03E0
0000
0000
6187
7186
318E
398C
199C
1D98
0FF8
0FF8
1D98
199C
398C
318E
718E
7186
E187
ENDCHAR
STARTCHAR 04C3
ENCODING 1219
SWIDTH 600 0
DWIDTH 16 0
BBX 13 25 2 -6
BITMAP
E038
E070
E060
E0E0
E1C0
E1C0
E380
E300
FF80
FFE0
E0F0
E070
E038
E038
E038
E038
E038
E038
E038
0038
0038
0038
0270
07F0
03E0
ENDCHAR
STARTCHAR 04C4
ENCODING 1220
SWIDTH 600 0
DWIDTH 16 0
BBX 11 21 3 -6
BITMAP
C0E0
C1C0
C180
C380
C700
C700
CE00
FF80
FFC0
C1C0
C0E0
C0E0
C0E0
C0E0
C0E0
00E0
00E0
00E0
09C0
1FC0
0F80
ENDCHAR
STARTCHAR 04C5
ENCODING 1221
SWIDTH 600 0
DWIDTH 16 0
BBX 16 23 0 -4
BITMAP
0FFC
0FFC
0E1C
0E1C
0E1C
0E1C
0C1C
0C1C
0C1C
1C1C
1C1C
1C1C
1C1C
181C
381C
381C
701C
F01F
601E
000E
000E
000C
000C
ENDCHAR
STARTCHAR 04C6
ENCODING 1222
SWIDTH 600 0
DWIDTH 16 0
BBX 14 19 1 -4
BITMAP
1FF0
1FF0
1830
1830
1830
1830
1830
3830
3830
3830
3030
3030
7030
E03C
403C
001C
0018
0018
0038
ENDCHAR
STARTCHAR 04C7
ENCODING 1223
SWIDTH 600 0
DWIDTH 16 0
BBX 12 25 2 -6
BITMAP
E030
E030
E030
E030
E030
E030
E030
E030
FFF0
FFF0
E030
E030
E030
E030
E030
E030
E030
E030
E030
0030
0030
0070
0270
07E0
03C0
ENDCHAR
STARTCHAR 04C8
ENCODING 1224
SWIDTH 600 0
DWIDTH 16 0
BBX 11 21 3 -6
BITMAP
C0E0
C0E0
C0E0
C0E0
C0E0
C0E0
C0E0
FFE0
FFE0
C0E0
C0E0
C0E0
C0E0
C0E0
C0E0
00E0
00E0
00E0
09C0
1FC0
0F80
ENDCHAR
STARTCHAR 04C9
ENCODING 1225
SWIDTH 600 0
DWIDTH 16 0
BBX 14 23 2 -4
BITMAP
E060
E060
E060
E060
E060
E060
E060
E060
FFE0
FFE0
E060
E060
E060
E060
E060
E060
E060
E07C
E078
0038
0038
0030
0070
ENDCHAR
STARTCHAR 04CA
ENCODING 1226
SWIDTH 600 0
DWIDTH 16 0
BBX 12 19 3 -4
BITMAP
C0C0
C0C0
C0C0
C0C0
C0C0
C0C0
C0C0
FFC0
FFC0
C0C0
C0C0
C0C0
C0C0
C0F0
C0F0
0070
0060
0060
00E0
ENDCHAR
STARTCHAR 04CB
ENCODING 1227
SWIDTH 600 0
DWIDTH 16 0
BBX 13 23 1 -4
BITMAP
E018
E018
E018
E018
E018
E018
E018
E018
E018
6038
78F8
3FF8
1F98
0018
0018
0018
0018
0078
0078
0060
0060
0060
0060
ENDCHAR
STARTCHAR 04CC
ENCODING 1228
SWIDTH 600 0
DWIDTH 16 0
BBX 12 19 2 -4
BITMAP
E070
E070
E070
E070
E070
E070
E070
F1F0
7FF0
3E70
0070
0070
0070
01F0
01F0
0180
0180
0180
0180
ENDCHAR
STARTCHAR 04CD
ENCODING 1229
SWIDTH 600 0
DWIDTH 16 0
BBX 16 23 1 -4
BITMAP
7078
F078
F8F8
F8F8
F8F8
F8F8
F8F8
ECB8
CDB8
CDB8
CD98
CD98
C718
C718
C718
C718
C019
C01E
C01E
000E
000C
000C
001C
ENDCHAR
STARTCHAR 04CE
ENCODING 1230
SWIDTH 600 0
DWIDTH 16 0
BBX 15 19 1 -4
BITMAP
7870
7878
7878
78F8
6CF8
6CF8
6CF8
6CB8
6798
6798
6798
6718
E318
E01E
E01E
000E
000C
000C
001C
ENDCHAR
STARTCHAR 04CF
ENCODING 1231
SWIDTH 600 0
DWIDTH 16 0
BBX 12 21 2 0
BITMAP
FE00
FE00
0E00
0E00
0E00
0E00
0E00
0E00
0E00
0E00
0E00
0E00
0E00
0E00
0E00
0E00
0E00
0E00
0E10
07F0
03E0
ENDCHAR
STARTCHAR 04D0
ENCODING 1232
SWIDTH 600 0
DWIDTH 16 0
BBX 16 24 0 0
BITMAP
0420
0C30
07F0
03E0
0000
03C0
03C0
03E0
0760
0660
0670
0E70
0E30
0C38
1C38
1C18
181C
3FFC
3FFC
300E
300E
700E
7007
E007
ENDCHAR
STARTCHAR 04D1
ENCODING 1233
SWIDTH 600 0
DWIDTH 16 0
BBX 12 21 2 0
BITMAP
1080
30C0
3F80
1F00
0000
0000
3F80
7FC0
61E0
00E0
0060
0060
1FE0
7FE0
F060
E060
E060
E0E0
F1F0
7F70
3E30
ENDCHAR
STARTCHAR 04D2
ENCODING 1234
SWIDTH 600 0
DWIDTH 16 0
BBX 16 24 0 0
BITMAP
0C30
0E78
0E30
0000
0000
03C0
03C0
03E0
0760
0660
0670
0E70
0E30
0C38
1C38
1C18
181C
3FFC
3FFC
300E
300E
700E
7007
E007
ENDCHAR
STARTCHAR 04D3
ENCODING 1235
SWIDTH 600 0
DWIDTH 16 0
BBX 12 21 2 0
BITMAP
30C0
79C0
30C0
0000
0000
0000
3F80
7FC0
61E0
00E0
0060
0060
1FE0
7FE0
F060
E060
E060
E0E0
F1F0
7F70
3E30
ENDCHAR
STARTCHAR 04D4
ENCODING 1236
SWIDTH 600 0
DWIDTH 16 0
BBX 17 19 0 0
BITMAP
07FE00
07FE00
0D8000
0D8000
0D8000
1DC000
1DC000
18C000
18FE00
38FE00
38E000
30E000
3FE000
7FE000
707000
607000
E07000
E03F80
E03F80
ENDCHAR
STARTCHAR 04D5
ENCODING 1237
SWIDTH 600 0
DWIDTH 16 0
BBX 17 15 0 0
BITMAP
3E3C00
7F7E00
43E700
01C300
018300
018300
1FFF80
7FFF80
F18000
E18000
C1C000
E1C000
E3E200
7E7F00
3C3E00
ENDCHAR
STARTCHAR 04D6
ENCODING 1238
SWIDTH 600 0
DWIDTH 16 0
BBX 11 24 3 0
BITMAP
2080
31C0
3F80
1F00
0000
FFE0
FFE0
E000
E000
E000
E000
E000
E000
FFC0
FFC0
E000
E000
E000
E000
E000
E000
E000
FFE0
FFE0
ENDCHAR
STARTCHAR 04D7
ENCODING 1239
SWIDTH 600 0
DWIDTH 16 0
BBX 12 21 2 0
BITMAP
1060
38C0
1FC0
0F80
0000
0000
0F80
3FC0
78E0
7070
E030
E030
FFF0
FFF0
E000
E000
E000
7000
7860
3FF0
0FC0
ENDCHAR
STARTCHAR 04D8
ENCODING 1240
SWIDTH 600 0
DWIDTH 16 0
BBX 14 19 1 0
BITMAP
0FC0
3FF0
7870
2038
001C
001C
001C
001C
FFFC
FFFC
E01C
E01C
E01C
601C
7018
7038
3870
1FE0
0FC0
ENDCHAR
STARTCHAR 04D9
ENCODING 1241
SWIDTH 600 0
DWIDTH 16 0
BBX 13 15 2 0
BITMAP
1F80
7FC0
70E0
0070
0070
0030
FFF0
FFF8
C030
E030
E070
6070
70E0
3FC0
1F80
ENDCHAR
STARTCHAR 04DA
ENCODING 1242
SWIDTH 600 0
DWIDTH 16 0
BBX 14 24 1 0
BITMAP
1860
3CF0
1860
0000
0000
0FC0
3FF0
7870
2038
001C
001C
001C
001C
FFFC
FFFC
E01C
E01C
E01C
601C
7018
7038
3870
1FE0
0FC0
ENDCHAR
STARTCHAR 04DB
ENCODING 1243
SWIDTH 600 0
DWIDTH 16 0
BBX 13 21 2 0
BITMAP
38C0
38E0
38C0
0000
0000
0000
1F80
7FC0
70E0
0070
0070
0030
FFF0
FFF8
C030
E030
E070
6070
70E0
3FC0
1F80
ENDCHAR
STARTCHAR 04DC
ENCODING 1244
SWIDTH 600 0
DWIDTH 16 0
BBX 16 24 0 0
BITMAP
0C30
0E78
0E30
0000
0000
6187
7186
718E
318E
398C
398C
199C
1998
1FF8
1FF8
1998
199C
398C
318C
318E
718E
7186
6187
E187
ENDCHAR
STARTCHAR 04DD
ENCODING 1245
SWIDTH 600 0
DWIDTH 16 0
BBX 16 21 0 0
BITMAP
0C30
0E78
0E30
0000
0000
0000
6187
7186
318E
398C
199C
1D98
0FF8
0FF8
1D98
199C
398C
318E
718E
7186
E187
ENDCHAR
STARTCHAR 04DE
ENCODING 1246
SWIDTH 600 0
DWIDTH 16 0
BBX 14 24 1 0
BITMAP
1860
1CF0
1860
0000
0000
1FC0
7FF0
F078
4038
0038
0038
0070
0FE0
1FE0
0078
0038
001C
001C
001C
001C
4038
F078
7FF0
1FC0
ENDCHAR
STARTCHAR 04DF
ENCODING 1247
SWIDTH 600 0
DWIDTH 16 0
BBX 13 21 1 0
BITMAP
1860
3CE0
1860
0000
0000
0000
0FC0
7FE0
70F0
0030
0030
0070
0FC0
0FE0
0078
0038
0038
4038
F078
7FF0
1FC0
ENDCHAR
STARTCHAR 04E0
ENCODING 1248
SWIDTH 600 0
DWIDTH 16 0
BBX 13 19 2 0
BITMAP
7FF0
7FF0
00E0
01C0
0380
0700
0E00
1C00
1FC0
1FE0
00F0
0070
0038
0038
0030
4070
E0F0
FFE0
3F80
ENDCHAR
STARTCHAR 04E1
ENCODING 1249
SWIDTH 600 0
DWIDTH 16 0
BBX 12 21 2 -6
BITMAP
FFF0
FFF0
00E0
01C0
0180
0380
0700
0E00
1C00
1F80
1FE0
01E0
0070
0070
0070
0070
0070
4070
E1E0
7FC0
3F00
ENDCHAR
STARTCHAR 04E2
ENCODING 1250
SWIDTH 600 0
DWIDTH 16 0
BBX 12 24 2 0
BITMAP
3FC0
3FC0
0000
0000
0000
E070
E0F0
E0F0
E0F0
E1B0
E1B0
E3B0
E330
E330
E630
E630
EE30
EC30
EC30
F830
D830
F830
F030
F030
ENDCHAR
STARTCHAR 04E3
ENCODING 1251
SWIDTH 600 0
DWIDTH 16 0
BBX 11 21 3 0
BITMAP
7F80
7F80
0000
0000
0000
0000
C1E0
C1E0
C3E0
C3E0
C7E0
C6E0
C6E0
CCE0
CCE0
D8E0
D8E0
F0E0
F0E0
E0E0
E0E0
ENDCHAR
STARTCHAR 04E4
ENCODING 1252
SWIDTH 600 0
DWIDTH 16 0
BBX 12 24 2 0
BITMAP
30C0
39E0
38C0
0000
0000
E070
E0F0
E0F0
E0F0
E1B0
E1B0
E3B0
E330
E330
E630
E630
EE30
EC30
EC30
F830
D830
F830
F030
F030
ENDCHAR
STARTCHAR 04E5
ENCODING 1253
SWIDTH 600 0
DWIDTH 16 0
BBX 11 21 3 0
BITMAP
6180
73C0
7180
0000
0000
0000
C1E0
C1E0
C3E0
C3E0
C7E0
C6E0
C6E0
CCE0
CCE0
D8E0
D8E0
F0E0
F0E0
E0E0
E0E0
ENDCHAR
STARTCHAR 04E6
ENCODING 1254
SWIDTH 600 0
DWIDTH 16 0
BBX 14 24 1 0
BITMAP
1860
1CF0
1C60
0000
0000
07C0
1FE0
3C70
7038
7018
601C
E01C
E01C
E01C
E01C
E01C
E01C
E01C
601C
7018
7038
3C70
1FE0
07C0
ENDCHAR
STARTCHAR 04E7
ENCODING 1255
SWIDTH 600 0
DWIDTH 16 0
BBX 13 21 2 0
BITMAP
30C0
39E0
38C0
0000
0000
0000
0F80
3FC0
78E0
7070
E070
E030
E030
E038
E038
E030
E070
7070
78E0
3FC0
1F80
ENDCHAR
STARTCHAR 04E8
ENCODING 1256
SWIDTH 600 0
DWIDTH 16 0
BBX 14 19 1 0
BITMAP
07C0
1FE0
3870
7038
7018
601C
E01C
E01C
FFFC
FFFC
E01C
E01C
E01C
601C
7018
7038
3C70
1FE0
07C0
ENDCHAR
STARTCHAR 04E9
ENCODING 1257
SWIDTH 600 0
DWIDTH 16 0
BBX 13 15 2 0
BITMAP
0F80
3FC0
78E0
6070
E070
E030
FFF0
FFF8
E038
E030
E070
7070
78E0
3FC0
1F80
ENDCHAR
STARTCHAR 04EA
ENCODING 1258
SWIDTH 600 0
DWIDTH 16 0
BBX 14 24 1 0
BITMAP
1860
1CF0
1C60
0000
0000
07C0
1FE0
3870
7038
7018
601C
E01C
E01C
FFFC
FFFC
E01C
E01C
E01C
601C
7018
7038
3C70
1FE0
07C0
ENDCHAR
STARTCHAR 04EB
ENCODING 1259
SWIDTH 600 0
DWIDTH 16 0
BBX 13 21 2 0
BITMAP
38C0
39E0
38C0
0000
0000
0000
0F80
3FC0
78E0
6070
E070
E030
FFF0
FFF8
E038
E030
E070
7070
78E0
3FC0
1F80
ENDCHAR
STARTCHAR 04EC
ENCODING 1260
SWIDTH 600 0
DWIDTH 16 0
BBX 14 24 1 0
BITMAP
1860
3CE0
1860
0000
0000
1F80
7FE0
F0F0
4038
0038
0018
001C
001C
1FFC
1FFC
001C
001C
001C
0038
0038
4070
F0F0
7FE0
1F80
ENDCHAR
STARTCHAR 04ED
ENCODING 1261
SWIDTH 600 0
DWIDTH 16 0
BBX 12 21 2 0
BITMAP
30C0
39E0
30C0
0000
0000
0000
1F80
7FC0
61E0
0060
0070
0070
1FF0
1FF0
0070
0070
0070
00E0
61E0
FFC0
1F00
ENDCHAR
STARTCHAR 04EE
ENCODING 1262
SWIDTH 600 0
DWIDTH 16 0
BBX 15 25 1 -1
BITMAP
0FE0
0FE0
0000
0000
0000
E00E
E00C
601C
701C
3038
3838
3830
1C70
1C70
0C60
0EE0
06C0
07C0
03C0
0380
0380
0700
3E00
3C00
2000
ENDCHAR
STARTCHAR 04EF
ENCODING 1263
SWIDTH 600 0
DWIDTH 16 0
BBX 13 27 2 -6
BITMAP
3FC0
3FC0
0000
0000
0000
0000
C038
E030
E070
6070
7060
7060
30E0
38C0
38C0
19C0
1D80
1D80
0F80
0F00
0F00
0700
0600
0E00
3C00
7800
6000
ENDCHAR
STARTCHAR 04F0
ENCODING 1264
SWIDTH 600 0
DWIDTH 16 0
BBX 15 25 1 -1
BITMAP
1C70
1C70
1C70
0000
0000
E00E
E00C
601C
701C
3038
3838
3830
1C70
1C70
0C60
0EE0
06C0
07C0
03C0
0380
0380
0700
3E00
3C00
2000
ENDCHAR
STARTCHAR 04F1
ENCODING 1265
SWIDTH 600 0
DWIDTH 16 0
BBX 13 27 2 -6
BITMAP
30C0
39E0
38C0
0000
0000
0000
C038
E030
E070
6070
7060
7060
30E0
38C0
38C0
19C0
1D80
1D80
0F80
0F00
0F00
0700
0600
0E00
3C00
7800
6000
ENDCHAR
STARTCHAR 04F2
ENCODING 1266
SWIDTH 600 0
DWIDTH 16 0
BBX 15 27 1 -1
BITMAP
0210
03B8
0730
0670
0C60
0420
0000
E00E
E00C
601C
701C
3038
3838
3830
1C70
1C70
0C60
0EE0
06C0
07C0
03C0
0380
0380
0700
3E00
3C00
2000
ENDCHAR
STARTCHAR 04F3
ENCODING 1267
SWIDTH 600 0
DWIDTH 16 0
BBX 13 29 2 -6
BITMAP
0460
0E70
0CE0
1CC0
19C0
0880
0000
0000
C038
E030
E070
6070
7060
7060
30E0
38C0
38C0
19C0
1D80
1D80
0F80
0F00
0F00
0700
0600
0E00
3C00
7800
6000
ENDCHAR
STARTCHAR 04F4
ENCODING 1268
SWIDTH 600 0
DWIDTH 16 0
BBX 13 24 1 0
BITMAP
1860
3CE0
1860
0000
0000
E018
E018
E018
E018
E018
E018
E018
E018
E018
6038
78F8
3FF8
1F98
0018
0018
0018
0018
0018
0018
ENDCHAR
STARTCHAR 04F5
ENCODING 1269
SWIDTH 600 0
DWIDTH 16 0
BBX 12 21 2 0
BITMAP
30C0
79C0
30C0
0000
0000
0000
E070
E070
E070
E070
E070
E070
E070
F1F0
7FF0
3E70
0070
0070
0070
0070
0070
ENDCHAR
STARTCHAR 04F6
ENCODING 1270
SWIDTH 600 0
DWIDTH 16 0
BBX 11 23 4 -4
BITMAP
FFE0
FFE0
C000
C000
C000
C000
C000
C000
C000
C000
C000
C000
C000
C000
C000
C000
C000
F000
F000
7000
7000
3000
3000
ENDCHAR
STARTCHAR 04F7
ENCODING 1271
SWIDTH 600 0
DWIDTH 16 0
BBX 10 19 4 -4
BITMAP
FFC0
FFC0
E000
E000
E000
E000
E000
E000
E000
E000
E000
E000
E000
F800
F800
3800
1800
1800
1800
ENDCHAR
STARTCHAR 04F8
ENCODING 1272
SWIDTH 600 0
DWIDTH 16 0
BBX 15 24 1 0
BITMAP
1860
1CF0
1C60
0000
0000
C00E
C00E
C00E
C00E
C00E
C00E
C00E
FF0E
FF8E
C3CE
C1CE
C0EE
C0EE
C0EE
C0EE
C1CE
C3CE
FF8E
FE0E
ENDCHAR
STARTCHAR 04F9
ENCODING 1273
SWIDTH 600 0
DWIDTH 16 0
BBX 13 21 2 0
BITMAP
30C0
39E0
38C0
0000
0000
0000
C038
C038
C038
C038
C038
FC38
FF38
C738
C3B8
C3B8
C3B8
C3B8
C738
FF38
FC38
ENDCHAR
STARTCHAR 04FA
ENCODING 1274
SWIDTH 600 0
DWIDTH 16 0
BBX 14 25 2 -6
BITMAP
1FFC
1FFC
1800
1800
1800
1800
1800
FFC0
FFC0
1800
1800
1800
1800
1800
1800
1800
1800
1E00
1E00
0E00
0E00
0E00
8E00
FC00
7800
ENDCHAR
STARTCHAR 04FB
ENCODING 1275
SWIDTH 600 0
DWIDTH 16 0
BBX 13 21 2 -6
BITMAP
1FF8
1FF8
1C00
1C00
1C00
1C00
1C00
FF80
FF80
1C00
1C00
1C00
1C00
1E00
1E00
0600
0600
0600
4E00
FC00
7800
ENDCHAR
STARTCHAR 04FC
ENCODING 1276
SWIDTH 600 0
DWIDTH 16 0
BBX 16 25 0 -6
BITMAP
701E
381C
3838
1C38
1C70
0E60
06E0
07C0
03C0
03C0
07C0
06E0
0E70
0C70
1C38
3838
381C
701F
F00F
0007
0007
0007
0047
007E
007C
ENDCHAR
STARTCHAR 04FD
ENCODING 1277
SWIDTH 600 0
DWIDTH 16 0
BBX 14 21 1 -6
BITMAP
7038
3870
3860
1CE0
0CC0
0FC0
0780
0780
0F80
0DC0
1CE0
38E0
3870
703C
E03C
000C
000C
001C
011C
01F8
00F0
ENDCHAR
STARTCHAR 04FE
ENCODING 1278
SWIDTH 600 0
DWIDTH 16 0
BBX 15 19 1 0
BITMAP
F01C
7038
3838
3870
1C60
1CE0
0EC0
07C0
FFFC
FFFC
07C0
0EC0
1CE0
1C70
3870
3838
7038
601C
E01E
ENDCHAR
STARTCHAR 04FF
ENCODING 1279
SWIDTH 600 0
DWIDTH 16 0
BBX 14 15 1 0
BITMAP
7038
3830
1870
1C60
0CC0
0FC0
7FF8
7FF8
07C0
0EC0
1CE0
1870
3870
7038
F01C
ENDCHAR
STARTCHAR 0500
ENCODING 1280
SWIDTH 600 0
DWIDTH 16 0
BBX 13 19 1 0
BITMAP
0038
0038
0038
0038
0038
0038
0038
0FF8
3FF8
7838
7038
E038
E038
E038
E038
7038
7838
3FF8
0FF8
ENDCHAR
STARTCHAR 0501
ENCODING 1281
SWIDTH 600 0
DWIDTH 16 0
BBX 12 21 2 0
BITMAP
0070
0070
0070
0070
0070
0070
1F70
3FF0
79F0
E070
E070
E070
E070
E070
E070
E070
E070
E070
71F0
7FF0
1E70
ENDCHAR
STARTCHAR 0502
ENCODING 1282
SWIDTH 600 0
DWIDTH 16 0
BBX 16 19 0 0
BITMAP
01C0
01C0
01C0
01C0
01C0
01C0
01C0
1FC0
3FC7
71C7
61C7
E1C7
E1C7
E1C7
E1C7
E1C7
73EE
7FFE
1C78
ENDCHAR
STARTCHAR 0503
ENCODING 1283
SWIDTH 600 0
DWIDTH 16 0
BBX 16 21 0 0
BITMAP
01C0
01C0
01C0
01C0
01C0
01C0
1DC0
3FC0
73C0
71C0
61C7
E1C3
E1C3
E1C3
E1C3
E1C3
E1C7
61C7
73E6
3EFE
1C7C
ENDCHAR
STARTCHAR 0504
ENCODING 1284
SWIDTH 600 0
DWIDTH 16 0
BBX 15 19 1 0
BITMAP
FC00
FF00
0780
0380
0380
0380
0380
0380
070E
FE0E
F80E
1C0E
1C0E
0E0E
0E0E
070C
079C
03F8
01F0
ENDCHAR
STARTCHAR 0505
ENCODING 1285
SWIDTH 600 0
DWIDTH 16 0
BBX 16 15 0 0
BITMAP
FE00
FF80
0380
01C0
01C7
01C7
0387
7F07
7E07
0E07
0707
0706
038E
01FC
00F8
ENDCHAR
STARTCHAR 0506
ENCODING 1286
SWIDTH 600 0
DWIDTH 16 0
BBX 13 23 2 -4
BITMAP
FF00
FFC0
01E0
00F0
0070
0070
0070
00E0
01E0
7FC0
7F00
0700
0300
0380
01C0
01C0
00E0
0078
0078
0018
0018
0018
0018
ENDCHAR
STARTCHAR 0507
ENCODING 1287
SWIDTH 600 0
DWIDTH 16 0
BBX 13 19 2 -4
BITMAP
FF00
FFC0
01C0
00E0
00E0
00E0
01C0
7FC0
7F00
0300
0380
01C0
01C0
00F8
0078
0038
0038
0038
0038
ENDCHAR
STARTCHAR 0508
ENCODING 1288
SWIDTH 600 0
DWIDTH 16 0
BBX 16 19 0 0
BITMAP
1FC0
1FC0
18C0
18C0
38C0
38C0
38C0
38C0
38C7
38C7
38C3
30C3
30C3
30C7
70C7
70C7
60EE
E0FE
403C
ENDCHAR
STARTCHAR 0509
ENCODING 1289
SWIDTH 600 0
DWIDTH 16 0
BBX 16 15 0 0
BITMAP
3FC0
3FC0
39C0
39C0
39C7
39C7
31C3
31C3
31C3
31C7
71C7
71C7
60EE
E0FE
4078
ENDCHAR
STARTCHAR 050A
ENCODING 1290
SWIDTH 600 0
DWIDTH 16 0
BBX 15 19 1 0
BITMAP
E180
E180
E180
E180
E180
E180
E180
E180
FF8E
FF8E
E186
E186
E186
E18E
E18E
E18E
E1DC
E1FC
E078
ENDCHAR
STARTCHAR 050B
ENCODING 1291
SWIDTH 600 0
DWIDTH 16 0
BBX 15 15 1 0
BITMAP
E380
E380
E380
E380
E386
E386
FF86
FF86
E386
E386
E38E
E18E
E1DC
E1FC
E0F0
ENDCHAR
STARTCHAR 050C
ENCODING 1292
SWIDTH 600 0
DWIDTH 16 0
BBX 14 19 1 0
BITMAP
07E0
0FF8
3C3C
3808
7000
7000
E000
E000
E1FC
E0FC
E01C
E01C
E01C
601C
701C
781C
3C3C
1FFC
07E0
ENDCHAR
STARTCHAR 050D
ENCODING 1293
SWIDTH 600 0
DWIDTH 16 0
BBX 12 15 2 0
BITMAP
0FC0
3FF0
7860
7000
E000
E000
E3F0
E1F0
E070
E070
E070
7070
78F0
3FF0
0FC0
ENDCHAR
STARTCHAR 050E
ENCODING 1294
SWIDTH 600 0
DWIDTH 16 0
BBX 16 19 0 0
BITMAP
FFF8
FFF8
0700
0700
0700
0700
0700
0700
0706
0707
0707
0707
0707
0706
0706
070E
039C
03FC
00F0
ENDCHAR
STARTCHAR 050F
ENCODING 1295
SWIDTH 600 0
DWIDTH 16 0
BBX 15 15 0 0
BITMAP
FFF0
FFF0
0600
0600
060E
060E
060E
060E
060E
060E
060E
060C
071C
03F8
01F0
ENDCHAR
STARTCHAR 0510
ENCODING 1296
SWIDTH 600 0
DWIDTH 16 0
BBX 14 19 2 0
BITMAP
0FC0
3FF0
7878
E010
E000
E000
7000
3FC0
3FC0
7800
E000
E000
C000
C000
E000
E018
787C
3FF0
0FC0
ENDCHAR
STARTCHAR 0511
ENCODING 1297
SWIDTH 600 0
DWIDTH 16 0
BBX 13 15 2 0
BITMAP
0FC0
3FF8
7870
7000
7000
3800
1F80
3F80
7000
E000
E000
E010
7878
3FF0
1FC0
ENDCHAR
STARTCHAR 0512
ENCODING 1298
SWIDTH 600 0
DWIDTH 16 0
BBX 14 25 0 -6
BITMAP
0FFC
0FFC
0E0C
0E0C
0E0C
0C0C
0C0C
0C0C
1C0C
1C0C
1C0C
1C0C
180C
180C
380C
380C
700C
F00C
600C
400C
000C
001C
009C
01F8
00F0
ENDCHAR
STARTCHAR 0513
ENCODING 1299
SWIDTH 600 0
DWIDTH 16 0
BBX 13 21 1 -6
BITMAP
1FF8
1FF8
1838
1838
1838
1838
1838
3838
3838
3838
3838
3038
7038
E038
4038
0038
0038
0038
0238
03F0
01E0
ENDCHAR
STARTCHAR 0514
ENCODING 1300
SWIDTH 600 0
DWIDTH 16 0
BBX 17 19 0 0
BITMAP
1F8700
1F8700
198600
39CE00
38CC00
38CC00
38FC00
387800
387800
387800
387800
30FC00
30CC00
30CC00
71CE00
718600
638700
E30700
470380
ENDCHAR
STARTCHAR 0515
ENCODING 1301
SWIDTH 600 0
DWIDTH 16 0
BBX 16 15 0 0
BITMAP
1F87
1FC6
18CE
18CC
38EC
3878
3878
3878
3878
307C
30CC
30CE
7186
E187
4383
ENDCHAR
STARTCHAR 0516
ENCODING 1302
SWIDTH 600 0
DWIDTH 16 0
BBX 15 19 1 0
BITMAP
FE0E
FF0C
E39C
E198
E1F8
E1F0
E1F0
E1E0
E1E0
E3E0
FFE0
FC70
E070
E038
E038
E01C
E01C
E00C
E00E
ENDCHAR
STARTCHAR 0517
ENCODING 1303
SWIDTH 600 0
DWIDTH 16 0
BBX 15 21 1 -6
BITMAP
CF0E
DF8C
F39C
E198
E1D8
E1F8
E1F0
E1F0
E1F0
E1F8
E1D8
E19C
F38C
FF0E
EE0E
E000
E000
E000
E000
E000
8000
ENDCHAR
STARTCHAR 0518
ENCODING 1304
SWIDTH 600 0
DWIDTH 16 0
BBX 16 19 0 0
BITMAP
0FFF
3FFF
78E0
70E0
60E0
E0E0
60E0
70E0
78FE
3FFE
0FE0
1CE0
1CE0
38E0
38E0
38E0
70E0
70FF
E0FF
ENDCHAR
STARTCHAR 0519
ENCODING 1305
SWIDTH 600 0
DWIDTH 16 0
BBX 16 15 0 0
BITMAP
1FFC
3FFE
71C6
61C7
E183
6383
73FF
3FFF
1F80
1980
3980
31C0
70E3
60FF
E03C
ENDCHAR
STARTCHAR 051A
ENCODING 1306
SWIDTH 600 0
DWIDTH 16 0
BBX 15 24 1 -5
BITMAP
07C0
1FE0
3C70
7038
7018
601C
E01C
E01C
E01C
E01C
E01C
E01C
E01C
601C
7018
7038
3C70
1FE0
0FF0
003C
001C
000E
000E
0008
ENDCHAR
STARTCHAR 051B
ENCODING 1307
SWIDTH 600 0
DWIDTH 16 0
BBX 12 21 2 -6
BITMAP
1F70
3FF0
78F0
6070
E070
E070
E070
E070
E070
E070
E070
E070
71F0
7FF0
1E70
0070
0070
0070
0070
0070
0010
ENDCHAR
STARTCHAR 051C
ENCODING 1308
SWIDTH 600 0
DWIDTH 16 0
BBX 16 19 0 0
BITMAP
E003
E003
E1C3
63C7
63C7
63C7
63C6
7366
7366
7266
7666
366E
366E
366C
363C
363C
3C3C
3C3C
1C3C
ENDCHAR
STARTCHAR 051D
ENCODING 1309
SWIDTH 600 0
DWIDTH 16 0
BBX 16 15 0 0
BITMAP
E007
6007
61C7
61C6
73C6
73C6
3366
3366
336E
366C
366C
366C
1E3C
1E3C
1C3C
ENDCHAR
STARTCHAR 051E
ENCODING 1310
SWIDTH 600 0
DWIDTH 16 0
BBX 14 19 2 0
BITMAP
E03C
E430
EF70
E3E0
E1E0
E1F8
E39C
E708
FF00
FF00
E700
E380
E1C0
E1C0
E0E0
E070
E070
E038
E03C
ENDCHAR
STARTCHAR 051F
ENCODING 1311
SWIDTH 600 0
DWIDTH 16 0
BBX 13 15 3 0
BITMAP
C070
C4E0
CFC0
C3C0
C3E0
C770
FF20
FF00
C700
C380
C1C0
C1C0
C0E0
C070
C078
ENDCHAR
STARTCHAR 0520
ENCODING 1312
SWIDTH 600 0
DWIDTH 16 0
BBX 16 25 0 -6
BITMAP
3FC0
3FC0
39C0
39C0
39C0
39C0
39C0
31FC
31FE
31C7
31C7
31C7
71C7
71C7
71C7
71C7
61C7
E1C7
C1C7
0007
0007
0007
0047
007E
003C
ENDCHAR
STARTCHAR 0521
ENCODING 1313
SWIDTH 600 0
DWIDTH 16 0
BBX 16 21 0 -6
BITMAP
3FC0
3FC0
31C0
31C0
31C0
31DE
31FF
31E7
71C3
71C3
71C3
61C3
61C3
E1C3
C1C3
0003
0003
0003
0027
007F
003C
ENDCHAR
STARTCHAR 0522
ENCODING 1314
SWIDTH 600 0
DWIDTH 16 0
BBX 15 25 1 -6
BITMAP
C380
C380
C380
C380
C380
C380
C380
C3FC
FFFC
FF8E
C386
C386
C386
C386
C386
C386
C386
C386
C386
0006
0006
0006
004E
00FC
0078
ENDCHAR
STARTCHAR 0523
ENCODING 1315
SWIDTH 600 0
DWIDTH 16 0
BBX 15 21 1 -6
BITMAP
C380
C380
C380
C380
C380
C3BC
C3FE
FFCE
FF86
C386
C386
C386
C386
C386
C386
0006
0006
0006
004E
00FE
0078
ENDCHAR
STARTCHAR 0524
ENCODING 1316
SWIDTH 600 0
DWIDTH 16 0
BBX 14 23 2 -4
BITMAP
FFF0
FFF0
E030
E030
E030
E030
E030
E030
E030
E030
E030
E030
E030
E030
E030
E030
E030
E03C
E03C
001C
001C
000C
000C
ENDCHAR
STARTCHAR 0525
ENCODING 1317
SWIDTH 600 0
DWIDTH 16 0
BBX 14 19 2 -4
BITMAP
FFF0
FFF0
E070
E070
E070
E070
E070
E070
E070
E070
E070
E070
E070
E07C
E07C
001C
001C
001C
000C
ENDCHAR
STARTCHAR 0526
ENCODING 1318
SWIDTH 600 0
DWIDTH 16 0
BBX 14 23 2 -4
BITMAP
E000
E000
E000
E000
E000
E000
E000
EFC0
FFE0
F870
E038
E038
E038
E038
E038
E038
E038
E03C
E03C
000C
000C
000C
000C
ENDCHAR
STARTCHAR 0527
ENCODING 1319
SWIDTH 600 0
DWIDTH 16 0
BBX 14 25 2 -4
BITMAP
2000
E000
E000
E000
E000
E000
E000
E000
E7C0
EFE0
F8E0
F070
E070
E070
E070
E070
E070
E070
E070
E07C
E07C
001C
001C
000C
000C
ENDCHAR
STARTCHAR 0528
ENCODING 1320
SWIDTH 600 0
DWIDTH 16 0
BBX 17 25 -3 -6
BITMAP
070180
070180
070180
070180
070180
070180
070180
070180
07FF80
07FF80
070180
070180
070180
070180
070180
070180
070180
070180
070180
070000
070000
070000
4F0000
FE0000
7C0000
ENDCHAR
STARTCHAR 0529
ENCODING 1321
SWIDTH 600 0
DWIDTH 16 0
BBX 16 21 -2 -6
BITMAP
0607
0607
0607
0607
0607
0607
0607
07FF
07FF
0607
0607
0607
0607
0607
0607
0600
0600
0600
4E00
FC00
7800
ENDCHAR
STARTCHAR 052A
ENCODING 1322
SWIDTH 600 0
DWIDTH 16 0
BBX 17 23 0 -4
BITMAP
1F3300
1F3300
1B3300
3B3600
3B3600
3B3600
3B3600
333E00
33FC00
33FC00
333E00
333600
333600
733600
733700
633300
633300
FFF300
FFF380
C0C000
C0C000
C0C000
80C000
ENDCHAR
STARTCHAR 052B
ENCODING 1323
SWIDTH 600 0
DWIDTH 16 0
BBX 17 19 0 -4
BITMAP
3F6300
3F6300
336600
336600
336600
336C00
33FC00
33FC00
336C00
336E00
736600
636600
636700
FFE300
FFE380
C0C000
C0C000
C0C000
C0C000
ENDCHAR
STARTCHAR 052C
ENCODING 1324
SWIDTH 600 0
DWIDTH 16 0
BBX 15 23 1 -4
BITMAP
E3F8
E3F8
E718
E718
E718
6718
7718
7E18
3FF8
0FF8
0E18
0E18
0C18
1C18
1C18
3818
3018
FFFE
FFFE
E00E
E00E
E00E
E00E
ENDCHAR
STARTCHAR 052D
ENCODING 1325
SWIDTH 600 0
DWIDTH 16 0
BBX 14 19 1 -4
BITMAP
E7F8
E7F8
EE38
EE38
EE38
7E38
7FF8
1FF8
0C38
0C38
1C38
1838
3838
7FFC
7FFC
600C
600C
600C
600C
ENDCHAR
STARTCHAR 052E
ENCODING 1326
SWIDTH 600 0
DWIDTH 16 0
BBX 15 23 0 -4
BITMAP
0FF8
0FF8
0E18
0C18
0C18
0C18
1C18
1C18
1C18
1C18
1C18
1818
1818
3818
3818
3018
7018
E01E
401E
0006
0006
0006
0006
ENDCHAR
STARTCHAR 052F
ENCODING 1327
SWIDTH 600 0
DWIDTH 16 0
BBX 15 19 1 -4
BITMAP
1FF0
1FF0
1830
1830
1830
3830
3830
3830
3830
3830
3030
3030
7030
E03E
C03E
000E
000E
000E
000E
ENDCHAR
STARTCHAR 1405
ENCODING 5125
SWIDTH 600 0
DWIDTH 16 0
BBX 15 17 1 1
BITMAP
8000
C000
F000
FC00
DF00
C780
C1E0
C0F8
C03E
C078
C1E0
C7C0
DF00
FC00
F000
E000
8000
ENDCHAR
STARTCHAR 140A
ENCODING 5130
SWIDTH 600 0
DWIDTH 16 0
BBX 15 17 1 1
BITMAP
0002
000E
003E
007E
01EE
078E
1F0E
3C0E
F00E
7C0E
1F0E
078E
01EE
00FE
003E
000E
0002
ENDCHAR
STARTCHAR 1E80
ENCODING 7808
SWIDTH 600 0
DWIDTH 16 0
BBX 16 25 0 0
BITMAP
0200
0780
03E0
00E0
0000
0000
E003
E003
E1C3
63C7
63C7
63C7
63C6
7366
7366
7266
7666
366E
366E
366C
363C
363C
3C3C
3C3C
1C3C
ENDCHAR
STARTCHAR 1E81
ENCODING 7809
SWIDTH 600 0
DWIDTH 16 0
BBX 16 22 0 0
BITMAP
0200
0300
07C0
01E0
0020
0000
0000
E007
6007
61C7
61C6
73C6
73C6
3366
3366
336E
366C
366C
366C
1E3C
1E3C
1C3C
ENDCHAR
STARTCHAR 1E82
ENCODING 7810
SWIDTH 600 0
DWIDTH 16 0
BBX 16 25 0 0
BITMAP
0020
00E0
03F0
0700
0000
0000
E003
E003
E1C3
63C7
63C7
63C7
63C6
7366
7366
7266
7666
366E
366E
366C
363C
363C
3C3C
3C3C
1C3C
ENDCHAR
STARTCHAR 1E83
ENCODING 7811
SWIDTH 600 0
DWIDTH 16 0
BBX 16 22 0 0
BITMAP
0020
00E0
03F0
0700
0400
0000
0000
E007
6007
61C7
61C6
73C6
73C6
3366
3366
336E
366C
366C
366C
1E3C
1E3C
1C3C
ENDCHAR
STARTCHAR 1E84
ENCODING 7812
SWIDTH 600 0
DWIDTH 16 0
BBX 16 24 0 0
BITMAP
0C30
0E78
0E30
0000
0000
E003
E003
E1C3
63C7
63C7
63C7
63C6
7366
7366
7266
7666
366E
366E
366C
363C
363C
3C3C
3C3C
1C3C
ENDCHAR
STARTCHAR 1E85
ENCODING 7813
SWIDTH 600 0
DWIDTH 16 0
BBX 16 21 0 0
BITMAP
0C30
0E78
0E30
0000
0000
0000
E007
6007
61C7
61C6
73C6
73C6
3366
3366
336E
366C
366C
366C
1E3C
1E3C
1C3C
ENDCHAR
STARTCHAR 1E9E
ENCODING 7838
SWIDTH 600 0
DWIDTH 16 0
BBX 14 19 2 0
BITMAP
1F80
7FF0
7078
E038
E070
C0E0
C1C0
C380
C380
C3F0
C078
C01C
C01C
C01C
C01C
C01C
C038
C7F0
C7E0
ENDCHAR
STARTCHAR 1EF2
ENCODING 7922
SWIDTH 600 0
DWIDTH 16 0
BBX 16 25 0 0
BITMAP
0200
0780
03F0
0060
0000
0000
F007
700E
380E
381C
1C1C
1C38
0E30
0670
0760
03E0
03C0
01C0
01C0
01C0
01C0
01C0
01C0
01C0
01C0
ENDCHAR
STARTCHAR 1EF3
ENCODING 7923
SWIDTH 600 0
DWIDTH 16 0
BBX 13 28 2 -6
BITMAP
0800
0C00
1F00
0780
0080
0000
0000
C038
E030
E070
6070
7060
7060
30E0
38C0
38C0
19C0
1D80
1D80
0F80
0F00
0F00
0700
0600
0E00
3C00
7800
6000
ENDCHAR
STARTCHAR 1F00
ENCODING 7936
SWIDTH 600 0
DWIDTH 16 0
BBX 14 22 1 0
BITMAP
0380
0380
0380
0380
0300
0300
0000
0F1C
3F98
39D8
7058
7078
6070
6030
E030
E070
6070
7078
70F8
79D8
3F9C
1F08
ENDCHAR
STARTCHAR 1F01
ENCODING 7937
SWIDTH 600 0
DWIDTH 16 0
BBX 14 22 1 0
BITMAP
0E00
0E00
0E00
0E00
0600
0600
0000
0F1C
3F98
39D8
7058
7078
6070
6030
E030
E070
6070
7078
70F8
79D8
3F9C
1F08
ENDCHAR
STARTCHAR 1F02
ENCODING 7938
SWIDTH 600 0
DWIDTH 16 0
BBX 14 22 1 0
BITMAP
1980
1D80
1D80
18C0
18C0
30C0
0000
0F1C
3F98
39D8
7058
7078
6070
6030
E030
E070
6070
7078
70F8
79D8
3F9C
1F08
ENDCHAR
STARTCHAR 1F03
ENCODING 7939
SWIDTH 600 0
DWIDTH 16 0
BBX 14 22 1 0
BITMAP
3900
3B80
3980
1980
1980
18C0
0000
0F1C
3F98
39D8
7058
7078
6070
6030
E030
E070
6070
7078
70F8
79D8
3F9C
1F08
ENDCHAR
STARTCHAR 1F04
ENCODING 7940
SWIDTH 600 0
DWIDTH 16 0
BBX 14 22 1 0
BITMAP
0E40
0E60
0EE0
0CC0
0CC0
08C0
0000
0F1C
3F98
39D8
7058
7078
6070
6030
E030
E070
6070
7078
70F8
79D8
3F9C
1F08
ENDCHAR
STARTCHAR 1F05
ENCODING 7941
SWIDTH 600 0
DWIDTH 16 0
BBX 14 22 1 0
BITMAP
1CE0
1CC0
1CC0
0DC0
0D80
0580
0000
0F1C
3F98
39D8
7058
7078
6070
6030
E030
E070
6070
7078
70F8
79D8
3F9C
1F08
ENDCHAR
STARTCHAR 1F06
ENCODING 7942
SWIDTH 600 0
DWIDTH 16 0
BBX 14 24 1 0
BITMAP
0E30
1FE0
31C0
0300
0780
0380
0300
0300
0000
0F1C
3F98
39D8
7058
7078
6070
6030
E030
E070
6070
7078
70F8
79D8
3F9C
1F08
ENDCHAR
STARTCHAR 1F07
ENCODING 7943
SWIDTH 600 0
DWIDTH 16 0
BBX 14 24 1 0
BITMAP
1E60
1FE0
33C0
0700
0700
0700
0200
0300
0000
0F1C
3F98
39D8
7058
7078
6070
6030
E030
E070
6070
7078
70F8
79D8
3F9C
1F08
ENDCHAR
STARTCHAR 1F08
ENCODING 7944
SWIDTH 600 0
DWIDTH 16 0
BBX 16 19 0 0
BITMAP
33C0
7BC0
33E0
3760
3660
6670
0E70
0E30
0C38
1C38
1C18
181C
3FFC
3FFC
300E
300E
700E
7007
E007
ENDCHAR
STARTCHAR 1F09
ENCODING 7945
SWIDTH 600 0
DWIDTH 16 0
BBX 16 19 0 0
BITMAP
73C0
73C0
73E0
7760
3660
3670
0E70
0E30
0C38
1C38
1C18
181C
3FFC
3FFC
300E
300E
700E
7007
E007
ENDCHAR
STARTCHAR 1F0A
ENCODING 7946
SWIDTH 600 0
DWIDTH 16 0
BBX 20 19 -4 0
BITMAP
663C00
763C00
763E00
677600
636600
C36700
00E700
00E300
00C380
01C380
01C180
0181C0
03FFC0
03FFC0
0300E0
0300E0
0700E0
070070
0E0070
ENDCHAR
STARTCHAR 1F0B
ENCODING 7947
SWIDTH 600 0
DWIDTH 16 0
BBX 20 19 -4 0
BITMAP
6E3C00
E63C00
E63E00
677600
636600
336700
00E700
00E300
00C380
01C380
01C180
0181C0
03FFC0
03FFC0
0300E0
0300E0
0700E0
070070
0E0070
ENDCHAR
STARTCHAR 1F0C
ENCODING 7948
SWIDTH 600 0
DWIDTH 16 0
BBX 19 19 -3 0
BITMAP
677800
E67800
E67C00
66EC00
CCCC00
CCCE00
01CE00
01C600
018700
038700
038300
030380
07FF80
07FF80
0601C0
0601C0
0E01C0
0E00E0
1C00E0
ENDCHAR
STARTCHAR 1F0D
ENCODING 7949
SWIDTH 600 0
DWIDTH 16 0
BBX 19 19 -3 0
BITMAP
667800
E77800
E67C00
66EC00
6ECC00
3CCE00
01CE00
01C600
018700
038700
038300
030380
07FF80
07FF80
0601C0
0601C0
0E01C0
0E00E0
1C00E0
ENDCHAR
STARTCHAR 1F0E
ENCODING 7950
SWIDTH 600 0
DWIDTH 16 0
BBX 20 19 -4 0
BITMAP
38FC00
7FBC00
C73E00
0C7600
1E6600
0C6700
0CE700
08E300
00C380
01C380
01C180
0181C0
03FFC0
03FFC0
0300E0
0300E0
0700E0
070070
0E0070
ENDCHAR
STARTCHAR 1F0F
ENCODING 7951
SWIDTH 600 0
DWIDTH 16 0
BBX 20 19 -4 0
BITMAP
38FC00
7FBC00
C73E00
0C7600
1C6600
1C6700
0CE700
0CE300
00C380
01C380
01C180
0181C0
03FFC0
03FFC0
0300E0
0300E0
0700E0
070070
0E0070
ENDCHAR
STARTCHAR 1F10
ENCODING 7952
SWIDTH 600 0
DWIDTH 16 0
BBX 13 22 2 0
BITMAP
0380
0380
0380
0380
0300
0300
0000
1FC0
3FF0
7860
7000
7000
7000
1F80
3F80
7000
E000
E000
E010
7878
3FF0
1FC0
ENDCHAR
STARTCHAR 1F11
ENCODING 7953
SWIDTH 600 0
DWIDTH 16 0
BBX 13 22 2 0
BITMAP
0E00
0E00
0E00
0600
0600
0200
0000
1FC0
3FF0
7860
7000
7000
7000
1F80
3F80
7000
E000
E000
E010
7878
3FF0
1FC0
ENDCHAR
STARTCHAR 1F12
ENCODING 7954
SWIDTH 600 0
DWIDTH 16 0
BBX 13 22 2 0
BITMAP
1880
1D80
1DC0
18C0
18C0
10C0
0000
1FC0
3FF0
7860
7000
7000
7000
1F80
3F80
7000
E000
E000
E010
7878
3FF0
1FC0
ENDCHAR
STARTCHAR 1F13
ENCODING 7955
SWIDTH 600 0
DWIDTH 16 0
BBX 13 22 2 0
BITMAP
3980
3B80
3980
1980
1980
08C0
0000
1FC0
3FF0
7860
7000
7000
7000
1F80
3F80
7000
E000
E000
E010
7878
3FF0
1FC0
ENDCHAR
STARTCHAR 1F14
ENCODING 7956
SWIDTH 600 0
DWIDTH 16 0
BBX 13 22 2 0
BITMAP
0E60
0E60
0EE0
0CC0
0CC0
0CC0
0000
1FC0
3FF0
7860
7000
7000
7000
1F80
3F80
7000
E000
E000
E010
7878
3FF0
1FC0
ENDCHAR
STARTCHAR 1F15
ENCODING 7957
SWIDTH 600 0
DWIDTH 16 0
BBX 13 22 2 0
BITMAP
1CE0
1CC0
1CC0
0CC0
0D80
0580
0000
1FC0
3FF0
7860
7000
7000
7000
1F80
3F80
7000
E000
E000
E010
7878
3FF0
1FC0
ENDCHAR
STARTCHAR 1F18
ENCODING 7960
SWIDTH 600 0
DWIDTH 16 0
BBX 15 19 -1 0
BITMAP
6FFE
EFFE
EE00
6E00
CE00
CE00
0E00
0E00
0FFC
0FFC
0E00
0E00
0E00
0E00
0E00
0E00
0E00
0FFE
0FFE
ENDCHAR
STARTCHAR 1F19
ENCODING 7961
SWIDTH 600 0
DWIDTH 16 0
BBX 16 19 -2 0
BITMAP
67FF
F7FF
6700
6700
2700
3700
0700
0700
07FE
07FE
0700
0700
0700
0700
0700
0700
0700
07FF
07FF
ENDCHAR
STARTCHAR 1F1A
ENCODING 7962
SWIDTH 600 0
DWIDTH 16 0
BBX 20 19 -6 0
BITMAP
667FF0
767FF0
767000
637000
637000
C37000
007000
007000
007FE0
007FE0
007000
007000
007000
007000
007000
007000
007000
007FF0
007FF0
ENDCHAR
STARTCHAR 1F1B
ENCODING 7963
SWIDTH 600 0
DWIDTH 16 0
BBX 20 19 -6 0
BITMAP
667FF0
F67FF0
667000
637000
637000
337000
007000
007000
007FE0
007FE0
007000
007000
007000
007000
007000
007000
007000
007FF0
007FF0
ENDCHAR
STARTCHAR 1F1C
ENCODING 7964
SWIDTH 600 0
DWIDTH 16 0
BBX 19 19 -5 0
BITMAP
E6FFE0
E6FFE0
EEE000
CCE000
CCE000
CCE000
00E000
00E000
00FFC0
00FFC0
00E000
00E000
00E000
00E000
00E000
00E000
00E000
00FFE0
00FFE0
ENDCHAR
STARTCHAR 1F1D
ENCODING 7965
SWIDTH 600 0
DWIDTH 16 0
BBX 19 19 -5 0
BITMAP
E7FFE0
E6FFE0
E6E000
6EE000
6CE000
6CE000
00E000
00E000
00FFC0
00FFC0
00E000
00E000
00E000
00E000
00E000
00E000
00E000
00FFE0
00FFE0
ENDCHAR
STARTCHAR 1F20
ENCODING 7968
SWIDTH 600 0
DWIDTH 16 0
BBX 12 28 2 -6
BITMAP
0300
0380
0380
0300
0300
0600
0000
E3C0
EFE0
F8F0
7070
6070
6070
6070
6070
6070
6070
6070
6070
6070
6070
6070
0070
0070
0070
0070
0070
0070
ENDCHAR
STARTCHAR 1F21
ENCODING 7969
SWIDTH 600 0
DWIDTH 16 0
BBX 12 28 2 -6
BITMAP
0C00
0E00
0C00
0C00
0400
0600
0000
E3C0
EFE0
F8F0
7070
6070
6070
6070
6070
6070
6070
6070
6070
6070
6070
6070
0070
0070
0070
0070
0070
0070
ENDCHAR
STARTCHAR 1F22
ENCODING 7970
SWIDTH 600 0
DWIDTH 16 0
BBX 12 28 2 -6
BITMAP
1980
3B80
1980
1980
30C0
30C0
0000
E3C0
EFE0
F8F0
7070
6070
6070
6070
6070
6070
6070
6070
6070
6070
6070
6070
0070
0070
0070
0070
0070
0070
ENDCHAR
STARTCHAR 1F23
ENCODING 7971
SWIDTH 600 0
DWIDTH 16 0
BBX 12 28 2 -6
BITMAP
3100
3B00
3380
3180
1980
1980
0000
E3C0
EFE0
F8F0
7070
6070
6070
6070
6070
6070
6070
6070
6070
6070
6070
6070
0070
0070
0070
0070
0070
0070
ENDCHAR
STARTCHAR 1F24
ENCODING 7972
SWIDTH 600 0
DWIDTH 16 0
BBX 12 28 2 -6
BITMAP
0CC0
1EE0
0CC0
0CC0
0CC0
1980
0000
E3C0
EFE0
F8F0
7070
6070
6070
6070
6070
6070
6070
6070
6070
6070
6070
6070
0070
0070
0070
0070
0070
0070
ENDCHAR
STARTCHAR 1F25
ENCODING 7973
SWIDTH 600 0
DWIDTH 16 0
BBX 12 28 2 -6
BITMAP
1880
1CC0
1DC0
1980
0D80
0D80
0000
E3C0
EFE0
F8F0
7070
6070
6070
6070
6070
6070
6070
6070
6070
6070
6070
6070
0070
0070
0070
0070
0070
0070
ENDCHAR
STARTCHAR 1F26
ENCODING 7974
SWIDTH 600 0
DWIDTH 16 0
BBX 12 30 2 -6
BITMAP
1E60
1FE0
33C0
0700
0700
0700
0300
0600
0000
E3C0
EFE0
F8F0
7070
6070
6070
6070
6070
6070
6070
6070
6070
6070
6070
6070
0070
0070
0070
0070
0070
0070
ENDCHAR
STARTCHAR 1F27
ENCODING 7975
SWIDTH 600 0
DWIDTH 16 0
BBX 12 30 2 -6
BITMAP
1E60
3FC0
3380
0600
0700
0700
0600
0200
0000
E3C0
EFE0
F8F0
7070
6070
6070
6070
6070
6070
6070
6070
6070
6070
6070
6070
0070
0070
0070
0070
0070
0070
ENDCHAR
STARTCHAR 1F28
ENCODING 7976
SWIDTH 600 0
DWIDTH 16 0
BBX 16 19 -2 0
BITMAP
EE03
EE03
EE03
EE03
CE03
CE03
0E03
0E03
0FFF
0FFF
0E03
0E03
0E03
0E03
0E03
0E03
0E03
0E03
0E03
ENDCHAR
STARTCHAR 1F29
ENCODING 7977
SWIDTH 600 0
DWIDTH 16 0
BBX 17 19 -3 0
BITMAP
670180
F70180
670180
670180
670180
370180
070180
070180
07FF80
07FF80
070180
070180
070180
070180
070180
070180
070180
070180
070180
ENDCHAR
STARTCHAR 1F2A
ENCODING 7978
SWIDTH 600 0
DWIDTH 16 0
BBX 21 19 -7 0
BITMAP
6E7018
F67018
667018
677018
637018
C37018
007018
007018
007FF8
007FF8
007018
007018
007018
007018
007018
007018
007018
007018
007018
ENDCHAR
STARTCHAR 1F2B
ENCODING 7979
SWIDTH 600 0
DWIDTH 16 0
BBX 21 19 -7 0
BITMAP
6E7018
E67018
E67018
677018
637018
337018
007018
007018
007FF8
007FF8
007018
007018
007018
007018
007018
007018
007018
007018
007018
ENDCHAR
STARTCHAR 1F2C
ENCODING 7980
SWIDTH 600 0
DWIDTH 16 0
BBX 20 19 -6 0
BITMAP
E4E030
E6E030
EEE030
CCE030
CCE030
8CE030
00E030
00E030
00FFF0
00FFF0
00E030
00E030
00E030
00E030
00E030
00E030
00E030
00E030
00E030
ENDCHAR
STARTCHAR 1F2D
ENCODING 7981
SWIDTH 600 0
DWIDTH 16 0
BBX 20 19 -6 0
BITMAP
E4E030
E6E030
EEE030
CCE030
6CE030
6CE030
00E030
00E030
00FFF0
00FFF0
00E030
00E030
00E030
00E030
00E030
00E030
00E030
00E030
00E030
ENDCHAR
STARTCHAR 1F2E
ENCODING 7982
SWIDTH 600 0
DWIDTH 16 0
BBX 21 19 -7 0
BITMAP
79F018
FF7018
CE7018
187018
1C7018
1C7018
187018
187018
007FF8
007FF8
007018
007018
007018
007018
007018
007018
007018
007018
007018
ENDCHAR
STARTCHAR 1F2F
ENCODING 7983
SWIDTH 600 0
DWIDTH 16 0
BBX 21 19 -7 0
BITMAP
79F018
FF7018
CE7018
187018
1C7018
1C7018
187018
087018
007FF8
007FF8
007018
007018
007018
007018
007018
007018
007018
007018
007018
ENDCHAR
STARTCHAR 1F30
ENCODING 7984
SWIDTH 600 0
DWIDTH 16 0
BBX 12 22 2 0
BITMAP
0300
0700
0700
0300
0600
0600
0000
FE00
FE00
0E00
0E00
0E00
0E00
0E00
0E00
0E00
0E00
0E00
0E00
0710
07F0
03F0
ENDCHAR
STARTCHAR 1F31
ENCODING 7985
SWIDTH 600 0
DWIDTH 16 0
BBX 12 22 2 0
BITMAP
0C00
1C00
1C00
0C00
0C00
0400
0000
FE00
FE00
0E00
0E00
0E00
0E00
0E00
0E00
0E00
0E00
0E00
0E00
0710
07F0
03F0
ENDCHAR
STARTCHAR 1F32
ENCODING 7986
SWIDTH 600 0
DWIDTH 16 0
BBX 12 22 2 0
BITMAP
3900
3B80
3B80
3180
3180
2080
0000
FE00
FE00
0E00
0E00
0E00
0E00
0E00
0E00
0E00
0E00
0E00
0E00
0710
07F0
03F0
ENDCHAR
STARTCHAR 1F33
ENCODING 7987
SWIDTH 600 0
DWIDTH 16 0
BBX 12 22 2 0
BITMAP
3300
7700
7300
3300
3180
1180
0800
FE00
FE00
0E00
0E00
0E00
0E00
0E00
0E00
0E00
0E00
0E00
0E00
0710
07F0
03F0
ENDCHAR
STARTCHAR 1F34
ENCODING 7988
SWIDTH 600 0
DWIDTH 16 0
BBX 12 22 2 0
BITMAP
1CE0
1CC0
1CC0
0DC0
1980
1980
0000
FE00
FE00
0E00
0E00
0E00
0E00
0E00
0E00
0E00
0E00
0E00
0E00
0710
07F0
03F0
ENDCHAR
STARTCHAR 1F35
ENCODING 7989
SWIDTH 600 0
DWIDTH 16 0
BBX 12 22 2 0
BITMAP
1980
39C0
3980
1980
1B80
0F00
0000
FE00
FE00
0E00
0E00
0E00
0E00
0E00
0E00
0E00
0E00
0E00
0E00
0710
07F0
03F0
ENDCHAR
STARTCHAR 1F36
ENCODING 7990
SWIDTH 600 0
DWIDTH 16 0
BBX 12 24 2 0
BITMAP
1E60
3FC0
3380
0600
0700
0700
0600
0600
0000
FE00
FE00
0E00
0E00
0E00
0E00
0E00
0E00
0E00
0E00
0E00
0E00
0710
07F0
03F0
ENDCHAR
STARTCHAR 1F37
ENCODING 7991
SWIDTH 600 0
DWIDTH 16 0
BBX 12 24 2 0
BITMAP
1CE0
3FC0
6380
0600
0E00
0E00
0600
0600
0000
FE00
FE00
0E00
0E00
0E00
0E00
0E00
0E00
0E00
0E00
0E00
0E00
0710
07F0
03F0
ENDCHAR
STARTCHAR 1F38
ENCODING 7992
SWIDTH 600 0
DWIDTH 16 0
BBX 16 19 -2 0
BITMAP
67FF
77FF
7070
6070
6070
C070
0070
0070
0070
0070
0070
0070
0070
0070
0070
0070
0070
07FF
07FF
ENDCHAR
STARTCHAR 1F39
ENCODING 7993
SWIDTH 600 0
DWIDTH 16 0
BBX 16 19 -2 0
BITMAP
67FF
F7FF
6070
6070
2070
3070
0070
0070
0070
0070
0070
0070
0070
0070
0070
0070
0070
07FF
07FF
ENDCHAR
STARTCHAR 1F3A
ENCODING 7994
SWIDTH 600 0
DWIDTH 16 0
BBX 19 19 -5 0
BITMAP
66FFE0
EEFFE0
E60E00
660E00
C60E00
C30E00
000E00
000E00
000E00
000E00
000E00
000E00
000E00
000E00
000E00
000E00
000E00
00FFE0
00FFE0
ENDCHAR
STARTCHAR 1F3B
ENCODING 7995
SWIDTH 600 0
DWIDTH 16 0
BBX 19 19 -5 0
BITMAP
E4FFE0
EEFFE0
E60E00
E60E00
660E00
630E00
000E00
000E00
000E00
000E00
000E00
000E00
000E00
000E00
000E00
000E00
000E00
00FFE0
00FFE0
ENDCHAR
STARTCHAR 1F3C
ENCODING 7996
SWIDTH 600 0
DWIDTH 16 0
BBX 20 19 -6 0
BITMAP
667FF0
F77FF0
660700
660700
4C0700
CC0700
000700
000700
000700
000700
000700
000700
000700
000700
000700
000700
000700
007FF0
007FF0
ENDCHAR
STARTCHAR 1F3D
ENCODING 7997
SWIDTH 600 0
DWIDTH 16 0
BBX 20 19 -6 0
BITMAP
627FF0
F77FF0
660700
660700
660700
3C0700
000700
000700
000700
000700
000700
000700
000700
000700
000700
000700
000700
007FF0
007FF0
ENDCHAR
STARTCHAR 1F3E
ENCODING 7998
SWIDTH 600 0
DWIDTH 16 0
BBX 21 19 -7 0
BITMAP
39BFF8
7FBFF8
C70380
0C0380
1C0380
1C0380
0C0380
080380
000380
000380
000380
000380
000380
000380
000380
000380
000380
003FF8
003FF8
ENDCHAR
STARTCHAR 1F3F
ENCODING 7999
SWIDTH 600 0
DWIDTH 16 0
BBX 21 19 -7 0
BITMAP
79BFF8
7FBFF8
C70380
0C0380
1C0380
1C0380
080380
0C0380
000380
000380
000380
000380
000380
000380
000380
000380
000380
003FF8
003FF8
ENDCHAR
STARTCHAR 1F40
ENCODING 8000
SWIDTH 600 0
DWIDTH 16 0
BBX 13 22 2 0
BITMAP
0300
0380
0380
0300
0300
0600
0000
0F80
3FC0
78E0
7070
E070
E030
E030
E038
E038
E030
E070
7070
78E0
3FC0
1F80
ENDCHAR
STARTCHAR 1F41
ENCODING 8001
SWIDTH 600 0
DWIDTH 16 0
BBX 13 22 2 0
BITMAP
0C00
1E00
0C00
0C00
0400
0600
0000
0F80
3FC0
78E0
7070
E070
E030
E030
E038
E038
E030
E070
7070
78E0
3FC0
1F80
ENDCHAR
STARTCHAR 1F42
ENCODING 8002
SWIDTH 600 0
DWIDTH 16 0
BBX 13 22 2 0
BITMAP
1980
3B80
1980
1980
30C0
30C0
0000
0F80
3FC0
78E0
7070
E070
E030
E030
E038
E038
E030
E070
7070
78E0
3FC0
1F80
ENDCHAR
STARTCHAR 1F43
ENCODING 8003
SWIDTH 600 0
DWIDTH 16 0
BBX 13 22 2 0
BITMAP
3100
3B00
3380
3180
1980
1980
0000
0F80
3FC0
78E0
7070
E070
E030
E030
E038
E038
E030
E070
7070
78E0
3FC0
1F80
ENDCHAR
STARTCHAR 1F44
ENCODING 8004
SWIDTH 600 0
DWIDTH 16 0
BBX 13 22 2 0
BITMAP
0CC0
1EE0
0CC0
0CC0
0CC0
1980
0000
0F80
3FC0
78E0
7070
E070
E030
E030
E038
E038
E030
E070
7070
78E0
3FC0
1F80
ENDCHAR
STARTCHAR 1F45
ENCODING 8005
SWIDTH 600 0
DWIDTH 16 0
BBX 13 22 2 0
BITMAP
1880
1CC0
1DC0
1980
0D80
0D80
0000
0F80
3FC0
78E0
7070
E070
E030
E030
E038
E038
E030
E070
7070
78E0
3FC0
1F80
ENDCHAR
STARTCHAR 1F48
ENCODING 8008
SWIDTH 600 0
DWIDTH 16 0
BBX 16 19 -1 0
BITMAP
E1F0
E7F8
EF1C
DC0E
DC06
D807
3807
3807
3807
3807
3807
3807
3807
1807
1C06
1C0E
0F1C
07F8
01F0
ENDCHAR
STARTCHAR 1F49
ENCODING 8009
SWIDTH 600 0
DWIDTH 16 0
BBX 17 19 -2 0
BITMAP
E0F800
E3FC00
E78E00
CE0700
6E0300
6C0380
1C0380
1C0380
1C0380
1C0380
1C0380
1C0380
1C0380
0C0380
0E0300
0E0700
078E00
03FC00
00F800
ENDCHAR
STARTCHAR 1F4A
ENCODING 8010
SWIDTH 600 0
DWIDTH 16 0
BBX 22 19 -7 0
BITMAP
6E07C0
F61FE0
663C70
667038
437018
C3601C
00E01C
00E01C
00E01C
00E01C
00E01C
00E01C
00E01C
00601C
007018
007038
003C70
001FE0
0007C0
ENDCHAR
STARTCHAR 1F4B
ENCODING 8011
SWIDTH 600 0
DWIDTH 16 0
BBX 22 19 -7 0
BITMAP
6E07C0
E61FE0
E63C70
667038
637018
33601C
00E01C
00E01C
00E01C
00E01C
00E01C
00E01C
00E01C
00601C
007018
007038
003C70
001FE0
0007C0
ENDCHAR
STARTCHAR 1F4C
ENCODING 8012
SWIDTH 600 0
DWIDTH 16 0
BBX 21 19 -6 0
BITMAP
670F80
E63FC0
E678E0
66E070
CCE030
CCC038
01C038
01C038
01C038
01C038
01C038
01C038
01C038
00C038
00E030
00E070
0078E0
003FC0
000F80
ENDCHAR
STARTCHAR 1F4D
ENCODING 8013
SWIDTH 600 0
DWIDTH 16 0
BBX 21 19 -6 0
BITMAP
660F80
E73FC0
E678E0
66E070
6CE030
2CC038
11C038
01C038
01C038
01C038
01C038
01C038
01C038
00C038
00E030
00E070
0078E0
003FC0
000F80
ENDCHAR
STARTCHAR 1F50
ENCODING 8016
SWIDTH 600 0
DWIDTH 16 0
BBX 11 22 3 0
BITMAP
0600
0700
0700
0600
0600
0C00
0000
C0E0
C0E0
C0E0
C060
C060
C060
C060
C060
C060
C060
C0E0
E0E0
E3C0
7F80
3E00
ENDCHAR
STARTCHAR 1F51
ENCODING 8017
SWIDTH 600 0
DWIDTH 16 0
BBX 11 22 3 0
BITMAP
1800
3C00
1800
1800
0800
0C00
0000
C0E0
C0E0
C0E0
C060
C060
C060
C060
C060
C060
C060
C0E0
E0E0
E3C0
7F80
3E00
ENDCHAR
STARTCHAR 1F52
ENCODING 8018
SWIDTH 600 0
DWIDTH 16 0
BBX 11 22 3 0
BITMAP
3300
7700
3300
3300
6180
6180
0000
C0E0
C0E0
C0E0
C060
C060
C060
C060
C060
C060
C060
C0E0
E0E0
E3C0
7F80
3E00
ENDCHAR
STARTCHAR 1F53
ENCODING 8019
SWIDTH 600 0
DWIDTH 16 0
BBX 11 22 3 0
BITMAP
6200
7600
6700
6300
3300
3300
0000
C0E0
C0E0
C0E0
C060
C060
C060
C060
C060
C060
C060
C0E0
E0E0
E3C0
7F80
3E00
ENDCHAR
STARTCHAR 1F54
ENCODING 8020
SWIDTH 600 0
DWIDTH 16 0
BBX 11 22 3 0
BITMAP
1980
3DC0
1980
1980
1980
3300
0000
C0E0
C0E0
C0E0
C060
C060
C060
C060
C060
C060
C060
C0E0
E0E0
E3C0
7F80
3E00
ENDCHAR
STARTCHAR 1F55
ENCODING 8021
SWIDTH 600 0
DWIDTH 16 0
BBX 11 22 3 0
BITMAP
3100
3980
3B80
3300
1B00
1B00
0000
C0E0
C0E0
C0E0
C060
C060
C060
C060
C060
C060
C060
C0E0
E0E0
E3C0
7F80
3E00
ENDCHAR
STARTCHAR 1F56
ENCODING 8022
SWIDTH 600 0
DWIDTH 16 0
BBX 11 24 3 0
BITMAP
3CC0
7FC0
6780
0E00
0E00
0E00
0600
0C00
0000
C0E0
C0E0
C0E0
C060
C060
C060
C060
C060
C060
C060
C0E0
E0E0
E3C0
7F80
3E00
ENDCHAR
STARTCHAR 1F57
ENCODING 8023
SWIDTH 600 0
DWIDTH 16 0
BBX 11 24 3 0
BITMAP
3CC0
7F80
6700
0C00
0E00
0E00
0C00
0400
0000
C0E0
C0E0
C0E0
C060
C060
C060
C060
C060
C060
C060
C0E0
E0E0
E3C0
7F80
3E00
ENDCHAR
STARTCHAR 1F59
ENCODING 8025
SWIDTH 600 0
DWIDTH 16 0
BBX 19 19 -3 0
BITMAP
FE00E0
EE01C0
E701C0
670380
638380
238700
01C600
00CE00
00EC00
007C00
007800
003800
003800
003800
003800
003800
003800
003800
003800
ENDCHAR
STARTCHAR 1F5B
ENCODING 8027
SWIDTH 600 0
DWIDTH 16 0
BBX 23 19 -7 0
BITMAP
E7E00E
EEE01C
E6701C
667038
663838
233870
001C60
000CE0
000EC0
0007C0
000780
000380
000380
000380
000380
000380
000380
000380
000380
ENDCHAR
STARTCHAR 1F5D
ENCODING 8029
SWIDTH 600 0
DWIDTH 16 0
BBX 24 19 -8 0
BITMAP
62F007
F7700E
66380E
66381C
261C1C
3C1C38
000E30
000670
000760
0003E0
0003C0
0001C0
0001C0
0001C0
0001C0
0001C0
0001C0
0001C0
0001C0
ENDCHAR
STARTCHAR 1F5F
ENCODING 8031
SWIDTH 600 0
DWIDTH 16 0
BBX 25 19 -9 0
BITMAP
39F80380
7FB80700
C71C0700
0C1C0E00
1C0E0E00
1C0E1C00
0C071800
0C033800
0003B000
0001F000
0001E000
0000E000
0000E000
0000E000
0000E000
0000E000
0000E000
0000E000
0000E000
ENDCHAR
STARTCHAR 1F60
ENCODING 8032
SWIDTH 600 0
DWIDTH 16 0
BBX 15 22 1 0
BITMAP
0180
01C0
01C0
0180
0180
0300
0000
601C
601C
E00C
E00C
C08C
C30E
C30E
C30E
C30E
C30E
C38E
E38C
E79C
7EF8
3C70
ENDCHAR
STARTCHAR 1F61
ENCODING 8033
SWIDTH 600 0
DWIDTH 16 0
BBX 15 22 1 0
BITMAP
0600
0F00
0600
0600
0200
0300
0000
601C
601C
E00C
E00C
C08C
C30E
C30E
C30E
C30E
C30E
C38E
E38C
E79C
7EF8
3C70
ENDCHAR
STARTCHAR 1F62
ENCODING 8034
SWIDTH 600 0
DWIDTH 16 0
BBX 15 22 1 0
BITMAP
0CC0
1DC0
0CC0
0CC0
1860
1860
0000
601C
601C
E00C
E00C
C08C
C30E
C30E
C30E
C30E
C30E
C38E
E38C
E79C
7EF8
3C70
ENDCHAR
STARTCHAR 1F63
ENCODING 8035
SWIDTH 600 0
DWIDTH 16 0
BBX 15 22 1 0
BITMAP
1880
1D80
19C0
18C0
0CC0
0CC0
0000
601C
601C
E00C
E00C
C08C
C30E
C30E
C30E
C30E
C30E
C38E
E38C
E79C
7EF8
3C70
ENDCHAR
STARTCHAR 1F64
ENCODING 8036
SWIDTH 600 0
DWIDTH 16 0
BBX 15 22 1 0
BITMAP
0660
0F70
0660
0660
0660
0CC0
0000
601C
601C
E00C
E00C
C08C
C30E
C30E
C30E
C30E
C30E
C38E
E38C
E79C
7EF8
3C70
ENDCHAR
STARTCHAR 1F65
ENCODING 8037
SWIDTH 600 0
DWIDTH 16 0
BBX 15 22 1 0
BITMAP
0C40
0E60
0EE0
0CC0
06C0
06C0
0000
601C
601C
E00C
E00C
C08C
C30E
C30E
C30E
C30E
C30E
C38E
E38C
E79C
7EF8
3C70
ENDCHAR
STARTCHAR 1F66
ENCODING 8038
SWIDTH 600 0
DWIDTH 16 0
BBX 15 24 1 0
BITMAP
0F30
1FF0
19E0
0380
0380
0380
0180
0300
0000
601C
601C
E00C
E00C
C08C
C30E
C30E
C30E
C30E
C30E
C38E
E38C
E79C
7EF8
3C70
ENDCHAR
STARTCHAR 1F67
ENCODING 8039
SWIDTH 600 0
DWIDTH 16 0
BBX 15 24 1 0
BITMAP
0F30
1FE0
19C0
0300
0380
0380
0300
0100
0000
601C
601C
E00C
E00C
C08C
C30E
C30E
C30E
C30E
C30E
C38E
E38C
E79C
7EF8
3C70
ENDCHAR
STARTCHAR 1F68
ENCODING 8040
SWIDTH 600 0
DWIDTH 16 0
BBX 16 19 -1 0
BITMAP
E1F0
E7F8
EF1C
DC0E
DC06
D807
3807
3807
3807
3807
3807
3807
3807
1C07
1C06
0E0C
0618
3F3F
3F3F
ENDCHAR
STARTCHAR 1F69
ENCODING 8041
SWIDTH 600 0
DWIDTH 16 0
BBX 17 19 -2 0
BITMAP
E0F800
E3FC00
E78E00
CE0700
6E0300
6C0380
1C0380
1C0380
1C0380
1C0380
1C0380
1C0380
1C0380
0E0380
0E0300
070600
030C00
1F9F80
1F9F80
ENDCHAR
STARTCHAR 1F6A
ENCODING 8042
SWIDTH 600 0
DWIDTH 16 0
BBX 22 19 -7 0
BITMAP
6E07C0
F61FE0
663C70
667038
437018
C3601C
00E01C
00E01C
00E01C
00E01C
00E01C
00E01C
00E01C
00701C
007018
003830
001860
00FCFC
00FCFC
ENDCHAR
STARTCHAR 1F6B
ENCODING 8043
SWIDTH 600 0
DWIDTH 16 0
BBX 22 19 -7 0
BITMAP
6E07C0
E61FE0
E63C70
667038
637018
33601C
00E01C
00E01C
00E01C
00E01C
00E01C
00E01C
00E01C
00701C
007018
003830
001860
00FCFC
00FCFC
ENDCHAR
STARTCHAR 1F6C
ENCODING 8044
SWIDTH 600 0
DWIDTH 16 0
BBX 21 19 -6 0
BITMAP
670F80
E63FC0
E678E0
66E070
CCE030
CCC038
01C038
01C038
01C038
01C038
01C038
01C038
01C038
00E038
00E030
007060
0030C0
01F9F8
01F9F8
ENDCHAR
STARTCHAR 1F6D
ENCODING 8045
SWIDTH 600 0
DWIDTH 16 0
BBX 21 19 -6 0
BITMAP
660F80
E73FC0
E678E0
66E070
6CE030
3CC038
01C038
01C038
01C038
01C038
01C038
01C038
01C038
00E038
00E030
007060
0030C0
01F9F8
01F9F8
ENDCHAR
STARTCHAR 1F6E
ENCODING 8046
SWIDTH 600 0
DWIDTH 16 0
BBX 21 19 -6 0
BITMAP
718F80
FF3FC0
CE78E0
18E070
1CE030
1CC038
19C038
19C038
01C038
01C038
01C038
01C038
01C038
00E038
00E030
007060
0030C0
01F9F8
01F9F8
ENDCHAR
STARTCHAR 1F6F
ENCODING 8047
SWIDTH 600 0
DWIDTH 16 0
BBX 21 19 -6 0
BITMAP
718F80
FF3FC0
CE78E0
18E070
3CE030
18C038
19C038
09C038
01C038
01C038
01C038
01C038
01C038
00E038
00E030
007060
0030C0
01F9F8
01F9F8
ENDCHAR
STARTCHAR 1F70
ENCODING 8048
SWIDTH 600 0
DWIDTH 16 0
BBX 14 22 1 0
BITMAP
0800
0E00
1F00
03C0
0080
0000
0000
0F1C
3F98
39D8
7058
7078
6070
6030
E030
E070
6070
7078
70F8
79D8
3F9C
1F08
ENDCHAR
STARTCHAR 1F71
ENCODING 8049
SWIDTH 600 0
DWIDTH 16 0
BBX 14 22 1 0
BITMAP
0080
03C0
0780
1E00
0800
0000
0000
0F1C
3F98
39D8
7058
7078
6070
6030
E030
E070
6070
7078
70F8
79D8
3F9C
1F08
ENDCHAR
STARTCHAR 1F72
ENCODING 8050
SWIDTH 600 0
DWIDTH 16 0
BBX 13 22 2 0
BITMAP
0800
0E00
1F00
03C0
0080
0000
0000
1FC0
3FF0
7860
7000
7000
7000
1F80
3F80
7000
E000
E000
E010
7878
3FF0
1FC0
ENDCHAR
STARTCHAR 1F73
ENCODING 8051
SWIDTH 600 0
DWIDTH 16 0
BBX 13 22 2 0
BITMAP
0080
03C0
0780
1E00
0800
0000
0000
1FC0
3FF0
7860
7000
7000
7000
1F80
3F80
7000
E000
E000
E010
7878
3FF0
1FC0
ENDCHAR
STARTCHAR 1F74
ENCODING 8052
SWIDTH 600 0
DWIDTH 16 0
BBX 12 28 2 -6
BITMAP
0800
0C00
1F00
0780
0080
0000
0000
E3C0
EFE0
F8F0
7070
6070
6070
6070
6070
6070
6070
6070
6070
6070
6070
6070
0070
0070
0070
0070
0070
0070
ENDCHAR
STARTCHAR 1F75
ENCODING 8053
SWIDTH 600 0
DWIDTH 16 0
BBX 12 28 2 -6
BITMAP
0080
0380
0FC0
1C00
1000
0000
0000
E3C0
EFE0
F8F0
7070
6070
6070
6070
6070
6070
6070
6070
6070
6070
6070
6070
0070
0070
0070
0070
0070
0070
ENDCHAR
STARTCHAR 1F76
ENCODING 8054
SWIDTH 600 0
DWIDTH 16 0
BBX 12 22 2 0
BITMAP
1000
1C00
1E00
0780
0180
0000
0000
FE00
FE00
0E00
0E00
0E00
0E00
0E00
0E00
0E00
0E00
0E00
0E00
0710
07F0
03F0
ENDCHAR
STARTCHAR 1F77
ENCODING 8055
SWIDTH 600 0
DWIDTH 16 0
BBX 12 22 2 0
BITMAP
0100
0380
0F80
1C00
1000
0000
0000
FE00
FE00
0E00
0E00
0E00
0E00
0E00
0E00
0E00
0E00
0E00
0E00
0710
07F0
03F0
ENDCHAR
STARTCHAR 1F78
ENCODING 8056
SWIDTH 600 0
DWIDTH 16 0
BBX 13 22 2 0
BITMAP
0800
0C00
1F00
0780
0080
0000
0000
0F80
3FC0
78E0
7070
E070
E030
E030
E038
E038
E030
E070
7070
78E0
3FC0
1F80
ENDCHAR
STARTCHAR 1F79
ENCODING 8057
SWIDTH 600 0
DWIDTH 16 0
BBX 13 22 2 0
BITMAP
0080
0380
0FC0
1C00
1000
0000
0000
0F80
3FC0
78E0
7070
E070
E030
E030
E038
E038
E030
E070
7070
78E0
3FC0
1F80
ENDCHAR
STARTCHAR 1F7A
ENCODING 8058
SWIDTH 600 0
DWIDTH 16 0
BBX 11 22 3 0
BITMAP
1000
1800
3E00
0F00
0100
0000
0000
C0E0
C0E0
C0E0
C060
C060
C060
C060
C060
C060
C060
C0E0
E0E0
E3C0
7F80
3E00
ENDCHAR
STARTCHAR 1F7B
ENCODING 8059
SWIDTH 600 0
DWIDTH 16 0
BBX 11 22 3 0
BITMAP
0100
0700
1F80
3800
2000
0000
0000
C0E0
C0E0
C0E0
C060
C060
C060
C060
C060
C060
C060
C0E0
E0E0
E3C0
7F80
3E00
ENDCHAR
STARTCHAR 1F7C
ENCODING 8060
SWIDTH 600 0
DWIDTH 16 0
BBX 15 22 1 0
BITMAP
0400
0600
0F80
03C0
0040
0000
0000
601C
601C
E00C
E00C
C08C
C30E
C30E
C30E
C30E
C30E
C38E
E38C
E79C
7EF8
3C70
ENDCHAR
STARTCHAR 1F7D
ENCODING 8061
SWIDTH 600 0
DWIDTH 16 0
BBX 15 22 1 0
BITMAP
0040
01C0
07E0
0E00
0800
0000
0000
601C
601C
E00C
E00C
C08C
C30E
C30E
C30E
C30E
C30E
C38E
E38C
E79C
7EF8
3C70
ENDCHAR
STARTCHAR 1F80
ENCODING 8064
SWIDTH 600 0
DWIDTH 16 0
BBX 14 27 1 -5
BITMAP
0380
0380
0380
0380
0300
0300
0000
0F1C
3F98
39D8
7058
7078
6070
6030
E030
E070
6070
7078
70F8
79D8
3F9C
1F08
0000
0300
0300
03F0
01E0
ENDCHAR
STARTCHAR 1F81
ENCODING 8065
SWIDTH 600 0
DWIDTH 16 0
BBX 14 27 1 -5
BITMAP
0E00
0E00
0E00
0E00
0600
0600
0000
0F1C
3F98
39D8
7058
7078
6070
6030
E030
E070
6070
7078
70F8
79D8
3F9C
1F08
0000
0300
0300
03F0
01E0
ENDCHAR
STARTCHAR 1F82
ENCODING 8066
SWIDTH 600 0
DWIDTH 16 0
BBX 14 27 1 -5
BITMAP
1980
1D80
1D80
18C0
18C0
30C0
0000
0F1C
3F98
39D8
7058
7078
6070
6030
E030
E070
6070
7078
70F8
79D8
3F9C
1F08
0000
0300
0300
03F0
01E0
ENDCHAR
STARTCHAR 1F83
ENCODING 8067
SWIDTH 600 0
DWIDTH 16 0
BBX 14 27 1 -5
BITMAP
3900
3B80
3980
1980
1980
18C0
0000
0F1C
3F98
39D8
7058
7078
6070
6030
E030
E070
6070
7078
70F8
79D8
3F9C
1F08
0000
0300
0300
03F0
01E0
ENDCHAR
STARTCHAR 1F84
ENCODING 8068
SWIDTH 600 0
DWIDTH 16 0
BBX 14 27 1 -5
BITMAP
0E40
0E60
0EE0
0CC0
0CC0
08C0
0000
0F1C
3F98
39D8
7058
7078
6070
6030
E030
E070
6070
7078
70F8
79D8
3F9C
1F08
0000
0300
0300
03F0
01E0
ENDCHAR
STARTCHAR 1F85
ENCODING 8069
SWIDTH 600 0
DWIDTH 16 0
BBX 14 27 1 -5
BITMAP
1CE0
1CC0
1CC0
0DC0
0D80
0580
0000
0F1C
3F98
39D8
7058
7078
6070
6030
E030
E070
6070
7078
70F8
79D8
3F9C
1F08
0000
0300
0300
03F0
01E0
ENDCHAR
STARTCHAR 1F86
ENCODING 8070
SWIDTH 600 0
DWIDTH 16 0
BBX 14 29 1 -5
BITMAP
0E30
1FE0
31C0
0300
0780
0380
0300
0300
0000
0F1C
3F98
39D8
7058
7078
6070
6030
E030
E070
6070
7078
70F8
79D8
3F9C
1F08
0000
0300
0300
03F0
01E0
ENDCHAR
STARTCHAR 1F87
ENCODING 8071
SWIDTH 600 0
DWIDTH 16 0
BBX 14 29 1 -5
BITMAP
1E60
1FE0
33C0
0700
0700
0700
0200
0300
0000
0F1C
3F98
39D8
7058
7078
6070
6030
E030
E070
6070
7078
70F8
79D8
3F9C
1F08
0000
0300
0300
03F0
01E0
ENDCHAR
STARTCHAR 1F88
ENCODING 8072
SWIDTH 600 0
DWIDTH 16 0
BBX 16 24 0 -5
BITMAP
33C0
7BC0
33E0
3760
3660
6670
0E70
0E30
0C38
1C38
1C18
181C
3FFC
3FFC
300E
300E
700E
7007
E007
0000
0180
0180
01F8
00F0
ENDCHAR
STARTCHAR 1F89
ENCODING 8073
SWIDTH 600 0
DWIDTH 16 0
BBX 16 24 0 -5
BITMAP
73C0
73C0
73E0
7760
3660
3670
0E70
0E30
0C38
1C38
1C18
181C
3FFC
3FFC
300E
300E
700E
7007
E007
0000
0180
0180
01F8
00F0
ENDCHAR
STARTCHAR 1F8A
ENCODING 8074
SWIDTH 600 0
DWIDTH 16 0
BBX 20 24 -4 -5
BITMAP
663C00
763C00
763E00
677600
636600
C36700
00E700
00E300
00C380
01C380
01C180
0181C0
03FFC0
03FFC0
0300E0
0300E0
0700E0
070070
0E0070
000000
001800
001800
001F80
000F00
ENDCHAR
STARTCHAR 1F8B
ENCODING 8075
SWIDTH 600 0
DWIDTH 16 0
BBX 20 24 -4 -5
BITMAP
6E3C00
E63C00
E63E00
677600
636600
336700
00E700
00E300
00C380
01C380
01C180
0181C0
03FFC0
03FFC0
0300E0
0300E0
0700E0
070070
0E0070
000000
001800
001800
001F80
000F00
ENDCHAR
STARTCHAR 1F8C
ENCODING 8076
SWIDTH 600 0
DWIDTH 16 0
BBX 19 24 -3 -5
BITMAP
677800
E67800
E67C00
66EC00
CCCC00
CCCE00
01CE00
01C600
018700
038700
038300
030380
07FF80
07FF80
0601C0
0601C0
0E01C0
0E00E0
1C00E0
000000
003000
003000
003F00
001E00
ENDCHAR
STARTCHAR 1F8D
ENCODING 8077
SWIDTH 600 0
DWIDTH 16 0
BBX 19 24 -3 -5
BITMAP
667800
E77800
E67C00
66EC00
6ECC00
3CCE00
01CE00
01C600
018700
038700
038300
030380
07FF80
07FF80
0601C0
0601C0
0E01C0
0E00E0
1C00E0
000000
003000
003000
003F00
001E00
ENDCHAR
STARTCHAR 1F8E
ENCODING 8078
SWIDTH 600 0
DWIDTH 16 0
BBX 20 24 -4 -5
BITMAP
38FC00
7FBC00
C73E00
0C7600
1E6600
0C6700
0CE700
08E300
00C380
01C380
01C180
0181C0
03FFC0
03FFC0
0300E0
0300E0
0700E0
070070
0E0070
000000
001800
001800
001F80
000F00
ENDCHAR
STARTCHAR 1F8F
ENCODING 8079
SWIDTH 600 0
DWIDTH 16 0
BBX 20 24 -4 -5
BITMAP
38FC00
7FBC00
C73E00
0C7600
1C6600
1C6700
0CE700
0CE300
00C380
01C380
01C180
0181C0
03FFC0
03FFC0
0300E0
0300E0
0700E0
070070
0E0070
000000
001800
001800
001F80
000F00
ENDCHAR
STARTCHAR 1F90
ENCODING 8080
SWIDTH 600 0
DWIDTH 16 0
BBX 12 28 2 -6
BITMAP
0300
0380
0380
0300
0300
0600
0000
E3C0
EFE0
F8F0
7070
6070
6070
6070
6070
6070
6070
6070
6070
6070
6070
6070
0070
6070
6070
7C70
3C70
0070
ENDCHAR
STARTCHAR 1F91
ENCODING 8081
SWIDTH 600 0
DWIDTH 16 0
BBX 12 28 2 -6
BITMAP
0C00
0E00
0C00
0C00
0400
0600
0000
E3C0
EFE0
F8F0
7070
6070
6070
6070
6070
6070
6070
6070
6070
6070
6070
6070
0070
6070
6070
7C70
3C70
0070
ENDCHAR
STARTCHAR 1F92
ENCODING 8082
SWIDTH 600 0
DWIDTH 16 0
BBX 12 28 2 -6
BITMAP
1980
3B80
1980
1980
30C0
30C0
0000
E3C0
EFE0
F8F0
7070
6070
6070
6070
6070
6070
6070
6070
6070
6070
6070
6070
0070
6070
6070
7C70
3C70
0070
ENDCHAR
STARTCHAR 1F93
ENCODING 8083
SWIDTH 600 0
DWIDTH 16 0
BBX 12 28 2 -6
BITMAP
3100
3B00
3380
3180
1980
1980
0000
E3C0
EFE0
F8F0
7070
6070
6070
6070
6070
6070
6070
6070
6070
6070
6070
6070
0070
6070
6070
7C70
3C70
0070
ENDCHAR
STARTCHAR 1F94
ENCODING 8084
SWIDTH 600 0
DWIDTH 16 0
BBX 12 28 2 -6
BITMAP
0CC0
1EE0
0CC0
0CC0
0CC0
1980
0000
E3C0
EFE0
F8F0
7070
6070
6070
6070
6070
6070
6070
6070
6070
6070
6070
6070
0070
6070
6070
7C70
3C70
0070
ENDCHAR
STARTCHAR 1F95
ENCODING 8085
SWIDTH 600 0
DWIDTH 16 0
BBX 12 28 2 -6
BITMAP
1880
1CC0
1DC0
1980
0D80
0D80
0000
E3C0
EFE0
F8F0
7070
6070
6070
6070
6070
6070
6070
6070
6070
6070
6070
6070
0070
6070
6070
7C70
3C70
0070
ENDCHAR
STARTCHAR 1F96
ENCODING 8086
SWIDTH 600 0
DWIDTH 16 0
BBX 12 30 2 -6
BITMAP
1E60
1FE0
33C0
0700
0700
0700
0300
0600
0000
E3C0
EFE0
F8F0
7070
6070
6070
6070
6070
6070
6070
6070
6070
6070
6070
6070
0070
6070
6070
7C70
3C70
0070
ENDCHAR
STARTCHAR 1F97
ENCODING 8087
SWIDTH 600 0
DWIDTH 16 0
BBX 12 30 2 -6
BITMAP
1E60
3FC0
3380
0600
0700
0700
0600
0200
0000
E3C0
EFE0
F8F0
7070
6070
6070
6070
6070
6070
6070
6070
6070
6070
6070
6070
0070
6070
6070
7C70
3C70
0070
ENDCHAR
STARTCHAR 1F98
ENCODING 8088
SWIDTH 600 0
DWIDTH 16 0
BBX 16 24 -2 -5
BITMAP
EE03
EE03
EE03
EE03
CE03
CE03
0E03
0E03
0FFF
0FFF
0E03
0E03
0E03
0E03
0E03
0E03
0E03
0E03
0E03
0000
0060
0060
007E
003C
ENDCHAR
STARTCHAR 1F99
ENCODING 8089
SWIDTH 600 0
DWIDTH 16 0
BBX 17 24 -3 -5
BITMAP
670180
F70180
670180
670180
670180
370180
070180
070180
07FF80
07FF80
070180
070180
070180
070180
070180
070180
070180
070180
070180
000000
003000
003000
003F00
001E00
ENDCHAR
STARTCHAR 1F9A
ENCODING 8090
SWIDTH 600 0
DWIDTH 16 0
BBX 21 24 -7 -5
BITMAP
6E7018
F67018
667018
677018
637018
C37018
007018
007018
007FF8
007FF8
007018
007018
007018
007018
007018
007018
007018
007018
007018
000000
000300
000300
0003F0
0001E0
ENDCHAR
STARTCHAR 1F9B
ENCODING 8091
SWIDTH 600 0
DWIDTH 16 0
BBX 21 24 -7 -5
BITMAP
6E7018
E67018
E67018
677018
637018
337018
007018
007018
007FF8
007FF8
007018
007018
007018
007018
007018
007018
007018
007018
007018
000000
000300
000300
0003F0
0001E0
ENDCHAR
STARTCHAR 1F9C
ENCODING 8092
SWIDTH 600 0
DWIDTH 16 0
BBX 20 24 -6 -5
BITMAP
E4E030
E6E030
EEE030
CCE030
CCE030
8CE030
00E030
00E030
00FFF0
00FFF0
00E030
00E030
00E030
00E030
00E030
00E030
00E030
00E030
00E030
000000
000600
000600
0007E0
0003C0
ENDCHAR
STARTCHAR 1F9D
ENCODING 8093
SWIDTH 600 0
DWIDTH 16 0
BBX 20 24 -6 -5
BITMAP
E4E030
E6E030
EEE030
CCE030
6CE030
6CE030
00E030
00E030
00FFF0
00FFF0
00E030
00E030
00E030
00E030
00E030
00E030
00E030
00E030
00E030
000000
000600
000600
0007E0
0003C0
ENDCHAR
STARTCHAR 1F9E
ENCODING 8094
SWIDTH 600 0
DWIDTH 16 0
BBX 21 24 -7 -5
BITMAP
79F018
FF7018
CE7018
187018
1C7018
1C7018
187018
187018
007FF8
007FF8
007018
007018
007018
007018
007018
007018
007018
007018
007018
000000
000300
000300
0003F0
0001E0
ENDCHAR
STARTCHAR 1F9F
ENCODING 8095
SWIDTH 600 0
DWIDTH 16 0
BBX 21 24 -7 -5
BITMAP
79F018
FF7018
CE7018
187018
1C7018
1C7018
187018
087018
007FF8
007FF8
007018
007018
007018
007018
007018
007018
007018
007018
007018
000000
000300
000300
0003F0
0001E0
ENDCHAR
STARTCHAR 1FA0
ENCODING 8096
SWIDTH 600 0
DWIDTH 16 0
BBX 15 27 1 -5
BITMAP
0180
01C0
01C0
0180
0180
0300
0000
601C
601C
E00C
E00C
C08C
C30E
C30E
C30E
C30E
C30E
C38E
E38C
E79C
7EF8
3C70
0000
0300
0300
03F0
01E0
ENDCHAR
STARTCHAR 1FA1
ENCODING 8097
SWIDTH 600 0
DWIDTH 16 0
BBX 15 27 1 -5
BITMAP
0600
0F00
0600
0600
0200
0300
0000
601C
601C
E00C
E00C
C08C
C30E
C30E
C30E
C30E
C30E
C38E
E38C
E79C
7EF8
3C70
0000
0300
0300
03F0
01E0
ENDCHAR
STARTCHAR 1FA2
ENCODING 8098
SWIDTH 600 0
DWIDTH 16 0
BBX 15 27 1 -5
BITMAP
0CC0
1DC0
0CC0
0CC0
1860
1860
0000
601C
601C
E00C
E00C
C08C
C30E
C30E
C30E
C30E
C30E
C38E
E38C
E79C
7EF8
3C70
0000
0300
0300
03F0
01E0
ENDCHAR
STARTCHAR 1FA3
ENCODING 8099
SWIDTH 600 0
DWIDTH 16 0
BBX 15 27 1 -5
BITMAP
1880
1D80
19C0
18C0
0CC0
0CC0
0000
601C
601C
E00C
E00C
C08C
C30E
C30E
C30E
C30E
C30E
C38E
E38C
E79C
7EF8
3C70
0000
0300
0300
03F0
01E0
ENDCHAR
STARTCHAR 1FA4
ENCODING 8100
SWIDTH 600 0
DWIDTH 16 0
BBX 15 27 1 -5
BITMAP
0660
0F70
0660
0660
0660
0CC0
0000
601C
601C
E00C
E00C
C08C
C30E
C30E
C30E
C30E
C30E
C38E
E38C
E79C
7EF8
3C70
0000
0300
0300
03F0
01E0
ENDCHAR
STARTCHAR 1FA5
ENCODING 8101
SWIDTH 600 0
DWIDTH 16 0
BBX 15 27 1 -5
BITMAP
0C40
0E60
0EE0
0CC0
06C0
06C0
0000
601C
601C
E00C
E00C
C08C
C30E
C30E
C30E
C30E
C30E
C38E
E38C
E79C
7EF8
3C70
0000
0300
0300
03F0
01E0
ENDCHAR
STARTCHAR 1FA6
ENCODING 8102
SWIDTH 600 0
DWIDTH 16 0
BBX 15 29 1 -5
BITMAP
0F30
1FF0
19E0
0380
0380
0380
0180
0300
0000
601C
601C
E00C
E00C
C08C
C30E
C30E
C30E
C30E
C30E
C38E
E38C
E79C
7EF8
3C70
0000
0300
0300
03F0
01E0
ENDCHAR
STARTCHAR 1FA7
ENCODING 8103
SWIDTH 600 0
DWIDTH 16 0
BBX 15 29 1 -5
BITMAP
0F30
1FE0
19C0
0300
0380
0380
0300
0100
0000
601C
601C
E00C
E00C
C08C
C30E
C30E
C30E
C30E
C30E
C38E
E38C
E79C
7EF8
3C70
0000
0300
0300
03F0
01E0
ENDCHAR
STARTCHAR 1FA8
ENCODING 8104
SWIDTH 600 0
DWIDTH 16 0
BBX 16 24 -1 -5
BITMAP
E1F0
E7F8
EF1C
DC0E
DC06
D807
3807
3807
3807
3807
3807
3807
3807
1C07
1C06
0E0C
0618
3F3F
3F3F
0000
00C0
00C0
00FC
0078
ENDCHAR
STARTCHAR 1FA9
ENCODING 8105
SWIDTH 600 0
DWIDTH 16 0
BBX 17 24 -2 -5
BITMAP
E0F800
E3FC00
E78E00
CE0700
6E0300
6C0380
1C0380
1C0380
1C0380
1C0380
1C0380
1C0380
1C0380
0E0380
0E0300
070600
030C00
1F9F80
1F9F80
000000
006000
006000
007E00
003C00
ENDCHAR
STARTCHAR 1FAA
ENCODING 8106
SWIDTH 600 0
DWIDTH 16 0
BBX 22 24 -7 -5
BITMAP
6E07C0
F61FE0
663C70
667038
437018
C3601C
00E01C
00E01C
00E01C
00E01C
00E01C
00E01C
00E01C
00701C
007018
003830
001860
00FCFC
00FCFC
000000
000300
000300
0003F0
0001E0
ENDCHAR
STARTCHAR 1FAB
ENCODING 8107
SWIDTH 600 0
DWIDTH 16 0
BBX 22 24 -7 -5
BITMAP
6E07C0
E61FE0
E63C70
667038
637018
33601C
00E01C
00E01C
00E01C
00E01C
00E01C
00E01C
00E01C
00701C
007018
003830
001860
00FCFC
00FCFC
000000
000300
000300
0003F0
0001E0
ENDCHAR
STARTCHAR 1FAC
ENCODING 8108
SWIDTH 600 0
DWIDTH 16 0
BBX 21 24 -6 -5
BITMAP
670F80
E63FC0
E678E0
66E070
CCE030
CCC038
01C038
01C038
01C038
01C038
01C038
01C038
01C038
00E038
00E030
007060
0030C0
01F9F8
01F9F8
000000
000600
000600
0007E0
0003C0
ENDCHAR
STARTCHAR 1FAD
ENCODING 8109
SWIDTH 600 0
DWIDTH 16 0
BBX 21 24 -6 -5
BITMAP
660F80
E73FC0
E678E0
66E070
6CE030
3CC038
01C038
01C038
01C038
01C038
01C038
01C038
01C038
00E038
00E030
007060
0030C0
01F9F8
01F9F8
000000
000600
000600
0007E0
0003C0
ENDCHAR
STARTCHAR 1FAE
ENCODING 8110
SWIDTH 600 0
DWIDTH 16 0
BBX 21 24 -6 -5
BITMAP
718F80
FF3FC0
CE78E0
18E070
1CE030
1CC038
19C038
19C038
01C038
01C038
01C038
01C038
01C038
00E038
00E030
007060
0030C0
01F9F8
01F9F8
000000
000600
000600
0007E0
0003C0
ENDCHAR
STARTCHAR 1FAF
ENCODING 8111
SWIDTH 600 0
DWIDTH 16 0
BBX 21 24 -6 -5
BITMAP
718F80
FF3FC0
CE78E0
18E070
3CE030
18C038
19C038
09C038
01C038
01C038
01C038
01C038
01C038
00E038
00E030
007060
0030C0
01F9F8
01F9F8
000000
000600
000600
0007E0
0003C0
ENDCHAR
STARTCHAR 1FB0
ENCODING 8112
SWIDTH 600 0
DWIDTH 16 0
BBX 14 21 1 0
BITMAP
3060
18C0
1FC0
0780
0000
0000
0F1C
3F98
39D8
7058
7078
6070
6030
E030
E070
6070
7078
70F8
79D8
3F9C
1F08
ENDCHAR
STARTCHAR 1FB1
ENCODING 8113
SWIDTH 600 0
DWIDTH 16 0
BBX 14 21 1 0
BITMAP
1FC0
1FC0
0000
0000
0000
0000
0F1C
3F98
39D8
7058
7078
6070
6030
E030
E070
6070
7078
70F8
79D8
3F9C
1F08
ENDCHAR
STARTCHAR 1FB2
ENCODING 8114
SWIDTH 600 0
DWIDTH 16 0
BBX 14 27 1 -5
BITMAP
0800
0E00
1F80
03C0
0040
0000
0000
0F1C
3F98
39D8
7058
7078
6070
6030
E030
E070
6070
7078
70F8
79D8
3F9C
1F08
0000
0300
0300
03F0
01E0
ENDCHAR
STARTCHAR 1FB3
ENCODING 8115
SWIDTH 600 0
DWIDTH 16 0
BBX 14 20 1 -5
BITMAP
0F1C
3F98
39D8
7058
7078
6070
6030
E030
E070
6070
7078
70F8
79D8
3F9C
1F08
0000
0300
0300
03F0
01E0
ENDCHAR
STARTCHAR 1FB4
ENCODING 8116
SWIDTH 600 0
DWIDTH 16 0
BBX 14 27 1 -5
BITMAP
0080
03C0
0780
1E00
0800
0000
0000
0F1C
3F98
39D8
7058
7078
6070
6030
E030
E070
6070
7078
70F8
79D8
3F9C
1F08
0000
0300
0300
03F0
01E0
ENDCHAR
STARTCHAR 1FB6
ENCODING 8118
SWIDTH 600 0
DWIDTH 16 0
BBX 14 21 1 0
BITMAP
1E60
3FE0
33C0
0000
0000
0000
0F1C
3F98
39D8
7058
7078
6070
6030
E030
E070
6070
7078
70F8
79D8
3F9C
1F08
ENDCHAR
STARTCHAR 1FB7
ENCODING 8119
SWIDTH 600 0
DWIDTH 16 0
BBX 14 26 1 -5
BITMAP
1E60
3FE0
33C0
0000
0000
0000
0F1C
3F98
39D8
7058
7078
6070
6030
E030
E070
6070
7078
70F8
79D8
3F9C
1F08
0000
0300
0300
03F0
01E0
ENDCHAR
STARTCHAR 1FB8
ENCODING 8120
SWIDTH 600 0
DWIDTH 16 0
BBX 16 25 0 0
BITMAP
0C30
0E70
07F0
03C0
0000
0000
03C0
03C0
03E0
0760
0660
0670
0E70
0E30
0C38
1C38
1C18
181C
3FFC
3FFC
300E
300E
700E
7007
E007
ENDCHAR
STARTCHAR 1FB9
ENCODING 8121
SWIDTH 600 0
DWIDTH 16 0
BBX 16 24 0 0
BITMAP
0FF0
0FF0
0000
0000
0000
03C0
03C0
03E0
0760
0660
0670
0E70
0E30
0C38
1C38
1C18
181C
3FFC
3FFC
300E
300E
700E
7007
E007
ENDCHAR
STARTCHAR 1FBA
ENCODING 8122
SWIDTH 600 0
DWIDTH 16 0
BBX 16 19 0 0
BITMAP
E3C0
E3C0
63E0
7760
3660
2670
0E70
0E30
0C38
1C38
1C18
181C
3FFC
3FFC
300E
300E
700E
7007
E007
ENDCHAR
STARTCHAR 1FBB
ENCODING 8123
SWIDTH 600 0
DWIDTH 16 0
BBX 16 19 0 0
BITMAP
7BC0
73C0
73E0
6760
6660
2670
0E70
0E30
0C38
1C38
1C18
181C
3FFC
3FFC
300E
300E
700E
7007
E007
ENDCHAR
STARTCHAR 1FBC
ENCODING 8124
SWIDTH 600 0
DWIDTH 16 0
BBX 16 24 0 -5
BITMAP
03C0
03C0
03E0
0760
0660
0670
0E70
0E30
0C38
1C38
1C18
181C
3FFC
3FFC
300E
300E
700E
7007
E007
0000
0180
0180
01F8
00F0
ENDCHAR
STARTCHAR 1FBD
ENCODING 8125
SWIDTH 600 0
DWIDTH 16 0
BBX 3 6 7 16
BITMAP
C0
E0
E0
C0
C0
80
ENDCHAR
STARTCHAR 1FBE
ENCODING 8126
SWIDTH 600 0
DWIDTH 16 0
BBX 6 4 5 -5
BITMAP
E0
E0
7C
78
ENDCHAR
STARTCHAR 1FBF
ENCODING 8127
SWIDTH 600 0
DWIDTH 16 0
BBX 3 6 7 16
BITMAP
C0
E0
E0
C0
C0
80
ENDCHAR
STARTCHAR 1FC0
ENCODING 8128
SWIDTH 600 0
DWIDTH 16 0
BBX 9 3 4 18
BITMAP
7980
FF00
CE00
ENDCHAR
STARTCHAR 1FC1
ENCODING 8129
SWIDTH 600 0
DWIDTH 16 0
BBX 9 8 4 17
BITMAP
7180
FF00
CF00
0000
0000
E300
E380
E300
ENDCHAR
STARTCHAR 1FC2
ENCODING 8130
SWIDTH 600 0
DWIDTH 16 0
BBX 12 28 2 -6
BITMAP
0800
1E00
0F00
03C0
0080
0000
0000
E3C0
EFE0
F8F0
7070
6070
6070
6070
6070
6070
6070
6070
6070
6070
6070
6070
0070
6070
6070
7C70
3C70
0070
ENDCHAR
STARTCHAR 1FC3
ENCODING 8131
SWIDTH 600 0
DWIDTH 16 0
BBX 12 21 2 -6
BITMAP
E3C0
EFE0
F8F0
7070
6070
6070
6070
6070
6070
6070
6070
6070
6070
6070
6070
0070
6070
6070
7C70
3C70
0070
ENDCHAR
STARTCHAR 1FC4
ENCODING 8132
SWIDTH 600 0
DWIDTH 16 0
BBX 12 28 2 -6
BITMAP
0080
0380
0FC0
1C00
1000
0000
0000
E3C0
EFE0
F8F0
7070
6070
6070
6070
6070
6070
6070
6070
6070
6070
6070
6070
0070
6070
6070
7C70
3C70
0070
ENDCHAR
STARTCHAR 1FC6
ENCODING 8134
SWIDTH 600 0
DWIDTH 16 0
BBX 12 27 2 -6
BITMAP
1E60
3FC0
3380
0000
0000
0000
E3C0
EFE0
F8F0
7070
6070
6070
6070
6070
6070
6070
6070
6070
6070
6070
6070
0070
0070
0070
0070
0070
0070
ENDCHAR
STARTCHAR 1FC7
ENCODING 8135
SWIDTH 600 0
DWIDTH 16 0
BBX 12 27 2 -6
BITMAP
1E60
3FC0
3380
0000
0000
0000
E3C0
EFE0
F8F0
7070
6070
6070
6070
6070
6070
6070
6070
6070
6070
6070
6070
0070
6070
6070
7C70
3C70
0070
ENDCHAR
STARTCHAR 1FC8
ENCODING 8136
SWIDTH 600 0
DWIDTH 16 0
BBX 16 19 -2 0
BITMAP
F7FF
77FF
7700
3700
3700
2700
0700
0700
07FE
07FE
0700
0700
0700
0700
0700
0700
0700
07FF
07FF
ENDCHAR
STARTCHAR 1FC9
ENCODING 8137
SWIDTH 600 0
DWIDTH 16 0
BBX 15 19 -1 0
BITMAP
7FFE
EFFE
EE00
EE00
CE00
4E00
0E00
0E00
0FFC
0FFC
0E00
0E00
0E00
0E00
0E00
0E00
0E00
0FFE
0FFE
ENDCHAR
STARTCHAR 1FCA
ENCODING 8138
SWIDTH 600 0
DWIDTH 16 0
BBX 17 19 -3 0
BITMAP
E70180
770180
770180
370180
370180
270180
070180
070180
07FF80
07FF80
070180
070180
070180
070180
070180
070180
070180
070180
070180
ENDCHAR
STARTCHAR 1FCB
ENCODING 8139
SWIDTH 600 0
DWIDTH 16 0
BBX 16 19 -2 0
BITMAP
FE03
EE03
EE03
CE03
CE03
4E03
0E03
0E03
0FFF
0FFF
0E03
0E03
0E03
0E03
0E03
0E03
0E03
0E03
0E03
ENDCHAR
STARTCHAR 1FCC
ENCODING 8140
SWIDTH 600 0
DWIDTH 16 0
BBX 12 24 2 -5
BITMAP
E030
E030
E030
E030
E030
E030
E030
E030
FFF0
FFF0
E030
E030
E030
E030
E030
E030
E030
E030
E030
0000
0600
0600
07E0
03C0
ENDCHAR
STARTCHAR 1FCD
ENCODING 8141
SWIDTH 600 0
DWIDTH 16 0
BBX 8 6 4 16
BITMAP
6E
F6
66
66
43
C3
ENDCHAR
STARTCHAR 1FCE
ENCODING 8142
SWIDTH 600 0
DWIDTH 16 0
BBX 8 6 4 16
BITMAP
66
F7
66
66
4E
CC
ENDCHAR
STARTCHAR 1FCF
ENCODING 8143
SWIDTH 600 0
DWIDTH 16 0
BBX 9 8 4 16
BITMAP
7180
FF00
CE00
1800
1C00
1C00
1800
1800
ENDCHAR
STARTCHAR 1FD0
ENCODING 8144
SWIDTH 600 0
DWIDTH 16 0
BBX 12 21 2 0
BITMAP
30C0
39C0
1F80
0F00
0000
0000
FE00
FE00
0E00
0E00
0E00
0E00
0E00
0E00
0E00
0E00
0E00
0E00
0710
07F0
03F0
ENDCHAR
STARTCHAR 1FD1
ENCODING 8145
SWIDTH 600 0
DWIDTH 16 0
BBX 12 21 2 0
BITMAP
3FC0
3FC0
0000
0000
0000
0000
FE00
FE00
0E00
0E00
0E00
0E00
0E00
0E00
0E00
0E00
0E00
0E00
0710
07F0
03F0
ENDCHAR
STARTCHAR 1FD2
ENCODING 8146
SWIDTH 600 0
DWIDTH 16 0
BBX 12 25 2 0
BITMAP
1000
3800
1C00
0600
35C0
79C0
30C0
0000
0000
0000
FE00
FE00
0E00
0E00
0E00
0E00
0E00
0E00
0E00
0E00
0E00
0E00
0710
07F0
03F0
ENDCHAR
STARTCHAR 1FD3
ENCODING 8147
SWIDTH 600 0
DWIDTH 16 0
BBX 12 25 2 0
BITMAP
0180
01C0
0300
0600
35C0
79C0
30C0
0000
0000
0000
FE00
FE00
0E00
0E00
0E00
0E00
0E00
0E00
0E00
0E00
0E00
0E00
0710
07F0
03F0
ENDCHAR
STARTCHAR 1FD6
ENCODING 8150
SWIDTH 600 0
DWIDTH 16 0
BBX 12 21 2 0
BITMAP
1CC0
3FC0
6380
0000
0000
0000
FE00
FE00
0E00
0E00
0E00
0E00
0E00
0E00
0E00
0E00
0E00
0E00
0710
07F0
03F0
ENDCHAR
STARTCHAR 1FD7
ENCODING 8151
SWIDTH 600 0
DWIDTH 16 0
BBX 12 25 2 0
BITMAP
1CC0
3FC0
6380
0000
30C0
79C0
30C0
0000
0000
0000
FE00
FE00
0E00
0E00
0E00
0E00
0E00
0E00
0E00
0E00
0E00
0E00
0710
07F0
03F0
ENDCHAR
STARTCHAR 1FD8
ENCODING 8152
SWIDTH 600 0
DWIDTH 16 0
BBX 11 25 3 0
BITMAP
6180
7380
3F80
1E00
0000
0000
FFE0
FFE0
0E00
0E00
0E00
0E00
0E00
0E00
0E00
0E00
0E00
0E00
0E00
0E00
0E00
0E00
0E00
FFE0
FFE0
ENDCHAR
STARTCHAR 1FD9
ENCODING 8153
SWIDTH 600 0
DWIDTH 16 0
BBX 11 24 3 0
BITMAP
7F80
7F80
0000
0000
0000
FFE0
FFE0
0E00
0E00
0E00
0E00
0E00
0E00
0E00
0E00
0E00
0E00
0E00
0E00
0E00
0E00
0E00
FFE0
FFE0
ENDCHAR
STARTCHAR 1FDA
ENCODING 8154
SWIDTH 600 0
DWIDTH 16 0
BBX 16 19 -2 0
BITMAP
F7FF
77FF
7070
3070
3070
2070
0070
0070
0070
0070
0070
0070
0070
0070
0070
0070
0070
07FF
07FF
ENDCHAR
STARTCHAR 1FDB
ENCODING 8155
SWIDTH 600 0
DWIDTH 16 0
BBX 16 19 -2 0
BITMAP
77FF
77FF
6070
E070
E070
4070
0070
0070
0070
0070
0070
0070
0070
0070
0070
0070
0070
07FF
07FF
ENDCHAR
STARTCHAR 1FDD
ENCODING 8157
SWIDTH 600 0
DWIDTH 16 0
BBX 8 6 4 16
BITMAP
6E
E6
E6
66
63
33
ENDCHAR
STARTCHAR 1FDE
ENCODING 8158
SWIDTH 600 0
DWIDTH 16 0
BBX 8 6 4 16
BITMAP
66
E7
E6
66
6E
3C
ENDCHAR
STARTCHAR 1FDF
ENCODING 8159
SWIDTH 600 0
DWIDTH 16 0
BBX 9 8 4 16
BITMAP
7180
FF00
CE00
1800
1C00
1C00
1800
0800
ENDCHAR
STARTCHAR 1FE0
ENCODING 8160
SWIDTH 600 0
DWIDTH 16 0
BBX 11 21 3 0
BITMAP
6180
7380
3F00
1E00
0000
0000
C0E0
C0E0
C0E0
C060
C060
C060
C060
C060
C060
C060
C0E0
E0E0
E3C0
7F80
3E00
ENDCHAR
STARTCHAR 1FE1
ENCODING 8161
SWIDTH 600 0
DWIDTH 16 0
BBX 11 21 3 0
BITMAP
7F80
7F80
0000
0000
0000
0000
C0E0
C0E0
C0E0
C060
C060
C060
C060
C060
C060
C060
C0E0
E0E0
E3C0
7F80
3E00
ENDCHAR
STARTCHAR 1FE2
ENCODING 8162
SWIDTH 600 0
DWIDTH 16 0
BBX 11 25 3 0
BITMAP
3000
7800
1800
0C00
6580
73C0
6180
0000
0000
0000
C0E0
C0E0
C0E0
C060
C060
C060
C060
C060
C060
C060
C0E0
E0E0
E3C0
7F80
3E00
ENDCHAR
STARTCHAR 1FE3
ENCODING 8163
SWIDTH 600 0
DWIDTH 16 0
BBX 11 25 3 0
BITMAP
0100
0380
0700
0E00
6580
73C0
6180
0000
0000
0000
C0E0
C0E0
C0E0
C060
C060
C060
C060
C060
C060
C060
C0E0
E0E0
E3C0
7F80
3E00
ENDCHAR
STARTCHAR 1FE4
ENCODING 8164
SWIDTH 600 0
DWIDTH 16 0
BBX 13 28 2 -6
BITMAP
0380
0380
0380
0300
0300
0200
0000
0F80
3FE0
38E0
7070
6070
6030
E030
E038
E030
E030
E070
E070
F8E0
FFE0
E780
E000
E000
E000
E000
E000
8000
ENDCHAR
STARTCHAR 1FE5
ENCODING 8165
SWIDTH 600 0
DWIDTH 16 0
BBX 13 28 2 -6
BITMAP
0C00
0E00
0E00
0C00
0600
0600
0000
0F80
3FE0
38E0
7070
6070
6030
E030
E038
E030
E030
E070
E070
F8E0
FFE0
E780
E000
E000
E000
E000
E000
8000
ENDCHAR
STARTCHAR 1FE6
ENCODING 8166
SWIDTH 600 0
DWIDTH 16 0
BBX 11 21 3 0
BITMAP
3CC0
7F80
6700
0000
0000
0000
C0E0
C0E0
C0E0
C060
C060
C060
C060
C060
C060
C060
C0E0
E0E0
E3C0
7F80
3E00
ENDCHAR
STARTCHAR 1FE7
ENCODING 8167
SWIDTH 600 0
DWIDTH 16 0
BBX 11 25 3 0
BITMAP
3CC0
7F80
6780
0000
7180
71C0
7180
0000
0000
0000
C0E0
C0E0
C0E0
C060
C060
C060
C060
C060
C060
C060
C0E0
E0E0
E3C0
7F80
3E00
ENDCHAR
STARTCHAR 1FE8
ENCODING 8168
SWIDTH 600 0
DWIDTH 16 0
BBX 16 25 0 0
BITMAP
0C10
0E70
07F0
03C0
0000
0000
F007
700E
380E
381C
1C1C
1C38
0E30
0670
0760
03E0
03C0
01C0
01C0
01C0
01C0
01C0
01C0
01C0
01C0
ENDCHAR
STARTCHAR 1FE9
ENCODING 8169
SWIDTH 600 0
DWIDTH 16 0
BBX 16 24 0 0
BITMAP
07F0
07F0
0000
0000
0000
F007
700E
380E
381C
1C1C
1C38
0E30
0670
0760
03E0
03C0
01C0
01C0
01C0
01C0
01C0
01C0
01C0
01C0
ENDCHAR
STARTCHAR 1FEA
ENCODING 8170
SWIDTH 600 0
DWIDTH 16 0
BBX 19 19 -3 0
BITMAP
FE00E0
EE01C0
6701C0
670380
738380
238700
01C600
00CE00
00EC00
007C00
007800
003800
003800
003800
003800
003800
003800
003800
003800
ENDCHAR
STARTCHAR 1FEB
ENCODING 8171
SWIDTH 600 0
DWIDTH 16 0
BBX 20 19 -4 0
BITMAP
7F0070
7700E0
6380E0
6381C0
E1C1C0
41C380
00E300
006700
007600
003E00
003C00
001C00
001C00
001C00
001C00
001C00
001C00
001C00
001C00
ENDCHAR
STARTCHAR 1FEC
ENCODING 8172
SWIDTH 600 0
DWIDTH 16 0
BBX 17 19 -2 0
BITMAP
67F800
E7FE00
E70F00
670380
670380
270380
070380
070380
070380
070F00
07FE00
07F800
070000
070000
070000
070000
070000
070000
070000
ENDCHAR
STARTCHAR 1FED
ENCODING 8173
SWIDTH 600 0
DWIDTH 16 0
BBX 9 7 4 17
BITMAP
6000
F000
3000
1800
CB00
E780
C300
ENDCHAR
STARTCHAR 1FEE
ENCODING 8174
SWIDTH 600 0
DWIDTH 16 0
BBX 9 7 4 17
BITMAP
0200
0700
0E00
1C00
EB00
E780
E300
ENDCHAR
STARTCHAR 1FEF
ENCODING 8175
SWIDTH 600 0
DWIDTH 16 0
BBX 7 5 5 17
BITMAP
40
F0
78
1E
04
ENDCHAR
STARTCHAR 1FF2
ENCODING 8178
SWIDTH 600 0
DWIDTH 16 0
BBX 15 27 1 -5
BITMAP
0400
0F00
0780
01E0
0040
0000
0000
601C
601C
E00C
E00C
C08C
C30E
C30E
C30E
C30E
C30E
C38E
E38C
E79C
7EF8
3C70
0000
0300
0300
03F0
01E0
ENDCHAR
STARTCHAR 1FF3
ENCODING 8179
SWIDTH 600 0
DWIDTH 16 0
BBX 15 20 1 -5
BITMAP
601C
601C
E00C
E00C
C08C
C30E
C30E
C30E
C30E
C30E
C38E
E38C
E79C
7EF8
3C70
0000
0300
0300
03F0
01E0
ENDCHAR
STARTCHAR 1FF4
ENCODING 8180
SWIDTH 600 0
DWIDTH 16 0
BBX 15 27 1 -5
BITMAP
0040
01C0
07E0
0E00
0800
0000
0000
601C
601C
E00C
E00C
C08C
C30E
C30E
C30E
C30E
C30E
C38E
E38C
E79C
7EF8
3C70
0000
0300
0300
03F0
01E0
ENDCHAR
STARTCHAR 1FF6
ENCODING 8182
SWIDTH 600 0
DWIDTH 16 0
BBX 15 21 1 0
BITMAP
0F30
1FE0
19C0
0000
0000
0000
601C
601C
E00C
E00C
C08C
C30E
C30E
C30E
C30E
C30E
C38E
E38C
E79C
7EF8
3C70
ENDCHAR
STARTCHAR 1FF7
ENCODING 8183
SWIDTH 600 0
DWIDTH 16 0
BBX 15 26 1 -5
BITMAP
0F30
1FE0
19C0
0000
0000
0000
601C
601C
E00C
E00C
C08C
C30E
C30E
C30E
C30E
C30E
C38E
E38C
E79C
7EF8
3C70
0000
0300
0300
03F0
01E0
ENDCHAR
STARTCHAR 1FF8
ENCODING 8184
SWIDTH 600 0
DWIDTH 16 0
BBX 18 19 -3 0
BITMAP
E07C00
61FE00
73C700
770380
370180
2601C0
0E01C0
0E01C0
0E01C0
0E01C0
0E01C0
0E01C0
0E01C0
0601C0
070180
070380
03C700
01FE00
007C00
ENDCHAR
STARTCHAR 1FF9
ENCODING 8185
SWIDTH 600 0
DWIDTH 16 0
BBX 17 19 -2 0
BITMAP
70F800
73FC00
678E00
EE0700
CE0300
4C0380
1C0380
1C0380
1C0380
1C0380
1C0380
1C0380
1C0380
0C0380
0E0300
0E0700
078E00
03FC00
00F800
ENDCHAR
STARTCHAR 1FFA
ENCODING 8186
SWIDTH 600 0
DWIDTH 16 0
BBX 18 19 -3 0
BITMAP
E07C00
61FE00
73C700
770380
370180
2601C0
0E01C0
0E01C0
0E01C0
0E01C0
0E01C0
0E01C0
0E01C0
0701C0
070180
038300
018600
0FCFC0
0FCFC0
ENDCHAR
STARTCHAR 1FFB
ENCODING 8187
SWIDTH 600 0
DWIDTH 16 0
BBX 17 19 -2 0
BITMAP
70F800
73FC00
678E00
EE0700
CE0300
4C0380
1C0380
1C0380
1C0380
1C0380
1C0380
1C0380
1C0380
0E0380
0E0300
070600
030C00
1F9F80
1F9F80
ENDCHAR
STARTCHAR 1FFC
ENCODING 8188
SWIDTH 600 0
DWIDTH 16 0
BBX 14 24 1 -5
BITMAP
07C0
1FE0
3C70
7038
7018
601C
E01C
E01C
E01C
E01C
E01C
E01C
E01C
701C
7018
3830
1860
FCFC
FCFC
0000
0300
0300
03F0
01E0
ENDCHAR
STARTCHAR 1FFD
ENCODING 8189
SWIDTH 600 0
DWIDTH 16 0
BBX 7 5 5 17
BITMAP
04
1C
7E
E0
80
ENDCHAR
STARTCHAR 1FFE
ENCODING 8190
SWIDTH 600 0
DWIDTH 16 0
BBX 3 6 7 16
BITMAP
C0
E0
C0
C0
40
60
ENDCHAR
STARTCHAR 2007
ENCODING 8199
SWIDTH 600 0
DWIDTH 16 0
BBX 0 0 0 0
BITMAP
ENDCHAR
STARTCHAR 2008
ENCODING 8200
SWIDTH 600 0
DWIDTH 16 0
BBX 0 0 0 0
BITMAP
ENDCHAR
STARTCHAR 200B
ENCODING 8203
SWIDTH 600 0
DWIDTH 16 0
BBX 0 0 0 0
BITMAP
ENDCHAR
STARTCHAR 2012
ENCODING 8210
SWIDTH 600 0
DWIDTH 16 0
BBX 14 2 1 8
BITMAP
FFFC
FFFC
ENDCHAR
STARTCHAR 2013
ENCODING 8211
SWIDTH 600 0
DWIDTH 16 0
BBX 15 2 1 8
BITMAP
FFFE
FFFE
ENDCHAR
STARTCHAR 2014
ENCODING 8212
SWIDTH 600 0
DWIDTH 16 0
BBX 16 2 0 8
BITMAP
FFFF
FFFF
ENDCHAR
STARTCHAR 2015
ENCODING 8213
SWIDTH 600 0
DWIDTH 16 0
BBX 15 2 1 9
BITMAP
FFFE
FFFE
ENDCHAR
STARTCHAR 2016
ENCODING 8214
SWIDTH 600 0
DWIDTH 16 0
BBX 8 34 4 -8
BITMAP
E3
E3
E3
E3
E3
E3
E3
E3
E3
E3
E3
E3
E3
E3
E3
E3
E3
E3
E3
E3
E3
E3
E3
E3
E3
E3
E3
E3
E3
E3
E3
E3
E3
E3
ENDCHAR
STARTCHAR 2017
ENCODING 8215
SWIDTH 600 0
DWIDTH 16 0
BBX 14 6 1 -6
BITMAP
FFFC
FFFC
0000
0000
FFFC
FFFC
ENDCHAR
STARTCHAR 2018
ENCODING 8216
SWIDTH 600 0
DWIDTH 16 0
BBX 5 9 6 13
BITMAP
38
30
70
70
70
F0
F0
F0
60
ENDCHAR
STARTCHAR 2019
ENCODING 8217
SWIDTH 600 0
DWIDTH 16 0
BBX 5 9 6 13
BITMAP
70
F0
F8
70
70
60
E0
C0
C0
ENDCHAR
STARTCHAR 201A
ENCODING 8218
SWIDTH 600 0
DWIDTH 16 0
BBX 5 9 6 -5
BITMAP
70
F0
F8
70
70
60
E0
C0
C0
ENDCHAR
STARTCHAR 201C
ENCODING 8220
SWIDTH 600 0
DWIDTH 16 0
BBX 11 9 3 13
BITMAP
38E0
30C0
71C0
71C0
71C0
F3C0
F3C0
F3C0
6180
ENDCHAR
STARTCHAR 201D
ENCODING 8221
SWIDTH 600 0
DWIDTH 16 0
BBX 11 9 3 13
BITMAP
71C0
F3C0
FBE0
71C0
71C0
6180
E380
C300
C300
ENDCHAR
STARTCHAR 201E
ENCODING 8222
SWIDTH 600 0
DWIDTH 16 0
BBX 10 9 3 -5
BITMAP
71C0
F3C0
FBC0
71C0
71C0
6180
E380
C300
C300
ENDCHAR
STARTCHAR 2020
ENCODING 8224
SWIDTH 600 0
DWIDTH 16 0
BBX 12 19 2 0
BITMAP
0600
0600
0600
0600
FFF0
FFF0
0600
0600
0600
0600
0600
0600
0600
0600
0600
0600
0600
0600
0600
ENDCHAR
STARTCHAR 2021
ENCODING 8225
SWIDTH 600 0
DWIDTH 16 0
BBX 12 19 2 0
BITMAP
0600
0600
0600
0600
FFF0
FFF0
0600
0600
0600
0600
0600
0600
FFF0
FFF0
0600
0600
0600
0600
0600
ENDCHAR
STARTCHAR 2022
ENCODING 8226
SWIDTH 600 0
DWIDTH 16 0
BBX 7 7 5 6
BITMAP
78
FC
FC
FE
FE
FC
78
ENDCHAR
STARTCHAR 2026
ENCODING 8230
SWIDTH 600 0
DWIDTH 16 0
BBX 15 4 1 0
BITMAP
E31C
F79E
F79E
E31C
ENDCHAR
STARTCHAR 2030
ENCODING 8240
SWIDTH 600 0
DWIDTH 16 0
BBX 16 19 0 0
BITMAP
1E00
3F00
7300
6300
6307
3E3E
00F8
07C0
3E00
F800
4000
1E1C
3F7E
7367
6363
6363
6363
3366
1E3C
ENDCHAR
STARTCHAR 2039
ENCODING 8249
SWIDTH 600 0
DWIDTH 16 0
BBX 6 14 5 1
BITMAP
08
0C
1C
38
70
70
E0
E0
F0
70
38
1C
0C
08
ENDCHAR
STARTCHAR 203A
ENCODING 8250
SWIDTH 600 0
DWIDTH 16 0
BBX 6 14 5 1
BITMAP
40
E0
60
70
38
1C
1C
1C
1C
38
70
60
E0
40
ENDCHAR
STARTCHAR 2044
ENCODING 8260
SWIDTH 600 0
DWIDTH 16 0
BBX 16 9 -8 5
BITMAP
0002
0007
001E
00F8
03E0
0F00
3C00
F000
4000
ENDCHAR
STARTCHAR 204A
ENCODING 8266
SWIDTH 600 0
DWIDTH 16 0
BBX 12 20 2 -5
BITMAP
FFF0
FFF0
0060
00E0
00E0
00C0
01C0
01C0
0180
0380
0300
0700
0700
0600
0E00
0E00
0C00
1C00
1800
3800
ENDCHAR
STARTCHAR 2070
ENCODING 8304
SWIDTH 600 0
DWIDTH 16 0
BBX 8 9 4 9
BITMAP
3E
7F
E3
C3
C3
C3
E7
7F
3C
ENDCHAR
STARTCHAR 2074
ENCODING 8308
SWIDTH 600 0
DWIDTH 16 0
BBX 8 10 4 9
BITMAP
10
18
18
30
76
66
E6
FF
FF
06
ENDCHAR
STARTCHAR 2075
ENCODING 8309
SWIDTH 600 0
DWIDTH 16 0
BBX 8 9 4 9
BITMAP
7F
7F
60
7E
7F
03
43
FF
3E
ENDCHAR
STARTCHAR 2076
ENCODING 8310
SWIDTH 600 0
DWIDTH 16 0
BBX 8 9 4 9
BITMAP
3E
7F
E2
DE
E3
C3
E3
7F
3E
ENDCHAR
STARTCHAR 2077
ENCODING 8311
SWIDTH 600 0
DWIDTH 16 0
BBX 8 9 4 9
BITMAP
FF
FF
07
06
0C
1C
18
38
30
ENDCHAR
STARTCHAR 2078
ENCODING 8312
SWIDTH 600 0
DWIDTH 16 0
BBX 9 9 4 9
BITMAP
3E00
7F00
E300
7700
3E00
C300
C380
FF00
7E00
ENDCHAR
STARTCHAR 2079
ENCODING 8313
SWIDTH 600 0
DWIDTH 16 0
BBX 8 9 4 9
BITMAP
3E
FF
C3
C3
FF
7B
07
7E
78
ENDCHAR
STARTCHAR 207A
ENCODING 8314
SWIDTH 600 0
DWIDTH 16 0
BBX 6 7 5 10
BITMAP
30
30
30
FC
FC
30
30
ENDCHAR
STARTCHAR 207B
ENCODING 8315
SWIDTH 600 0
DWIDTH 16 0
BBX 6 2 5 13
BITMAP
FC
FC
ENDCHAR
STARTCHAR 207C
ENCODING 8316
SWIDTH 600 0
DWIDTH 16 0
BBX 6 5 5 11
BITMAP
FC
FC
00
FC
FC
ENDCHAR
STARTCHAR 207D
ENCODING 8317
SWIDTH 600 0
DWIDTH 16 0
BBX 4 15 6 6
BITMAP
20
30
60
60
C0
C0
C0
C0
C0
C0
C0
60
60
30
20
ENDCHAR
STARTCHAR 207E
ENCODING 8318
SWIDTH 600 0
DWIDTH 16 0
BBX 5 15 6 6
BITMAP
40
C0
60
30
30
30
30
38
30
30
30
30
60
E0
40
ENDCHAR
STARTCHAR 207F
ENCODING 8319
SWIDTH 600 0
DWIDTH 16 0
BBX 7 10 5 10
BITMAP
98
FE
C6
C6
C6
C6
C6
C6
C6
C6
ENDCHAR
STARTCHAR 2080
ENCODING 8320
SWIDTH 600 0
DWIDTH 16 0
BBX 8 9 4 -5
BITMAP
3E
7F
E3
C3
C3
C3
E7
7F
3C
ENDCHAR
STARTCHAR 2081
ENCODING 8321
SWIDTH 600 0
DWIDTH 16 0
BBX 6 9 5 -5
BITMAP
1C
3C
FC
4C
0C
0C
0C
0C
0C
ENDCHAR
STARTCHAR 2082
ENCODING 8322
SWIDTH 600 0
DWIDTH 16 0
BBX 8 9 4 -5
BITMAP
3E
7F
C7
03
06
1C
70
FF
FF
ENDCHAR
STARTCHAR 2083
ENCODING 8323
SWIDTH 600 0
DWIDTH 16 0
BBX 8 9 4 -5
BITMAP
3E
FF
47
03
1C
03
43
FF
3E
ENDCHAR
STARTCHAR 2084
ENCODING 8324
SWIDTH 600 0
DWIDTH 16 0
BBX 8 10 4 -5
BITMAP
10
18
18
30
76
66
E6
FF
FF
06
ENDCHAR
STARTCHAR 2085
ENCODING 8325
SWIDTH 600 0
DWIDTH 16 0
BBX 8 9 4 -5
BITMAP
7F
7F
60
7E
7F
03
43
FF
3E
ENDCHAR
STARTCHAR 2086
ENCODING 8326
SWIDTH 600 0
DWIDTH 16 0
BBX 8 9 4 -5
BITMAP
3E
7F
E2
DE
E3
C3
E3
7F
3E
ENDCHAR
STARTCHAR 2087
ENCODING 8327
SWIDTH 600 0
DWIDTH 16 0
BBX 8 9 4 -5
BITMAP
FF
FF
07
06
0C
1C
18
38
30
ENDCHAR
STARTCHAR 2088
ENCODING 8328
SWIDTH 600 0
DWIDTH 16 0
BBX 9 9 4 -5
BITMAP
3E00
7F00
E300
7700
3E00
C300
C380
FF00
7E00
ENDCHAR
STARTCHAR 2089
ENCODING 8329
SWIDTH 600 0
DWIDTH 16 0
BBX 8 9 4 -5
BITMAP
3E
FF
C3
C3
FF
7B
07
7E
78
ENDCHAR
STARTCHAR 208A
ENCODING 8330
SWIDTH 600 0
DWIDTH 16 0
BBX 6 7 5 -4
BITMAP
30
30
30
FC
FC
30
30
ENDCHAR
STARTCHAR 208B
ENCODING 8331
SWIDTH 600 0
DWIDTH 16 0
BBX 6 2 5 -1
BITMAP
FC
FC
ENDCHAR
STARTCHAR 208C
ENCODING 8332
SWIDTH 600 0
DWIDTH 16 0
BBX 6 5 5 -3
BITMAP
FC
FC
00
FC
FC
ENDCHAR
STARTCHAR 208D
ENCODING 8333
SWIDTH 600 0
DWIDTH 16 0
BBX 4 15 6 -8
BITMAP
20
30
60
60
C0
C0
C0
C0
C0
C0
C0
60
60
30
20
ENDCHAR
STARTCHAR 208E
ENCODING 8334
SWIDTH 600 0
DWIDTH 16 0
BBX 5 15 6 -8
BITMAP
40
C0
60
30
30
30
30
38
30
30
30
30
60
E0
40
ENDCHAR
STARTCHAR 20AC
ENCODING 8364
SWIDTH 600 0
DWIDTH 16 0
BBX 14 19 1 0
BITMAP
01F8
07FC
0F08
1C00
1C00
1800
FFF0
FFF0
3800
3800
FFE0
FFE0
1800
1800
1C00
0C00
0F08
07F8
01F0
ENDCHAR
STARTCHAR 20AF
ENCODING 8367
SWIDTH 600 0
DWIDTH 16 0
BBX 10 26 3 -7
BITMAP
0C00
0E00
1E00
1A00
1300
3300
3100
2180
6180
7F80
FFC0
0000
1E00
3F00
3180
3180
3180
2180
2180
3380
3F00
2E00
2000
2000
2000
2000
ENDCHAR
STARTCHAR 20B9
ENCODING 8377
SWIDTH 600 0
DWIDTH 16 0
BBX 13 18 2 1
BITMAP
FFF8
FFF8
0380
01C0
FFF8
FFF8
00C0
01C0
03C0
FF80
FE00
0E00
0700
0700
0380
03C0
01C0
00F0
ENDCHAR
STARTCHAR 20BA
ENCODING 8378
SWIDTH 600 0
DWIDTH 16 0
BBX 13 19 2 0
BITMAP
3800
3800
3800
3800
3880
3BC0
3F00
3C00
F880
FBC0
3F00
3C00
F800
F810
3818
3838
38F0
3FE0
3F80
ENDCHAR
STARTCHAR 20BD
ENCODING 8381
SWIDTH 600 0
DWIDTH 16 0
BBX 13 19 2 0
BITMAP
3FC0
3FF0
30F0
3038
3038
3018
3038
3038
3038
30F0
FFF0
FF80
3000
3000
FF80
FF80
3000
3000
3000
ENDCHAR
STARTCHAR 2102
ENCODING 8450
SWIDTH 600 0
DWIDTH 16 0
BBX 14 19 2 0
BITMAP
07E0
1FF8
3E38
7E00
7E00
EE00
EE00
EE00
CE00
CE00
CE00
EE00
EE00
EE00
7E00
7E08
3E3C
1FF8
07E0
ENDCHAR
STARTCHAR 210D
ENCODING 8461
SWIDTH 600 0
DWIDTH 16 0
BBX 15 19 1 0
BITMAP
F87E
F87E
D866
D866
D866
D866
D866
D866
DFE6
DFE6
D866
D866
D866
D866
D866
D866
D866
F87E
F87E
ENDCHAR
STARTCHAR 2113
ENCODING 8467
SWIDTH 600 0
DWIDTH 16 0
BBX 11 21 2 0
BITMAP
0380
0FE0
0C60
1C60
1C60
1C60
1CE0
1CC0
1DC0
1F80
1F00
1E00
1C00
3C00
FC00
5C00
1C00
1C00
1E20
0FE0
07C0
ENDCHAR
STARTCHAR 2115
ENCODING 8469
SWIDTH 600 0
DWIDTH 16 0
BBX 12 19 2 0
BITMAP
FC30
FC30
EE30
E630
E730
F730
F330
F3B0
F9B0
D9F0
DDF0
DCF0
CCF0
EE70
E670
E770
E730
E3F0
E3F0
ENDCHAR
STARTCHAR 2116
ENCODING 8470
SWIDTH 600 0
DWIDTH 16 0
BBX 15 19 1 0
BITMAP
E638
E67C
E6EE
E6C6
B6C6
B6C6
B6C6
F6C6
F6C6
DEEE
DE7C
DE38
DA00
DA00
DA00
CE00
CE00
CEFE
CEFE
ENDCHAR
STARTCHAR 2119
ENCODING 8473
SWIDTH 600 0
DWIDTH 16 0
BBX 14 19 2 0
BITMAP
FFC0
FFF0
DCF8
DCD8
DCD8
DCD8
DCDC
DCD8
DCD8
DCF8
DFF0
DFC0
DC00
DC00
DC00
DC00
DC00
FC00
FC00
ENDCHAR
STARTCHAR 211A
ENCODING 8474
SWIDTH 600 0
DWIDTH 16 0
BBX 15 23 1 -4
BITMAP
0FC0
1FF0
3C70
7C78
7C78
6C7C
EC7C
EC7C
EC7C
EC7C
EC7C
EC7C
EC7C
6C7C
7C78
7C78
3C70
1FE0
0FF0
003C
001E
000E
000E
ENDCHAR
STARTCHAR 211D
ENCODING 8477
SWIDTH 600 0
DWIDTH 16 0
BBX 14 19 2 0
BITMAP
FFC0
FFE0
DCF0
DCD8
DCD8
DCD8
DCDC
DCD8
DCD8
DCF8
DFF0
DFC0
DDC0
DCE0
DCE0
DC70
DC38
FC38
FC1C
ENDCHAR
STARTCHAR 2122
ENCODING 8482
SWIDTH 600 0
DWIDTH 16 0
BBX 16 11 0 8
BITMAP
FFC7
FFC7
19EF
19EF
19AB
19AB
19AB
19BB
19BB
199B
1983
ENDCHAR
STARTCHAR 2124
ENCODING 8484
SWIDTH 600 0
DWIDTH 16 0
BBX 13 19 2 0
BITMAP
7FF8
7FF8
0330
0330
0670
0660
0EE0
0CC0
1CC0
1980
1980
3300
3300
7700
6600
EE00
CC00
FFF8
FFF0
ENDCHAR
STARTCHAR 212E
ENCODING 8494
SWIDTH 600 0
DWIDTH 16 0
BBX 15 19 1 0
BITMAP
0FE0
3030
6018
601C
E01C
E01E
E01E
E01E
E01E
FFFE
E000
E000
E000
E000
E000
E004
6008
3030
0FE0
ENDCHAR
STARTCHAR 2153
ENCODING 8531
SWIDTH 600 0
DWIDTH 16 0
BBX 17 19 0 0
BITMAP
180000
780000
F80000
980000
180000
180200
180700
181E00
187800
01E000
07BE00
1E7F00
786300
E00300
001E00
000380
00C380
007F00
003E00
ENDCHAR
STARTCHAR 2154
ENCODING 8532
SWIDTH 600 0
DWIDTH 16 0
BBX 19 19 -1 0
BITMAP
3C0000
7E0000
C70000
070000
060000
1C0080
700380
FF0F00
FF3C00
00F000
03CF80
0F3FC0
3C18C0
3000C0
000700
0000C0
0010E0
003FC0
000F80
ENDCHAR
STARTCHAR 2155
ENCODING 8533
SWIDTH 600 0
DWIDTH 16 0
BBX 18 19 -1 0
BITMAP
0C0000
3C0000
FC0000
4C0000
0C0000
0C0100
0C0700
0C1E00
0C7800
01E000
079FC0
1E1F80
781800
401F80
001FC0
0001C0
0011C0
003FC0
000F00
ENDCHAR
STARTCHAR 2156
ENCODING 8534
SWIDTH 600 0
DWIDTH 16 0
BBX 19 19 -1 0
BITMAP
3C0000
FE0000
C60000
060000
0E0000
1C0100
700380
FF0E00
FF3800
01E000
078FC0
1E0FC0
780C00
200F80
000FC0
0000E0
0008E0
001FC0
000F80
ENDCHAR
STARTCHAR 2157
ENCODING 8535
SWIDTH 600 0
DWIDTH 16 0
BBX 18 19 -1 0
BITMAP
3E0000
7F0000
630000
030000
1E0000
030100
438700
FF1C00
3E7800
01E000
079FC0
1E1FC0
781800
601F80
001FC0
0000C0
0010C0
003FC0
000F80
ENDCHAR
STARTCHAR 2158
ENCODING 8536
SWIDTH 600 0
DWIDTH 16 0
BBX 18 20 -1 0
BITMAP
100000
180000
380000
300000
660000
660000
FF0300
FF0780
061E00
067800
01E000
079FC0
1E1FC0
781800
201B80
001FC0
0000C0
0010C0
003FC0
000F80
ENDCHAR
STARTCHAR 2159
ENCODING 8537
SWIDTH 600 0
DWIDTH 16 0
BBX 16 19 0 0
BITMAP
1C00
3C00
FC00
4C00
0C00
0C02
0C07
0C1E
0C78
01E0
07BE
3E7E
F8E2
40DE
00E3
00C3
00E7
007F
003C
ENDCHAR
STARTCHAR 215A
ENCODING 8538
SWIDTH 600 0
DWIDTH 16 0
BBX 16 19 0 0
BITMAP
7F00
7F00
7E00
7F00
0300
0302
470F
FF3C
3CF0
03C0
0F3F
3C7E
F0E2
40DE
00E3
00C3
00E3
007F
003E
ENDCHAR
ENDFONT
